<?xml version="1.0" encoding="UTF-8"?>
<!DOCTYPE svg PUBLIC "-//W3C//DTD SVG 1.1//EN" "http://www.w3.org/Graphics/SVG/1.1/DTD/svg11.dtd">
<svg xmlns="http://www.w3.org/2000/svg" version="1.1" width="500px" height="500px" style="shape-rendering:geometricPrecision; text-rendering:geometricPrecision; image-rendering:optimizeQuality; fill-rule:evenodd; clip-rule:evenodd" xmlns:xlink="http://www.w3.org/1999/xlink">
<g><path style="opacity:1" fill="#f2e07f" d="M 202.5,84.5 C 200.623,71.9741 199.956,59.3074 200.5,46.5C 200.953,45.5416 201.619,44.7083 202.5,44C 204.888,43.6966 207.055,42.8633 209,41.5C 215.294,11.749 233.461,0.249036 263.5,7C 275.478,10.3097 283.645,17.8097 288,29.5C 289,33.5 290,37.5 291,41.5C 294.036,43.1721 297.036,44.8387 300,46.5C 300.959,58.9294 300.626,71.2627 299,83.5C 283.59,95.4546 268.09,107.288 252.5,119C 249.449,119.857 246.783,119.19 244.5,117C 230.314,106.303 216.314,95.4697 202.5,84.5 Z M 221.5,44.5 C 240.503,44.3334 259.503,44.5001 278.5,45C 279,45.5 279.5,46 280,46.5C 280.667,54.1667 280.667,61.8333 280,69.5C 279.5,70.6667 278.667,71.5 277.5,72C 274.167,72.6667 270.833,72.6667 267.5,72C 264.373,69.0847 261.04,66.418 257.5,64C 252.5,63.3333 247.5,63.3333 242.5,64C 238.967,66.3713 235.634,69.0379 232.5,72C 220.6,74.9323 216.267,70.4323 219.5,58.5C 219.667,54.5 219.833,50.5 220,46.5C 220.717,45.9558 221.217,45.2891 221.5,44.5 Z"/></g>
<g><path style="opacity:1" fill="#efdd7d" d="M 186.5,60.5 C 151.809,60.8064 117.142,60.4731 82.5,59.5C 68.6693,54.2513 55.6693,47.4179 43.5,39C 41.981,37.6487 40.6477,36.1487 39.5,34.5C 88.4955,33.5001 137.495,33.1667 186.5,33.5C 186.5,42.5 186.5,51.5 186.5,60.5 Z"/></g>
<g><path style="opacity:1" fill="#f8e582" d="M 314.5,34.5 C 362.833,34.5 411.167,34.5 459.5,34.5C 446.339,46.7541 431.006,55.4208 413.5,60.5C 380.671,59.5017 347.671,59.1684 314.5,59.5C 314.5,51.1667 314.5,42.8333 314.5,34.5 Z"/></g>
<g><path style="opacity:0.715" fill="#beae63" d="M 200.5,46.5 C 199.956,59.3074 200.623,71.9741 202.5,84.5C 201.542,84.0472 200.708,83.3805 200,82.5C 199.174,70.3262 199.34,58.3262 200.5,46.5 Z"/></g>
<g><path style="opacity:1" fill="#fff98c" d="M 314.5,34.5 C 314.5,42.8333 314.5,51.1667 314.5,59.5C 347.671,59.1684 380.671,59.5017 413.5,60.5C 380.167,60.5 346.833,60.5 313.5,60.5C 313.174,51.6506 313.507,42.9839 314.5,34.5 Z"/></g>
<g><path style="opacity:0.364" fill="#7b723e" d="M 82.5,59.5 C 117.142,60.4731 151.809,60.8064 186.5,60.5C 153.002,61.6642 119.336,61.8309 85.5,61C 84.2625,60.7679 83.2625,60.2679 82.5,59.5 Z"/></g>
<g><path style="opacity:0.365" fill="#5b542d" d="M 459.5,34.5 C 411.167,34.5 362.833,34.5 314.5,34.5C 313.507,42.9839 313.174,51.6506 313.5,60.5C 346.833,60.5 380.167,60.5 413.5,60.5C 380.004,61.4983 346.337,61.8316 312.5,61.5C 312.5,52.1667 312.5,42.8333 312.5,33.5C 361.67,33.1678 410.67,33.5012 459.5,34.5 Z"/></g>
<g><path style="opacity:0.463" fill="#79703d" d="M 409.5,73.5 C 409.167,73.5 408.833,73.5 408.5,73.5C 376.833,73.5 345.167,73.5 313.5,73.5C 313.5,79.1667 313.5,84.8333 313.5,90.5C 313.167,90.5 312.833,90.5 312.5,90.5C 312.5,84.5 312.5,78.5 312.5,72.5C 345.004,72.1684 377.338,72.5018 409.5,73.5 Z"/></g>
<g><path style="opacity:1" fill="#f3e17f" d="M 312.5,90.5 C 312.833,90.5 313.167,90.5 313.5,90.5C 314.488,85.3595 314.821,80.0262 314.5,74.5C 346.004,74.8315 377.338,74.4982 408.5,73.5C 408.833,73.5 409.167,73.5 409.5,73.5C 416.661,75.7754 423.661,78.4421 430.5,81.5C 430.5,85.1667 430.5,88.8333 430.5,92.5C 396.663,92.1684 362.996,92.5017 329.5,93.5C 303.169,115.824 276.502,137.824 249.5,159.5C 223.123,137.447 196.789,115.447 170.5,93.5C 136.671,92.5017 102.671,92.1683 68.5,92.5C 68.5,88.8333 68.5,85.1667 68.5,81.5C 75.8753,78.2044 83.542,75.371 91.5,73C 123.165,72.5 154.832,72.3334 186.5,72.5C 186.334,78.1764 186.501,83.8431 187,89.5C 208,106.5 229,123.5 250,140.5C 270.59,123.464 291.423,106.798 312.5,90.5 Z"/></g>
<g><path style="opacity:1" fill="#fff88c" d="M 408.5,73.5 C 377.338,74.4982 346.004,74.8315 314.5,74.5C 314.821,80.0262 314.488,85.3595 313.5,90.5C 313.5,84.8333 313.5,79.1667 313.5,73.5C 345.167,73.5 376.833,73.5 408.5,73.5 Z"/></g>
<g><path style="opacity:0.718" fill="#b8a960" d="M 68.5,81.5 C 68.5,85.1667 68.5,88.8333 68.5,92.5C 102.671,92.1683 136.671,92.5017 170.5,93.5C 136.167,93.5 101.833,93.5 67.5,93.5C 67.1832,89.2984 67.5166,85.2984 68.5,81.5 Z"/></g>
<g><path style="opacity:0.718" fill="#b8a960" d="M 430.5,81.5 C 431.483,85.2984 431.817,89.2984 431.5,93.5C 397.5,93.5 363.5,93.5 329.5,93.5C 362.996,92.5017 396.663,92.1684 430.5,92.5C 430.5,88.8333 430.5,85.1667 430.5,81.5 Z"/></g>
<g><path style="opacity:1" fill="#f8e582" d="M 94.5,373.5 C 104.687,380.185 115.187,386.518 126,392.5C 129.74,363.177 133.406,333.843 137,304.5C 138.167,302 140,300.167 142.5,299C 151.24,295.921 159.907,292.754 168.5,289.5C 169.167,332.5 169.833,375.5 170.5,418.5C 181.019,424.682 191.519,431.015 202,437.5C 202.667,394.167 202.667,350.833 202,307.5C 201,305.833 200,304.167 199,302.5C 192.724,300.395 189.891,296.061 190.5,289.5C 191.922,275.791 193.589,262.124 195.5,248.5C 196.619,237.501 197.785,226.501 199,215.5C 200.474,210.026 203.974,206.526 209.5,205C 218.964,201.765 228.297,198.265 237.5,194.5C 238.167,282.833 238.833,371.167 239.5,459.5C 240.391,460.11 241.391,460.443 242.5,460.5C 244.59,462.39 246.923,464.057 249.5,465.5C 253.401,463.392 257.067,461.059 260.5,458.5C 260.834,370.329 261.834,282.329 263.5,194.5C 274.59,198.876 285.59,203.543 296.5,208.5C 297.333,209.5 298.167,210.5 299,211.5C 301.749,225.185 303.915,238.852 305.5,252.5C 306.763,263.8 307.763,275.133 308.5,286.5C 310.22,293.449 307.886,298.283 301.5,301C 299.951,302.214 298.785,303.714 298,305.5C 297.5,337.165 297.333,368.832 297.5,400.5C 296.175,412.673 296.175,425.006 297.5,437.5C 298.107,437.376 298.44,437.043 298.5,436.5C 308.473,430.845 318.473,425.179 328.5,419.5C 329.167,375.833 329.833,332.167 330.5,288.5C 339.793,292.431 349.126,296.264 358.5,300C 360.378,301.543 361.878,303.376 363,305.5C 366.429,334.599 370.262,363.599 374.5,392.5C 384.67,386.248 395.003,380.248 405.5,374.5C 406.5,289.503 406.833,204.503 406.5,119.5C 414.5,119.5 422.5,119.5 430.5,119.5C 430.5,208.833 430.5,298.167 430.5,387.5C 370.685,423.579 310.352,458.913 249.5,493.5C 188.977,458.408 128.644,423.075 68.5,387.5C 68.5,298.167 68.5,208.833 68.5,119.5C 76.8333,119.5 85.1667,119.5 93.5,119.5C 93.1673,204.335 93.5007,289.002 94.5,373.5 Z"/></g>
<g><path style="opacity:1" fill="#958a55" d="M 94.5,118.5 C 94.5,169.5 94.5,220.5 94.5,271.5C 94.5,305.5 94.5,339.5 94.5,373.5C 93.5007,289.002 93.1673,204.335 93.5,119.5C 85.1667,119.5 76.8333,119.5 68.5,119.5C 68.5,208.833 68.5,298.167 68.5,387.5C 67.5006,298.002 67.1673,208.335 67.5,118.5C 76.5,118.5 85.5,118.5 94.5,118.5 Z"/></g>
<g><path style="opacity:1" fill="#353c80" d="M 94.5,118.5 C 120.169,118.333 145.835,118.5 171.5,119C 197.381,140.388 223.381,161.555 249.5,182.5C 276.157,161.825 302.491,140.658 328.5,119C 354.498,118.5 380.498,118.333 406.5,118.5C 406.5,118.833 406.5,119.167 406.5,119.5C 405.667,170.332 405.167,221.332 405,272.5C 372.772,260.753 339.605,252.753 305.5,248.5C 305.5,249.833 305.5,251.167 305.5,252.5C 303.915,238.852 301.749,225.185 299,211.5C 298.167,210.5 297.333,209.5 296.5,208.5C 285.59,203.543 274.59,198.876 263.5,194.5C 262.791,193.596 261.791,193.263 260.5,193.5C 260.5,210.833 260.5,228.167 260.5,245.5C 253.833,245.5 247.167,245.5 240.5,245.5C 240.167,245.5 239.833,245.5 239.5,245.5C 239.833,228.154 239.5,210.821 238.5,193.5C 237.893,193.624 237.56,193.957 237.5,194.5C 228.297,198.265 218.964,201.765 209.5,205C 203.974,206.526 200.474,210.026 199,215.5C 197.785,226.501 196.619,237.501 195.5,248.5C 160.874,251.993 127.207,259.659 94.5,271.5C 94.5,220.5 94.5,169.5 94.5,118.5 Z"/></g>
<g><path style="opacity:0.149" fill="#2c2914" d="M 406.5,119.5 C 406.5,119.167 406.5,118.833 406.5,118.5C 414.833,118.5 423.167,118.5 431.5,118.5C 431.833,208.335 431.499,298.002 430.5,387.5C 430.5,298.167 430.5,208.833 430.5,119.5C 422.5,119.5 414.5,119.5 406.5,119.5 Z"/></g>
<g><path style="opacity:1" fill="#a99f74" d="M 237.5,194.5 C 237.56,193.957 237.893,193.624 238.5,193.5C 239.5,210.821 239.833,228.154 239.5,245.5C 239.5,316.833 239.5,388.167 239.5,459.5C 238.833,371.167 238.167,282.833 237.5,194.5 Z"/></g>
<g><path style="opacity:1" fill="#202554" d="M 240.5,245.5 C 247.167,245.5 253.833,245.5 260.5,245.5C 260.5,316.5 260.5,387.5 260.5,458.5C 257.067,461.059 253.401,463.392 249.5,465.5C 246.923,464.057 244.59,462.39 242.5,460.5C 242.217,459.711 241.717,459.044 241,458.5C 240.5,387.501 240.333,316.501 240.5,245.5 Z"/></g>
<g><path style="opacity:1" fill="#74706a" d="M 263.5,194.5 C 261.834,282.329 260.834,370.329 260.5,458.5C 260.5,387.5 260.5,316.5 260.5,245.5C 260.5,228.167 260.5,210.833 260.5,193.5C 261.791,193.263 262.791,193.596 263.5,194.5 Z"/></g>
<g><path style="opacity:1" fill="#171d52" d="M 239.5,245.5 C 239.833,245.5 240.167,245.5 240.5,245.5C 240.333,316.501 240.5,387.501 241,458.5C 241.717,459.044 242.217,459.711 242.5,460.5C 241.391,460.443 240.391,460.11 239.5,459.5C 239.5,388.167 239.5,316.833 239.5,245.5 Z"/></g>
<g><path style="opacity:1" fill="#212655" d="M 195.5,248.5 C 193.589,262.124 191.922,275.791 190.5,289.5C 189.891,296.061 192.724,300.395 199,302.5C 200,304.167 201,305.833 202,307.5C 202.667,350.833 202.667,394.167 202,437.5C 191.519,431.015 181.019,424.682 170.5,418.5C 170.833,375.162 170.5,331.828 169.5,288.5C 168.893,288.624 168.56,288.957 168.5,289.5C 159.907,292.754 151.24,295.921 142.5,299C 140,300.167 138.167,302 137,304.5C 133.406,333.843 129.74,363.177 126,392.5C 115.187,386.518 104.687,380.185 94.5,373.5C 94.5,339.5 94.5,305.5 94.5,271.5C 127.207,259.659 160.874,251.993 195.5,248.5 Z"/></g>
<g><path style="opacity:1" fill="#222755" d="M 406.5,119.5 C 406.833,204.503 406.5,289.503 405.5,374.5C 395.003,380.248 384.67,386.248 374.5,392.5C 370.262,363.599 366.429,334.599 363,305.5C 361.878,303.376 360.378,301.543 358.5,300C 349.126,296.264 339.793,292.431 330.5,288.5C 329.833,332.167 329.167,375.833 328.5,419.5C 318.473,425.179 308.473,430.845 298.5,436.5C 297.505,424.678 297.172,412.678 297.5,400.5C 297.333,368.832 297.5,337.165 298,305.5C 298.785,303.714 299.951,302.214 301.5,301C 307.886,298.283 310.22,293.449 308.5,286.5C 307.763,275.133 306.763,263.8 305.5,252.5C 305.5,251.167 305.5,249.833 305.5,248.5C 339.605,252.753 372.772,260.753 405,272.5C 405.167,221.332 405.667,170.332 406.5,119.5 Z"/></g>
<g><path style="opacity:1" fill="#d9c97b" d="M 168.5,289.5 C 168.56,288.957 168.893,288.624 169.5,288.5C 170.5,331.828 170.833,375.162 170.5,418.5C 169.833,375.5 169.167,332.5 168.5,289.5 Z"/></g>
<g><path style="opacity:1" fill="#a19770" d="M 297.5,400.5 C 297.172,412.678 297.505,424.678 298.5,436.5C 298.44,437.043 298.107,437.376 297.5,437.5C 296.175,425.006 296.175,412.673 297.5,400.5 Z"/></g>
</svg>
