<?xml version="1.0" encoding="UTF-8"?>
<!DOCTYPE svg PUBLIC "-//W3C//DTD SVG 1.1//EN" "http://www.w3.org/Graphics/SVG/1.1/DTD/svg11.dtd">
<svg xmlns="http://www.w3.org/2000/svg" version="1.1" width="500px" height="500px" style="shape-rendering:geometricPrecision; text-rendering:geometricPrecision; image-rendering:optimizeQuality; fill-rule:evenodd; clip-rule:evenodd" xmlns:xlink="http://www.w3.org/1999/xlink">
<g><path style="opacity:0.886" fill="#bfb26f" d="M 262.5,6.5 C 254.163,5.24907 245.83,5.24907 237.5,6.5C 245.84,3.88006 254.173,3.88006 262.5,6.5 Z"/></g>
<g><path style="opacity:1" fill="#f3e17f" d="M 262.5,6.5 C 275.865,9.35917 284.698,17.3592 289,30.5C 289.452,33.8772 290.118,37.2105 291,40.5C 293.866,42.4598 296.866,44.1265 300,45.5C 300.217,55.1941 300.717,64.8607 301.5,74.5C 301.217,78.4551 299.884,81.9551 297.5,85C 281.936,96.9014 266.103,108.401 250,119.5C 233.087,107.758 216.587,95.425 200.5,82.5C 199.531,80.4272 198.865,78.2605 198.5,76C 199.273,65.856 199.773,55.6894 200,45.5C 202.866,43.5402 205.866,41.8735 209,40.5C 210.503,28.3169 216.003,18.4836 225.5,11C 229.219,8.63609 233.219,7.13609 237.5,6.5C 245.83,5.24907 254.163,5.24907 262.5,6.5 Z M 224.5,43.5 C 242.88,43.1927 261.213,43.5261 279.5,44.5C 280.634,52.7548 280.801,61.0881 280,69.5C 279.5,70 279,70.5 278.5,71C 274.5,71.6667 270.5,71.6667 266.5,71C 264.184,68.7522 261.85,66.4189 259.5,64C 253.5,62 247.5,62 241.5,64C 238.5,65.6667 236.167,68 234.5,71C 230.167,71.6667 225.833,71.6667 221.5,71C 221,70.5 220.5,70 220,69.5C 219.333,61.5 219.333,53.5 220,45.5C 221.33,44.4178 222.83,43.7512 224.5,43.5 Z"/></g>
<g><path style="opacity:0.419" fill="#827842" d="M 224.5,43.5 C 242.329,42.338 260.329,42.1713 278.5,43C 279.056,43.3826 279.389,43.8826 279.5,44.5C 261.213,43.5261 242.88,43.1927 224.5,43.5 Z"/></g>
<g><path style="opacity:0.074" fill="#262310" d="M 408.5,72.5 C 376.833,72.5 345.167,72.5 313.5,72.5C 313.822,78.358 313.489,84.0247 312.5,89.5C 312.5,83.5 312.5,77.5 312.5,71.5C 344.671,71.1684 376.671,71.5018 408.5,72.5 Z"/></g>
<g><path style="opacity:1" fill="#eedd7d" d="M 312.5,89.5 C 313.489,84.0247 313.822,78.358 313.5,72.5C 345.167,72.5 376.833,72.5 408.5,72.5C 416.044,74.6059 423.377,77.2726 430.5,80.5C 431.436,84.7352 431.769,89.0685 431.5,93.5C 397.498,93.3333 363.498,93.5 329.5,94C 303.279,115.893 276.779,137.393 250,158.5C 223.221,137.393 196.721,115.893 170.5,94C 136.168,93.5 101.835,93.3333 67.5,93.5C 67.2,88.9014 67.5333,84.4014 68.5,80C 76.2418,77.5306 83.9084,74.8639 91.5,72C 123.165,71.5 154.832,71.3334 186.5,71.5C 186.334,77.5092 186.501,83.5092 187,89.5C 207.736,106.738 228.903,123.405 250.5,139.5C 271.237,122.814 291.903,106.148 312.5,89.5 Z"/></g>
<g><path style="opacity:0.035" fill="#f2edd9" d="M 430.5,80.5 C 431.8,82.223 432.467,84.3897 432.5,87C 432.496,89.3608 432.163,91.5274 431.5,93.5C 431.769,89.0685 431.436,84.7352 430.5,80.5 Z"/></g>
<g><path style="opacity:1" fill="#7f4a82" d="M 407.5,118.5 C 407.833,204.002 407.499,289.335 406.5,374.5C 406.833,340.493 406.5,306.493 405.5,272.5C 372.997,260.864 339.663,252.864 305.5,248.5C 303.76,237.583 302.26,226.583 301,215.5C 300.332,211.501 298.165,208.668 294.5,207C 283.65,202.496 272.816,197.996 262,193.5C 261.833,282.334 261.333,371.001 260.5,459.5C 260.5,388.167 260.5,316.833 260.5,245.5C 253.5,245.5 246.5,245.5 239.5,245.5C 239.833,228.154 239.5,210.821 238.5,193.5C 237.893,193.624 237.56,193.957 237.5,194.5C 227.198,198.313 216.865,202.146 206.5,206C 202.51,207.99 200.01,211.157 199,215.5C 197.742,227.344 196.242,239.01 194.5,250.5C 194.631,249.624 194.298,248.957 193.5,248.5C 159.707,252.865 126.707,260.532 94.5,271.5C 94.5,305.833 94.5,340.167 94.5,374.5C 93.5007,289.668 93.1673,204.668 93.5,119.5C 93.5,119.167 93.5,118.833 93.5,118.5C 118.997,117.337 144.663,117.17 170.5,118C 196.721,139.893 223.221,161.393 250,182.5C 276.779,161.393 303.279,139.893 329.5,118C 355.67,117.17 381.67,117.337 407.5,118.5 Z"/></g>
<g><path style="opacity:0.576" fill="#f5e594" d="M 93.5,118.5 C 93.5,118.833 93.5,119.167 93.5,119.5C 85.1667,119.5 76.8333,119.5 68.5,119.5C 68.3333,208.834 68.5,298.167 69,387.5C 69.7172,388.044 70.2172,388.711 70.5,389.5C 69.5041,389.586 68.6708,389.252 68,388.5C 67.5,298.501 67.3333,208.501 67.5,118.5C 76.1667,118.5 84.8333,118.5 93.5,118.5 Z"/></g>
<g><path style="opacity:0.999" fill="#f9e683" d="M 407.5,118.5 C 415.833,118.5 424.167,118.5 432.5,118.5C 432.833,208.502 432.5,298.502 431.5,388.5C 370.902,423.714 310.402,459.047 250,494.5C 189.873,459.859 130.04,424.859 70.5,389.5C 70.2172,388.711 69.7172,388.044 69,387.5C 68.5,298.167 68.3333,208.834 68.5,119.5C 76.8333,119.5 85.1667,119.5 93.5,119.5C 93.1673,204.668 93.5007,289.668 94.5,374.5C 104.642,380.741 114.975,386.741 125.5,392.5C 129.474,363.898 132.974,335.231 136,306.5C 136.792,304.413 137.959,302.579 139.5,301C 148.992,296.671 158.659,292.837 168.5,289.5C 169.167,332.833 169.833,376.167 170.5,419.5C 180.833,425.5 191.167,431.5 201.5,437.5C 201.56,438.043 201.893,438.376 202.5,438.5C 203.831,395.669 203.831,353.002 202.5,310.5C 201.623,305.554 198.956,302.054 194.5,300C 192.951,298.786 191.785,297.286 191,295.5C 191.54,280.471 192.706,265.471 194.5,250.5C 196.242,239.01 197.742,227.344 199,215.5C 200.01,211.157 202.51,207.99 206.5,206C 216.865,202.146 227.198,198.313 237.5,194.5C 238.167,283.167 238.833,371.833 239.5,460.5C 242.816,462.158 246.15,463.825 249.5,465.5C 253.317,463.759 256.983,461.759 260.5,459.5C 261.333,371.001 261.833,282.334 262,193.5C 272.816,197.996 283.65,202.496 294.5,207C 298.165,208.668 300.332,211.501 301,215.5C 302.26,226.583 303.76,237.583 305.5,248.5C 306.759,261.834 308.093,275.167 309.5,288.5C 309.458,291.259 308.958,293.925 308,296.5C 304,299.167 300.667,302.5 298,306.5C 297.167,350.17 297.333,393.837 298.5,437.5C 308.851,431.472 319.184,425.472 329.5,419.5C 330.167,376.167 330.833,332.833 331.5,289.5C 341.341,292.837 351.008,296.671 360.5,301C 361.787,302.41 362.954,303.91 364,305.5C 367.336,334.857 370.836,364.19 374.5,393.5C 385.194,387.155 395.861,380.822 406.5,374.5C 407.499,289.335 407.833,204.002 407.5,118.5 Z"/></g>
<g><path style="opacity:1" fill="#c9ac79" d="M 237.5,194.5 C 237.56,193.957 237.893,193.624 238.5,193.5C 239.5,210.821 239.833,228.154 239.5,245.5C 239.5,317.167 239.5,388.833 239.5,460.5C 238.833,371.833 238.167,283.167 237.5,194.5 Z"/></g>
<g><path style="opacity:1" fill="#531f5d" d="M 239.5,245.5 C 246.5,245.5 253.5,245.5 260.5,245.5C 260.5,316.833 260.5,388.167 260.5,459.5C 256.983,461.759 253.317,463.759 249.5,465.5C 246.15,463.825 242.816,462.158 239.5,460.5C 239.5,388.833 239.5,317.167 239.5,245.5 Z"/></g>
<g><path style="opacity:1" fill="#531f5d" d="M 194.5,250.5 C 192.706,265.471 191.54,280.471 191,295.5C 191.785,297.286 192.951,298.786 194.5,300C 198.956,302.054 201.623,305.554 202.5,310.5C 202.832,353.003 202.499,395.337 201.5,437.5C 191.167,431.5 180.833,425.5 170.5,419.5C 170.833,375.828 170.5,332.162 169.5,288.5C 168.893,288.624 168.56,288.957 168.5,289.5C 158.659,292.837 148.992,296.671 139.5,301C 137.959,302.579 136.792,304.413 136,306.5C 132.974,335.231 129.474,363.898 125.5,392.5C 114.975,386.741 104.642,380.741 94.5,374.5C 94.5,340.167 94.5,305.833 94.5,271.5C 126.707,260.532 159.707,252.865 193.5,248.5C 194.298,248.957 194.631,249.624 194.5,250.5 Z"/></g>
<g><path style="opacity:1" fill="#54205e" d="M 305.5,248.5 C 339.663,252.864 372.997,260.864 405.5,272.5C 406.5,306.493 406.833,340.493 406.5,374.5C 395.861,380.822 385.194,387.155 374.5,393.5C 370.836,364.19 367.336,334.857 364,305.5C 362.954,303.91 361.787,302.41 360.5,301C 351.008,296.671 341.341,292.837 331.5,289.5C 331.44,288.957 331.107,288.624 330.5,288.5C 329.5,332.162 329.167,375.828 329.5,419.5C 319.184,425.472 308.851,431.472 298.5,437.5C 297.333,393.837 297.167,350.17 298,306.5C 300.667,302.5 304,299.167 308,296.5C 308.958,293.925 309.458,291.259 309.5,288.5C 308.093,275.167 306.759,261.834 305.5,248.5 Z"/></g>
<g><path style="opacity:1" fill="#bea275" d="M 168.5,289.5 C 168.56,288.957 168.893,288.624 169.5,288.5C 170.5,332.162 170.833,375.828 170.5,419.5C 169.833,376.167 169.167,332.833 168.5,289.5 Z"/></g>
<g><path style="opacity:1" fill="#b39573" d="M 331.5,289.5 C 330.833,332.833 330.167,376.167 329.5,419.5C 329.167,375.828 329.5,332.162 330.5,288.5C 331.107,288.624 331.44,288.957 331.5,289.5 Z"/></g>
<g><path style="opacity:1" fill="#cbaf78" d="M 202.5,310.5 C 203.831,353.002 203.831,395.669 202.5,438.5C 201.893,438.376 201.56,438.043 201.5,437.5C 202.499,395.337 202.832,353.003 202.5,310.5 Z"/></g>
</svg>
