<?xml version="1.0" encoding="UTF-8"?>
<!DOCTYPE svg PUBLIC "-//W3C//DTD SVG 1.1//EN" "http://www.w3.org/Graphics/SVG/1.1/DTD/svg11.dtd">
<svg xmlns="http://www.w3.org/2000/svg" version="1.1" width="500px" height="500px" style="shape-rendering:geometricPrecision; text-rendering:geometricPrecision; image-rendering:optimizeQuality; fill-rule:evenodd; clip-rule:evenodd" xmlns:xlink="http://www.w3.org/1999/xlink">
<g><path style="opacity:1" fill="#f6e380" d="M 245.5,3.5 C 245.5,51.1667 245.5,98.8333 245.5,146.5C 238.756,144.875 232.923,141.541 228,136.5C 227.5,115.169 227.333,93.8359 227.5,72.5C 226.728,68.2504 226.228,63.9171 226,59.5C 223.593,57.5955 221.759,55.2622 220.5,52.5C 222.297,39.1565 224.131,25.8231 226,12.5C 231.906,8.29833 238.406,5.29833 245.5,3.5 Z"/></g>
<g><path style="opacity:1" fill="#f2df7e" d="M 279.5,41.5 C 279.109,46.2587 279.109,50.9253 279.5,55.5C 277.861,56.4725 276.527,57.8058 275.5,59.5C 274.502,84.6612 274.169,109.995 274.5,135.5C 270.674,139.99 266.007,143.323 260.5,145.5C 259.5,145.5 258.5,145.5 257.5,145.5C 257.831,120.994 257.498,96.6609 256.5,72.5C 255.511,49.575 255.178,26.575 255.5,3.5C 262.6,5.04878 269.267,7.71544 275.5,11.5C 277.815,21.3535 279.148,31.3535 279.5,41.5 Z"/></g>
<g><path style="opacity:0.125" fill="#262310" d="M 31.5,29.5 C 90.1667,29.5 148.833,29.5 207.5,29.5C 207.802,32.0593 207.468,34.3926 206.5,36.5C 206.5,34.5 206.5,32.5 206.5,30.5C 147.998,30.8324 89.6643,30.499 31.5,29.5 Z"/></g>
<g><path style="opacity:1" fill="#f8e582" d="M 31.5,29.5 C 89.6643,30.499 147.998,30.8324 206.5,30.5C 206.5,32.5 206.5,34.5 206.5,36.5C 197.411,41.3779 188.078,45.7113 178.5,49.5C 177.527,51.9479 177.194,54.6146 177.5,57.5C 139.5,57.5 101.5,57.5 63.5,57.5C 52.7081,49.2137 42.0415,40.7137 31.5,32C 30.2264,31.0228 30.2264,30.1894 31.5,29.5 Z"/></g>
<g><path style="opacity:1" fill="#eedc7d" d="M 435.5,57.5 C 397.5,57.5 359.5,57.5 321.5,57.5C 321.806,54.6146 321.473,51.9479 320.5,49.5C 311.522,45.345 302.522,41.1783 293.5,37C 292.565,34.6194 292.232,32.1194 292.5,29.5C 351.17,29.1667 409.837,29.5 468.5,30.5C 457.777,39.8948 446.777,48.8948 435.5,57.5 Z"/></g>
<g><path style="opacity:1" fill="#9e9252" d="M 279.5,41.5 C 280.271,44.8458 280.938,48.3458 281.5,52C 281.192,53.4595 280.525,54.6261 279.5,55.5C 279.109,50.9253 279.109,46.2587 279.5,41.5 Z"/></g>
<g><path style="opacity:1" fill="#f7e481" d="M 211.5,50.5 C 211.5,75.5 211.5,100.5 211.5,125.5C 203.655,124.918 196.322,122.585 189.5,118.5C 189.167,116.667 188.833,114.833 188.5,113C 189.912,98.4602 191.578,83.9602 193.5,69.5C 193.234,65.3951 193.734,61.3951 195,57.5C 200.187,54.4912 205.687,52.1579 211.5,50.5 Z"/></g>
<g><path style="opacity:1" fill="#f6e381" d="M 290.5,50.5 C 295.657,51.8308 300.657,53.6641 305.5,56C 308.076,59.7153 309.076,63.882 308.5,68.5C 310.107,80.7893 311.607,93.1226 313,105.5C 313.667,109.5 313.667,113.5 313,117.5C 306.205,121.377 299.038,124.377 291.5,126.5C 290.5,108.846 290.167,91.1792 290.5,73.5C 290.5,65.8333 290.5,58.1667 290.5,50.5 Z"/></g>
<g><path style="opacity:0.639" fill="#c9b869" d="M 178.5,49.5 C 178.5,52.5 178.5,55.5 178.5,58.5C 139.996,58.8319 101.663,58.4985 63.5,57.5C 101.5,57.5 139.5,57.5 177.5,57.5C 177.194,54.6146 177.527,51.9479 178.5,49.5 Z"/></g>
<g><path style="opacity:0.639" fill="#c3b366" d="M 320.5,49.5 C 321.473,51.9479 321.806,54.6146 321.5,57.5C 359.5,57.5 397.5,57.5 435.5,57.5C 397.337,58.4985 359.004,58.8319 320.5,58.5C 320.5,55.5 320.5,52.5 320.5,49.5 Z"/></g>
<g><path style="opacity:1" fill="#672d27" d="M 211.5,50.5 C 212.492,57.6476 212.825,64.9809 212.5,72.5C 217.5,72.5 222.5,72.5 227.5,72.5C 227.333,93.8359 227.5,115.169 228,136.5C 232.923,141.541 238.756,144.875 245.5,146.5C 246.498,122.339 246.831,98.0057 246.5,73.5C 249.833,73.5 253.167,73.5 256.5,73.5C 256.5,97.8333 256.5,122.167 256.5,146.5C 258.099,146.768 259.432,146.434 260.5,145.5C 266.007,143.323 270.674,139.99 274.5,135.5C 275.497,115.007 275.831,94.3401 275.5,73.5C 280.5,73.5 285.5,73.5 290.5,73.5C 290.167,91.1792 290.5,108.846 291.5,126.5C 299.038,124.377 306.205,121.377 313,117.5C 313.667,113.5 313.667,109.5 313,105.5C 311.607,93.1226 310.107,80.7893 308.5,68.5C 309.434,69.5676 309.768,70.901 309.5,72.5C 314.167,72.5 318.833,72.5 323.5,72.5C 324.218,80.744 325.218,88.9107 326.5,97C 353.498,97.5 380.498,97.6666 407.5,97.5C 373.691,126.469 339.691,155.302 305.5,184C 304.5,184.667 303.5,184.667 302.5,184C 289.318,168.879 272.651,162.045 252.5,163.5C 226.682,162.657 206.849,172.99 193,194.5C 189.544,201.076 186.378,207.743 183.5,214.5C 182.692,214.808 182.025,215.308 181.5,216C 177.514,216.499 173.514,216.666 169.5,216.5C 169.667,244.835 169.5,273.169 169,301.5C 163.379,298.213 158.712,293.879 155,288.5C 147.548,277.935 141.382,266.601 136.5,254.5C 135.277,253.386 133.944,253.219 132.5,254C 122.277,258.943 112.277,264.11 102.5,269.5C 105.155,272.794 106.655,276.461 107,280.5C 102.788,282.356 98.6212,284.356 94.5,286.5C 93.3861,287.723 93.2195,289.056 94,290.5C 101.538,307.008 111.038,322.174 122.5,336C 120.888,338.616 118.888,340.95 116.5,343C 107.96,350.378 99.2932,357.545 90.5,364.5C 90.5,275.5 90.5,186.5 90.5,97.5C 117.5,97.5 144.5,97.5 171.5,97.5C 171.5,96.5 171.5,95.5 171.5,94.5C 171.756,87.4563 172.422,80.4563 173.5,73.5C 173.5,73.1667 173.5,72.8333 173.5,72.5C 179.833,72.5 186.167,72.5 192.5,72.5C 192.263,71.209 192.596,70.209 193.5,69.5C 191.578,83.9602 189.912,98.4602 188.5,113C 188.833,114.833 189.167,116.667 189.5,118.5C 196.322,122.585 203.655,124.918 211.5,125.5C 211.5,100.5 211.5,75.5 211.5,50.5 Z"/></g>
<g><path style="opacity:1" fill="#e4ca75" d="M 256.5,72.5 C 257.498,96.6609 257.831,120.994 257.5,145.5C 258.5,145.5 259.5,145.5 260.5,145.5C 259.432,146.434 258.099,146.768 256.5,146.5C 256.5,122.167 256.5,97.8333 256.5,73.5C 256.5,73.1667 256.5,72.8333 256.5,72.5 Z"/></g>
<g><path style="opacity:0.796" fill="#c9b869" d="M 173.5,72.5 C 173.5,72.8333 173.5,73.1667 173.5,73.5C 137.5,73.5 101.5,73.5 65.5,73.5C 65.169,178.904 65.5023,284.237 66.5,389.5C 64.5021,284.172 63.8355,178.505 64.5,72.5C 100.833,72.5 137.167,72.5 173.5,72.5 Z"/></g>
<g><path style="opacity:1" fill="#f6e481" d="M 323.5,72.5 C 360.833,72.5 398.167,72.5 435.5,72.5C 435.833,178.169 435.5,283.835 434.5,389.5C 372.67,424.914 311.003,460.581 249.5,496.5C 188.273,461.059 127.273,425.392 66.5,389.5C 65.5023,284.237 65.169,178.904 65.5,73.5C 101.5,73.5 137.5,73.5 173.5,73.5C 172.422,80.4563 171.756,87.4563 171.5,94.5C 144.554,96.149 117.554,97.149 90.5,97.5C 90.5,186.5 90.5,275.5 90.5,364.5C 89.8101,368.925 90.8101,372.759 93.5,376C 145.664,405.914 197.664,436.081 249.5,466.5C 302.336,435.581 355.336,404.914 408.5,374.5C 408.833,328.333 409.167,282.167 409.5,236C 409.5,189.495 408.833,143.328 407.5,97.5C 380.498,97.6666 353.498,97.5 326.5,97C 325.218,88.9107 324.218,80.744 323.5,72.5 Z"/></g>
<g><path style="opacity:1" fill="#63412b" d="M 245.5,3.5 C 246.498,26.3273 246.831,49.3273 246.5,72.5C 249.833,72.5 253.167,72.5 256.5,72.5C 256.5,72.8333 256.5,73.1667 256.5,73.5C 253.167,73.5 249.833,73.5 246.5,73.5C 246.831,98.0057 246.498,122.339 245.5,146.5C 245.5,98.8333 245.5,51.1667 245.5,3.5 Z"/></g>
<g><path style="opacity:1" fill="#ccac67" d="M 171.5,94.5 C 171.5,95.5 171.5,96.5 171.5,97.5C 144.5,97.5 117.5,97.5 90.5,97.5C 117.554,97.149 144.554,96.149 171.5,94.5 Z"/></g>
<g><path style="opacity:1" fill="#663f2b" d="M 290.5,50.5 C 290.5,58.1667 290.5,65.8333 290.5,73.5C 285.5,73.5 280.5,73.5 275.5,73.5C 275.831,94.3401 275.497,115.007 274.5,135.5C 274.169,109.995 274.502,84.6612 275.5,59.5C 275.5,63.8333 275.5,68.1667 275.5,72.5C 280.167,72.5 284.833,72.5 289.5,72.5C 289.175,64.9809 289.508,57.6476 290.5,50.5 Z"/></g>
<g><path style="opacity:1" fill="#4a201d" d="M 407.5,97.5 C 408.833,143.328 409.5,189.495 409.5,236C 409.167,282.167 408.833,328.333 408.5,374.5C 355.336,404.914 302.336,435.581 249.5,466.5C 197.664,436.081 145.664,405.914 93.5,376C 90.8101,372.759 89.8101,368.925 90.5,364.5C 99.2932,357.545 107.96,350.378 116.5,343C 118.888,340.95 120.888,338.616 122.5,336C 111.038,322.174 101.538,307.008 94,290.5C 93.2195,289.056 93.3861,287.723 94.5,286.5C 98.6212,284.356 102.788,282.356 107,280.5C 106.655,276.461 105.155,272.794 102.5,269.5C 112.277,264.11 122.277,258.943 132.5,254C 133.944,253.219 135.277,253.386 136.5,254.5C 141.382,266.601 147.548,277.935 155,288.5C 158.712,293.879 163.379,298.213 169,301.5C 169.5,273.169 169.667,244.835 169.5,216.5C 173.514,216.666 177.514,216.499 181.5,216C 182.025,215.308 182.692,214.808 183.5,214.5C 186.378,207.743 189.544,201.076 193,194.5C 206.849,172.99 226.682,162.657 252.5,163.5C 272.651,162.045 289.318,168.879 302.5,184C 303.5,184.667 304.5,184.667 305.5,184C 339.691,155.302 373.691,126.469 407.5,97.5 Z"/></g>
<g><path style="opacity:1" fill="#f8e582" d="M 240.5,179.5 C 276.892,175.84 298.559,191.84 305.5,227.5C 309.252,230.05 313.085,232.383 317,234.5C 317.953,250.234 317.62,265.901 316,281.5C 297.104,296.696 277.938,311.529 258.5,326C 254.925,329.516 250.925,330.183 246.5,328C 227.167,313.333 207.833,298.667 188.5,284C 186.951,282.786 185.785,281.286 185,279.5C 184.333,264.167 184.333,248.833 185,233.5C 185.833,232.667 186.667,231.833 187.5,231C 190.922,230.326 194.089,229.16 197,227.5C 200.599,201.41 215.099,185.41 240.5,179.5 Z"/></g>
<g><path style="opacity:1" fill="#4a201d" d="M 213.5,229.5 C 238.169,229.333 262.836,229.5 287.5,230C 289.286,230.785 290.786,231.951 292,233.5C 292.931,244.573 292.597,255.573 291,266.5C 289.933,267.191 288.766,267.691 287.5,268C 282.5,268.667 277.5,268.667 272.5,268C 269.383,265.458 266.717,262.458 264.5,259C 260.066,257.028 255.399,256.195 250.5,256.5C 242.065,255.216 236.065,258.383 232.5,266C 214.018,274.43 206.351,268.763 209.5,249C 209.667,243.833 209.833,238.667 210,233.5C 211.376,232.295 212.542,230.962 213.5,229.5 Z"/></g>
<g><path style="opacity:1" fill="#f5e280" d="M 126.5,277.5 C 131.126,280.954 135.626,284.621 140,288.5C 159.507,320.823 187.673,341.489 224.5,350.5C 218.704,353.161 212.704,354.661 206.5,355C 169.466,339.798 142.799,313.965 126.5,277.5 Z"/></g>
<g><path style="opacity:1" fill="#f5e280" d="M 374.5,277.5 C 357.244,318.557 326.91,345.724 283.5,359C 266.367,362.709 249.034,364.376 231.5,364C 209.92,367.926 192.753,378.76 180,396.5C 178.379,396.275 177.212,395.442 176.5,394C 188.751,373.193 206.751,360.193 230.5,355C 242.747,353.031 255.08,352.031 267.5,352C 308.595,344.886 340.095,323.719 362,288.5C 366.333,284.934 370.499,281.267 374.5,277.5 Z"/></g>
<g><path style="opacity:1" fill="#f4e180" d="M 383.5,293.5 C 384.043,293.56 384.376,293.893 384.5,294.5C 352.63,352.112 303.63,380.278 237.5,379C 211.574,376.654 211.24,373.32 236.5,369C 295.147,371.76 340.647,348.927 373,300.5C 376.651,298.267 380.151,295.934 383.5,293.5 Z"/></g>
<g><path style="opacity:1" fill="#f4e180" d="M 118.5,295.5 C 122.598,297.749 126.598,300.249 130.5,303C 147.949,328.616 170.949,347.449 199.5,359.5C 200.521,360.002 200.688,360.668 200,361.5C 197.636,363.363 195.136,365.029 192.5,366.5C 159.955,350.953 135.288,327.287 118.5,295.5 Z"/></g>
<g><path style="opacity:1" fill="#f2e07f" d="M 307.5,373.5 C 315.584,378.64 321.584,385.64 325.5,394.5C 324.307,396.384 322.641,396.884 320.5,396C 315.708,388.874 309.875,382.707 303,377.5C 302.312,376.668 302.479,376.002 303.5,375.5C 305.026,375.006 306.359,374.339 307.5,373.5 Z"/></g>
</svg>
