<?xml version="1.0" encoding="UTF-8"?>
<!DOCTYPE svg PUBLIC "-//W3C//DTD SVG 1.1//EN" "http://www.w3.org/Graphics/SVG/1.1/DTD/svg11.dtd">
<svg xmlns="http://www.w3.org/2000/svg" version="1.1" width="256px" height="256px" style="shape-rendering:geometricPrecision; text-rendering:geometricPrecision; image-rendering:optimizeQuality; fill-rule:evenodd; clip-rule:evenodd" xmlns:xlink="http://www.w3.org/1999/xlink">
<g><path style="opacity:0.994" fill="#c1b5a3" d="M 51.5,47.5 C 102.833,47.5 154.167,47.5 205.5,47.5C 205.667,93.5012 205.5,139.501 205,185.5C 180.812,198.933 156.645,212.767 132.5,227C 129.833,227.667 127.167,227.667 124.5,227C 100.38,213.014 76.2136,198.847 52,184.5C 51.5,138.835 51.3333,93.1679 51.5,47.5 Z"/></g>
<g><path style="opacity:1" fill="#7f7366" d="M 63.5,67.5 C 90.6674,95.2539 123.001,103.087 160.5,91C 173.008,85.65 184.008,78.15 193.5,68.5C 194.833,105.167 194.833,141.833 193.5,178.5C 171.814,190.634 150.147,202.968 128.5,215.5C 106.553,202.946 84.7193,190.279 63,177.5C 62.1737,140.762 62.3404,104.095 63.5,67.5 Z"/></g>
</svg>
