<?xml version="1.0" encoding="UTF-8"?>
<!DOCTYPE svg PUBLIC "-//W3C//DTD SVG 1.1//EN" "http://www.w3.org/Graphics/SVG/1.1/DTD/svg11.dtd">
<svg xmlns="http://www.w3.org/2000/svg" version="1.1" width="1500px" height="1500px" style="shape-rendering:geometricPrecision; text-rendering:geometricPrecision; image-rendering:optimizeQuality; fill-rule:evenodd; clip-rule:evenodd" xmlns:xlink="http://www.w3.org/1999/xlink">
<g><path style="opacity:0.996" fill="#f9e682" d="M 908.5,218.5 C 907.376,224.752 907.21,231.085 908,237.5C 924.304,254.805 940.971,271.805 958,288.5C 958.706,290.971 958.373,293.305 957,295.5C 934.79,321.374 912.957,347.541 891.5,374C 889.167,374.667 886.833,374.667 884.5,374C 873.167,369.333 861.833,364.667 850.5,360C 844.05,357.089 840.55,359.256 840,366.5C 834.79,383.795 829.79,401.128 825,418.5C 824.205,420.901 823.038,423.068 821.5,425C 797.505,432.499 773.505,439.999 749.5,447.5C 725.337,440.501 701.337,433.001 677.5,425C 670.463,405.53 664.297,385.697 659,365.5C 658.382,360.197 655.548,358.03 650.5,359C 638.5,364 626.5,369 614.5,374C 612.5,374.667 610.5,374.667 608.5,374C 584.858,347.202 562.191,319.702 540.5,291.5C 541.767,289.056 543.267,286.723 545,284.5C 560.333,269.167 575.667,253.833 591,238.5C 591.923,236.966 592.423,235.299 592.5,233.5C 591.951,228.434 591.284,223.434 590.5,218.5C 587.388,170.485 584.055,122.485 580.5,74.5C 580.577,72.701 581.077,71.0344 582,69.5C 637.581,50.1397 693.414,31.4731 749.5,13.5C 804.588,31.3626 859.588,49.5292 914.5,68C 915.931,68.4652 917.097,69.2986 918,70.5C 915.476,119.864 912.309,169.198 908.5,218.5 Z"/></g>
<g><path style="opacity:0.121" fill="#a6a66e" d="M 503.5,218.5 C 503.672,219.492 503.338,220.158 502.5,220.5C 401.335,219.501 300.001,219.167 198.5,219.5C 198.5,534.5 198.5,849.5 198.5,1164.5C 197.5,849.334 197.167,534 197.5,218.5C 299.5,218.5 401.5,218.5 503.5,218.5 Z"/></g>
<g><path style="opacity:1" fill="#21434d" d="M 503.5,218.5 C 532.5,218.5 561.5,218.5 590.5,218.5C 591.284,223.434 591.951,228.434 592.5,233.5C 592.423,235.299 591.923,236.966 591,238.5C 575.667,253.833 560.333,269.167 545,284.5C 543.267,286.723 541.767,289.056 540.5,291.5C 562.191,319.702 584.858,347.202 608.5,374C 610.5,374.667 612.5,374.667 614.5,374C 626.5,369 638.5,364 650.5,359C 655.548,358.03 658.382,360.197 659,365.5C 664.297,385.697 670.463,405.53 677.5,425C 701.337,433.001 725.337,440.501 749.5,447.5C 773.505,439.999 797.505,432.499 821.5,425C 823.038,423.068 824.205,420.901 825,418.5C 829.79,401.128 834.79,383.795 840,366.5C 840.55,359.256 844.05,357.089 850.5,360C 861.833,364.667 873.167,369.333 884.5,374C 886.833,374.667 889.167,374.667 891.5,374C 912.957,347.541 934.79,321.374 957,295.5C 958.373,293.305 958.706,290.971 958,288.5C 940.971,271.805 924.304,254.805 908,237.5C 907.21,231.085 907.376,224.752 908.5,218.5C 937.5,218.5 966.5,218.5 995.5,218.5C 995.328,219.492 995.662,220.158 996.5,220.5C 1010.16,234.328 1023.66,248.328 1037,262.5C 1037.67,264.167 1037.67,265.833 1037,267.5C 1029.29,276.373 1021.79,285.373 1014.5,294.5C 1014.5,503.833 1014.5,713.167 1014.5,922.5C 965.01,972.763 905.677,1006.26 836.5,1023C 824.067,1024.82 811.734,1027.15 799.5,1030C 763.205,1029.55 727.205,1032.55 691.5,1039C 618.258,1053.64 562.925,1092.97 525.5,1157C 528.652,1161.41 532.985,1163.41 538.5,1163C 580.572,1103.44 638.238,1070.44 711.5,1064C 827,1069.23 927.667,1033.73 1013.5,957.5C 1014.49,966.986 1014.83,976.652 1014.5,986.5C 947.748,1041.01 871.081,1072.18 784.5,1080C 758.177,1080.23 731.844,1080.9 705.5,1082C 693.786,1084.08 682.119,1086.41 670.5,1089C 662.504,1090.94 654.837,1093.78 647.5,1097.5C 648.381,1098.97 649.714,1099.8 651.5,1100C 784.907,1128.23 905.574,1101.06 1013.5,1018.5C 1014.5,1090.66 1014.83,1163 1014.5,1235.5C 926.683,1287.58 838.35,1338.91 749.5,1389.5C 660.65,1338.91 572.317,1287.58 484.5,1235.5C 484.167,1163.66 484.501,1092 485.5,1020.5C 512.106,1040.22 540.44,1057.39 570.5,1072C 573.303,1072.75 575.97,1072.42 578.5,1071C 585.664,1065.99 592.664,1060.83 599.5,1055.5C 569.116,1042.97 540.116,1027.81 512.5,1010C 502.918,1003.06 493.584,995.889 484.5,988.5C 484.173,978.652 484.506,968.986 485.5,959.5C 526.32,995.759 572.653,1023.09 624.5,1041.5C 639.779,1036.96 654.779,1031.63 669.5,1025.5C 613.839,1012.5 563.172,988.999 517.5,955C 505.71,946.043 494.71,936.209 484.5,925.5C 484.5,715.167 484.5,504.833 484.5,294.5C 477.545,285.707 470.378,277.04 463,268.5C 462.333,266.167 462.333,263.833 463,261.5C 476.006,247.661 489.173,233.994 502.5,220.5C 503.338,220.158 503.672,219.492 503.5,218.5 Z"/></g>
<g><path style="opacity:0.121" fill="#a6a66e" d="M 995.5,218.5 C 1097.5,218.5 1199.5,218.5 1301.5,218.5C 1301.83,534 1301.5,849.334 1300.5,1164.5C 1300.5,849.5 1300.5,534.5 1300.5,219.5C 1199,219.167 1097.67,219.501 996.5,220.5C 995.662,220.158 995.328,219.492 995.5,218.5 Z"/></g>
<g><path style="opacity:1" fill="#f9e682" d="M 502.5,220.5 C 489.173,233.994 476.006,247.661 463,261.5C 462.333,263.833 462.333,266.167 463,268.5C 470.378,277.04 477.545,285.707 484.5,294.5C 415.167,294.5 345.833,294.5 276.5,294.5C 276.167,568.167 276.5,841.834 277.5,1115.5C 346.391,1155.78 415.391,1195.78 484.5,1235.5C 572.317,1287.58 660.65,1338.91 749.5,1389.5C 838.35,1338.91 926.683,1287.58 1014.5,1235.5C 1083.48,1195.53 1152.48,1155.53 1221.5,1115.5C 1222.83,979.002 1223.5,842.168 1223.5,705C 1223.5,568 1223.17,431.166 1222.5,294.5C 1153.17,294.5 1083.83,294.5 1014.5,294.5C 1021.79,285.373 1029.29,276.373 1037,267.5C 1037.67,265.833 1037.67,264.167 1037,262.5C 1023.66,248.328 1010.16,234.328 996.5,220.5C 1097.67,219.501 1199,219.167 1300.5,219.5C 1300.5,534.5 1300.5,849.5 1300.5,1164.5C 1117.11,1271.87 933.442,1378.87 749.5,1485.5C 565.558,1378.87 381.892,1271.87 198.5,1164.5C 198.5,849.5 198.5,534.5 198.5,219.5C 300.001,219.167 401.335,219.501 502.5,220.5 Z"/></g>
<g><path style="opacity:1" fill="#22434d" d="M 649.5,222.5 C 675.858,220.244 693.025,231.577 701,256.5C 703.717,283.913 691.883,301.413 665.5,309C 630.9,309.4 614.067,292.233 615,257.5C 620.028,239.306 631.528,227.639 649.5,222.5 Z"/></g>
<g><path style="opacity:1" fill="#22434d" d="M 832.5,222.5 C 858.738,220.197 875.905,231.53 884,256.5C 886.712,283.927 874.878,301.427 848.5,309C 813.88,309.379 797.046,292.212 798,257.5C 803.055,239.28 814.555,227.613 832.5,222.5 Z"/></g>
<g><path style="opacity:1" fill="#3e6e7c" d="M 484.5,294.5 C 484.5,504.833 484.5,715.167 484.5,925.5C 445.083,888.355 414.25,845.021 392,795.5C 380.988,783.972 369.822,773.306 358.5,763.5C 383.799,840.155 426.132,905.488 485.5,959.5C 484.506,968.986 484.173,978.652 484.5,988.5C 472.747,979.587 461.414,970.087 450.5,960C 416.521,925.853 388.021,887.686 365,845.5C 351.605,831.757 338.439,818.924 325.5,807C 359.103,893.078 412.436,964.244 485.5,1020.5C 484.501,1092 484.167,1163.66 484.5,1235.5C 415.391,1195.78 346.391,1155.78 277.5,1115.5C 276.5,841.834 276.167,568.167 276.5,294.5C 345.833,294.5 415.167,294.5 484.5,294.5 Z"/></g>
<g><path style="opacity:1" fill="#3e6e7c" d="M 1014.5,294.5 C 1083.83,294.5 1153.17,294.5 1222.5,294.5C 1222.83,568.236 1222.5,841.903 1221.5,1115.5C 1152.48,1155.53 1083.48,1195.53 1014.5,1235.5C 1014.83,1163 1014.5,1090.66 1013.5,1018.5C 1086.88,961.955 1139.72,890.289 1172,803.5C 1159.7,816.804 1147.03,829.804 1134,842.5C 1104.24,898.765 1064.41,946.765 1014.5,986.5C 1014.83,976.652 1014.49,966.986 1013.5,957.5C 1061.95,913.288 1099.12,860.954 1125,800.5C 1129.5,789.674 1133.16,778.674 1136,767.5C 1125,778.5 1114,789.5 1103,800.5C 1081.41,846.924 1051.91,887.59 1014.5,922.5C 1014.5,713.167 1014.5,503.833 1014.5,294.5 Z"/></g>
<g><path style="opacity:1" fill="#b4b881" d="M 1222.5,294.5 C 1223.17,431.166 1223.5,568 1223.5,705C 1223.5,842.168 1222.83,979.002 1221.5,1115.5C 1222.5,841.903 1222.83,568.236 1222.5,294.5 Z"/></g>
<g><path style="opacity:1" fill="#24444d" d="M 747.5,312.5 C 749.144,312.286 750.644,312.62 752,313.5C 759.753,325.34 767.753,337.007 776,348.5C 776.667,350.167 776.667,351.833 776,353.5C 772.833,356 769.667,358.5 766.5,361C 765.167,361.667 763.833,361.667 762.5,361C 758.685,356.018 754.352,351.518 749.5,347.5C 745.163,352.67 740.33,357.336 735,361.5C 730.481,359.235 726.481,356.235 723,352.5C 722.48,350.711 722.813,349.044 724,347.5C 732.349,336.121 740.183,324.454 747.5,312.5 Z"/></g>
<g><path style="opacity:1" fill="#f9e682" d="M 527.5,681.5 C 582.833,680.833 638.167,680.167 693.5,679.5C 711.396,626.312 729.229,572.979 747,519.5C 765.729,572.854 783.563,626.521 800.5,680.5C 855.834,680.333 911.168,680.5 966.5,681C 922.244,713.378 878.078,745.878 834,778.5C 849.161,829.989 865.161,881.322 882,932.5C 882.667,933.833 882.667,935.167 882,936.5C 836.473,905.805 791.64,874.139 747.5,841.5C 702.48,873.344 657.813,905.677 613.5,938.5C 613.167,938 612.833,937.5 612.5,937C 624.455,894.468 637.622,852.301 652,810.5C 655.517,799.967 658.184,789.3 660,778.5C 615.715,746.28 571.548,713.946 527.5,681.5 Z"/></g>
<g><path style="opacity:1" fill="#9a9c6b" d="M 693.5,679.5 C 638.167,680.167 582.833,680.833 527.5,681.5C 526.711,681.217 526.044,680.717 525.5,680C 581.499,679.5 637.499,679.333 693.5,679.5 Z"/></g>
<g><path style="opacity:1" fill="#f7e582" d="M 484.5,925.5 C 494.71,936.209 505.71,946.043 517.5,955C 563.172,988.999 613.839,1012.5 669.5,1025.5C 654.779,1031.63 639.779,1036.96 624.5,1041.5C 572.653,1023.09 526.32,995.759 485.5,959.5C 426.132,905.488 383.799,840.155 358.5,763.5C 369.822,773.306 380.988,783.972 392,795.5C 414.25,845.021 445.083,888.355 484.5,925.5 Z"/></g>
<g><path style="opacity:1" fill="#f7e582" d="M 1013.5,957.5 C 927.667,1033.73 827,1069.23 711.5,1064C 638.238,1070.44 580.572,1103.44 538.5,1163C 532.985,1163.41 528.652,1161.41 525.5,1157C 562.925,1092.97 618.258,1053.64 691.5,1039C 727.205,1032.55 763.205,1029.55 799.5,1030C 811.734,1027.15 824.067,1024.82 836.5,1023C 905.677,1006.26 965.01,972.763 1014.5,922.5C 1051.91,887.59 1081.41,846.924 1103,800.5C 1114,789.5 1125,778.5 1136,767.5C 1133.16,778.674 1129.5,789.674 1125,800.5C 1099.12,860.954 1061.95,913.288 1013.5,957.5 Z"/></g>
<g><path style="opacity:1" fill="#f7e582" d="M 484.5,988.5 C 493.584,995.889 502.918,1003.06 512.5,1010C 540.116,1027.81 569.116,1042.97 599.5,1055.5C 592.664,1060.83 585.664,1065.99 578.5,1071C 575.97,1072.42 573.303,1072.75 570.5,1072C 540.44,1057.39 512.106,1040.22 485.5,1020.5C 412.436,964.244 359.103,893.078 325.5,807C 338.439,818.924 351.605,831.757 365,845.5C 388.021,887.686 416.521,925.853 450.5,960C 461.414,970.087 472.747,979.587 484.5,988.5 Z"/></g>
<g><path style="opacity:1" fill="#f7e582" d="M 1013.5,1018.5 C 905.574,1101.06 784.907,1128.23 651.5,1100C 649.714,1099.8 648.381,1098.97 647.5,1097.5C 654.837,1093.78 662.504,1090.94 670.5,1089C 682.119,1086.41 693.786,1084.08 705.5,1082C 731.844,1080.9 758.177,1080.23 784.5,1080C 871.081,1072.18 947.748,1041.01 1014.5,986.5C 1064.41,946.765 1104.24,898.765 1134,842.5C 1147.03,829.804 1159.7,816.804 1172,803.5C 1139.72,890.289 1086.88,961.955 1013.5,1018.5 Z"/></g>
<g><path style="opacity:1" fill="#f6e482" d="M 917.5,1095.5 C 919.527,1095.34 921.527,1095.5 923.5,1096C 943.013,1113.17 959.18,1133.01 972,1155.5C 972.781,1156.94 972.614,1158.28 971.5,1159.5C 967.86,1162.17 963.86,1163.33 959.5,1163C 952.287,1154.79 945.454,1146.29 939,1137.5C 926.763,1125.26 913.929,1113.76 900.5,1103C 906.257,1100.45 911.923,1097.95 917.5,1095.5 Z"/></g>
</svg>
