<?xml version="1.0" encoding="UTF-8"?>
<!DOCTYPE svg PUBLIC "-//W3C//DTD SVG 1.1//EN" "http://www.w3.org/Graphics/SVG/1.1/DTD/svg11.dtd">
<svg xmlns="http://www.w3.org/2000/svg" version="1.1" width="256px" height="256px" style="shape-rendering:geometricPrecision; text-rendering:geometricPrecision; image-rendering:optimizeQuality; fill-rule:evenodd; clip-rule:evenodd" xmlns:xlink="http://www.w3.org/1999/xlink">
<g><path style="opacity:0.976" fill="#c8e7ea" d="M 51.5,53.5 C 102.833,53.5 154.167,53.5 205.5,53.5C 205.5,64.5 205.5,75.5 205.5,86.5C 192.644,82.3833 179.644,78.55 166.5,75C 139.434,68.9235 112.434,69.2568 85.5,76C 74.0294,79.2135 62.6961,82.7135 51.5,86.5C 51.5,75.5 51.5,64.5 51.5,53.5 Z"/></g>
<g><path style="opacity:0.973" fill="#c8e6ea" d="M 118.5,80.5 C 148.527,79.5032 177.193,85.1699 204.5,97.5C 205.667,127.161 205.833,156.828 205,186.5C 179.706,201.23 154.206,215.563 128.5,229.5C 102.793,215.229 77.2926,200.562 52,185.5C 51.1668,156.161 51.3335,126.828 52.5,97.5C 73.583,87.7571 95.583,82.0904 118.5,80.5 Z"/></g>
<g><path style="opacity:1" fill="#82898e" d="M 111.5,92.5 C 140.103,90.3661 167.769,94.3661 194.5,104.5C 194.833,129.509 194.5,154.509 193.5,179.5C 171.959,192.103 150.292,204.436 128.5,216.5C 106.707,204.101 85.0401,191.435 63.5,178.5C 62.5002,153.842 62.1669,129.176 62.5,104.5C 78.5124,98.7464 94.8458,94.7464 111.5,92.5 Z"/></g>
<g><path style="opacity:1" fill="#c7e5e9" d="M 99.5,136.5 C 107.018,141.099 114.018,146.432 120.5,152.5C 114.146,158.183 107.48,163.516 100.5,168.5C 93.9414,163.394 87.608,158.061 81.5,152.5C 87.8173,147.516 93.8173,142.182 99.5,136.5 Z"/></g>
<g><path style="opacity:1" fill="#c7e5e9" d="M 154.5,136.5 C 162.018,141.099 169.018,146.432 175.5,152.5C 169.146,158.183 162.48,163.516 155.5,168.5C 148.941,163.394 142.608,158.061 136.5,152.5C 142.817,147.516 148.817,142.182 154.5,136.5 Z"/></g>
<g><path style="opacity:1" fill="#c7e5e9" d="M 126.5,158.5 C 134.018,163.099 141.018,168.432 147.5,174.5C 141.146,180.183 134.48,185.516 127.5,190.5C 120.941,185.394 114.608,180.061 108.5,174.5C 114.817,169.516 120.817,164.182 126.5,158.5 Z"/></g>
</svg>
