<?xml version="1.0" encoding="UTF-8"?>
<!DOCTYPE svg PUBLIC "-//W3C//DTD SVG 1.1//EN" "http://www.w3.org/Graphics/SVG/1.1/DTD/svg11.dtd">
<svg xmlns="http://www.w3.org/2000/svg" version="1.1" width="500px" height="500px" style="shape-rendering:geometricPrecision; text-rendering:geometricPrecision; image-rendering:optimizeQuality; fill-rule:evenodd; clip-rule:evenodd" xmlns:xlink="http://www.w3.org/1999/xlink">
<g><path style="opacity:1" fill="#f7e481" d="M 245.5,2.5 C 245.5,50.1667 245.5,97.8333 245.5,145.5C 244.5,145.5 243.5,145.5 242.5,145.5C 237.332,143.341 232.665,140.341 228.5,136.5C 227.833,110.67 227.167,85.0032 226.5,59.5C 225.492,57.6614 223.992,56.3281 222,55.5C 221.125,54.1268 220.625,52.6268 220.5,51C 222.287,38.8707 223.787,26.704 225,14.5C 225.346,12.1523 226.513,10.3189 228.5,9C 234.073,6.5321 239.74,4.36543 245.5,2.5 Z"/></g>
<g><path style="opacity:1" fill="#f1df7e" d="M 275.5,58.5 C 274.502,83.9946 274.169,109.661 274.5,135.5C 270.369,140.071 265.369,143.404 259.5,145.5C 257.836,121.35 256.836,97.0172 256.5,72.5C 256.5,72.1667 256.5,71.8333 256.5,71.5C 255.511,48.575 255.178,25.575 255.5,2.5C 263.006,4.00399 269.84,7.00399 276,11.5C 278.12,24.6296 279.954,37.7962 281.5,51C 280.378,54.2797 278.378,56.7797 275.5,58.5 Z"/></g>
<g><path style="opacity:0.024" fill="#2d2914" d="M 209.5,50.5 C 210.209,49.596 211.209,49.2627 212.5,49.5C 212.825,56.6866 212.491,63.6866 211.5,70.5C 212.126,63.4163 211.459,56.7496 209.5,50.5 Z"/></g>
<g><path style="opacity:1" fill="#f7e481" d="M 209.5,50.5 C 211.459,56.7496 212.126,63.4163 211.5,70.5C 211.5,70.8333 211.5,71.1667 211.5,71.5C 211.5,71.8333 211.5,72.1667 211.5,72.5C 210.503,89.6586 210.17,106.992 210.5,124.5C 209.167,124.5 207.833,124.5 206.5,124.5C 200.177,123.423 194.343,121.089 189,117.5C 189.339,102.119 190.505,86.7858 192.5,71.5C 192.862,66.3985 193.695,61.3985 195,56.5C 199.604,54.0188 204.438,52.0188 209.5,50.5 Z"/></g>
<g><path style="opacity:1" fill="#f2df7f" d="M 309.5,71.5 C 310.869,84.6561 312.202,97.8228 313.5,111C 313.167,113.167 312.833,115.333 312.5,117.5C 305.649,121.561 298.316,124.227 290.5,125.5C 290.5,107.833 290.5,90.1667 290.5,72.5C 290.5,72.1667 290.5,71.8333 290.5,71.5C 289.536,64.2537 289.203,56.9204 289.5,49.5C 295.673,50.9474 301.506,53.2807 307,56.5C 308.403,61.3827 309.236,66.3827 309.5,71.5 Z"/></g>
<g><path style="opacity:1" fill="#f8e582" d="M 64.5,71.5 C 100.663,72.4984 136.996,72.8318 173.5,72.5C 172.313,80.4751 171.313,88.4751 170.5,96.5C 143.5,96.5 116.5,96.5 89.5,96.5C 89.1673,189.335 89.5006,282.001 90.5,374.5C 143.601,405.221 196.601,436.221 249.5,467.5C 302.727,436.726 355.727,405.726 408.5,374.5C 409.499,282.001 409.833,189.335 409.5,96.5C 381.833,96.5 354.167,96.5 326.5,96.5C 325.664,88.4777 324.664,80.4777 323.5,72.5C 360.833,72.5 398.167,72.5 435.5,72.5C 435.667,178.167 435.5,283.834 435,389.5C 373.249,425.626 311.415,461.626 249.5,497.5C 187.796,461.3 125.963,425.3 64,389.5C 63.1675,283.333 63.3341,177.333 64.5,71.5 Z"/></g>
<g><path style="opacity:1" fill="#682e27" d="M 226.5,59.5 C 227.167,85.0032 227.833,110.67 228.5,136.5C 232.665,140.341 237.332,143.341 242.5,145.5C 243.531,146.249 244.698,146.915 246,147.5C 246.5,122.169 246.667,96.8355 246.5,71.5C 249.833,71.5 253.167,71.5 256.5,71.5C 256.5,71.8333 256.5,72.1667 256.5,72.5C 256.5,97.1667 256.5,121.833 256.5,146.5C 257.791,146.737 258.791,146.404 259.5,145.5C 265.369,143.404 270.369,140.071 274.5,135.5C 275.497,114.673 275.831,93.6733 275.5,72.5C 280.5,72.5 285.5,72.5 290.5,72.5C 290.5,90.1667 290.5,107.833 290.5,125.5C 298.316,124.227 305.649,121.561 312.5,117.5C 312.833,115.333 313.167,113.167 313.5,111C 312.202,97.8228 310.869,84.6561 309.5,71.5C 351.67,71.168 393.67,71.5013 435.5,72.5C 398.167,72.5 360.833,72.5 323.5,72.5C 324.664,80.4777 325.664,88.4777 326.5,96.5C 352.995,97.4979 379.661,97.8312 406.5,97.5C 372.905,126.315 339.238,155.149 305.5,184C 304.5,184.667 303.5,184.667 302.5,184C 289.482,168.489 272.816,161.655 252.5,163.5C 217.863,163.072 195.363,179.405 185,212.5C 184.167,213.333 183.333,214.167 182.5,215C 178.27,216.29 173.936,216.79 169.5,216.5C 169.833,244.841 169.5,273.175 168.5,301.5C 160.763,296.264 154.596,289.597 150,281.5C 144.682,272.531 140.182,263.197 136.5,253.5C 125.264,257.64 114.264,262.474 103.5,268C 103.043,268.414 102.709,268.914 102.5,269.5C 104.619,273.05 106.119,276.717 107,280.5C 102.321,282.924 97.4879,284.924 92.5,286.5C 99.6185,304.939 109.618,321.606 122.5,336.5C 112.397,346.058 102.063,355.391 91.5,364.5C 90.513,367.768 90.1796,371.102 90.5,374.5C 89.5006,282.001 89.1673,189.335 89.5,96.5C 116.5,96.5 143.5,96.5 170.5,96.5C 171.313,88.4751 172.313,80.4751 173.5,72.5C 136.996,72.8318 100.663,72.4984 64.5,71.5C 107.167,71.5 149.833,71.5 192.5,71.5C 190.505,86.7858 189.339,102.119 189,117.5C 194.343,121.089 200.177,123.423 206.5,124.5C 207.919,125.451 209.585,125.784 211.5,125.5C 211.5,107.833 211.5,90.1667 211.5,72.5C 211.5,72.1667 211.5,71.8333 211.5,71.5C 216.5,71.5 221.5,71.5 226.5,71.5C 226.5,67.5 226.5,63.5 226.5,59.5 Z"/></g>
<g><path style="opacity:1" fill="#e3c874" d="M 256.5,72.5 C 256.836,97.0172 257.836,121.35 259.5,145.5C 258.791,146.404 257.791,146.737 256.5,146.5C 256.5,121.833 256.5,97.1667 256.5,72.5 Z"/></g>
<g><path style="opacity:1" fill="#e3c975" d="M 211.5,72.5 C 211.5,90.1667 211.5,107.833 211.5,125.5C 209.585,125.784 207.919,125.451 206.5,124.5C 207.833,124.5 209.167,124.5 210.5,124.5C 210.17,106.992 210.503,89.6586 211.5,72.5 Z"/></g>
<g><path style="opacity:1" fill="#62412b" d="M 245.5,2.5 C 246.498,25.3273 246.831,48.3273 246.5,71.5C 246.667,96.8355 246.5,122.169 246,147.5C 244.698,146.915 243.531,146.249 242.5,145.5C 243.5,145.5 244.5,145.5 245.5,145.5C 245.5,97.8333 245.5,50.1667 245.5,2.5 Z"/></g>
<g><path style="opacity:1" fill="#6b432e" d="M 275.5,58.5 C 275.5,62.8333 275.5,67.1667 275.5,71.5C 280.5,71.5 285.5,71.5 290.5,71.5C 290.5,71.8333 290.5,72.1667 290.5,72.5C 285.5,72.5 280.5,72.5 275.5,72.5C 275.831,93.6733 275.497,114.673 274.5,135.5C 274.169,109.661 274.502,83.9946 275.5,58.5 Z"/></g>
<g><path style="opacity:1" fill="#643a29" d="M 326.5,96.5 C 354.167,96.5 381.833,96.5 409.5,96.5C 409.833,189.335 409.499,282.001 408.5,374.5C 409.164,281.827 408.498,189.494 406.5,97.5C 379.661,97.8312 352.995,97.4979 326.5,96.5 Z"/></g>
<g><path style="opacity:1" fill="#4a201d" d="M 406.5,97.5 C 408.498,189.494 409.164,281.827 408.5,374.5C 355.727,405.726 302.727,436.726 249.5,467.5C 196.601,436.221 143.601,405.221 90.5,374.5C 90.1796,371.102 90.513,367.768 91.5,364.5C 102.063,355.391 112.397,346.058 122.5,336.5C 109.618,321.606 99.6185,304.939 92.5,286.5C 97.4879,284.924 102.321,282.924 107,280.5C 106.119,276.717 104.619,273.05 102.5,269.5C 102.709,268.914 103.043,268.414 103.5,268C 114.264,262.474 125.264,257.64 136.5,253.5C 140.182,263.197 144.682,272.531 150,281.5C 154.596,289.597 160.763,296.264 168.5,301.5C 169.5,273.175 169.833,244.841 169.5,216.5C 173.936,216.79 178.27,216.29 182.5,215C 183.333,214.167 184.167,213.333 185,212.5C 195.363,179.405 217.863,163.072 252.5,163.5C 272.816,161.655 289.482,168.489 302.5,184C 303.5,184.667 304.5,184.667 305.5,184C 339.238,155.149 372.905,126.315 406.5,97.5 Z"/></g>
<g><path style="opacity:1" fill="#f8e582" d="M 240.5,179.5 C 276.652,175.527 298.152,191.193 305,226.5C 307.863,229.515 311.363,231.349 315.5,232C 316.126,232.75 316.626,233.584 317,234.5C 317.953,250.234 317.62,265.901 316,281.5C 314.167,283.333 312.333,285.167 310.5,287C 290.793,301.513 271.126,316.013 251.5,330.5C 250.062,330.281 248.729,329.781 247.5,329C 231.167,316.667 214.833,304.333 198.5,292C 193.632,288.164 189.132,283.997 185,279.5C 184.333,264.167 184.333,248.833 185,233.5C 185.833,232.667 186.667,231.833 187.5,231C 190.778,230.081 193.945,228.914 197,227.5C 199.137,208.031 208.637,193.531 225.5,184C 230.482,182.01 235.482,180.51 240.5,179.5 Z"/></g>
<g><path style="opacity:1" fill="#4a201d" d="M 213.5,229.5 C 238.502,229.333 263.502,229.5 288.5,230C 289.667,231.167 290.833,232.333 292,233.5C 292.667,243.833 292.667,254.167 292,264.5C 291.348,266.723 289.848,267.89 287.5,268C 282.5,268.667 277.5,268.667 272.5,268C 269.383,265.458 266.717,262.458 264.5,259C 260.066,257.028 255.399,256.195 250.5,256.5C 242.065,255.216 236.065,258.383 232.5,266C 214.018,274.43 206.351,268.763 209.5,249C 209.667,243.833 209.833,238.667 210,233.5C 210.69,231.65 211.856,230.316 213.5,229.5 Z"/></g>
<g><path style="opacity:1" fill="#f5e280" d="M 374.5,277.5 C 375.043,277.56 375.376,277.893 375.5,278.5C 347.28,336.794 300.613,365.294 235.5,364C 212.119,366.738 193.786,377.738 180.5,397C 179.004,397.507 177.837,397.007 177,395.5C 180.11,387.679 184.944,380.846 191.5,375C 203.407,364.881 217.073,358.214 232.5,355C 248.186,353.424 263.852,351.757 279.5,350C 315.984,340.679 343.818,319.846 363,287.5C 367.026,284.302 370.859,280.968 374.5,277.5 Z"/></g>
<g><path style="opacity:1" fill="#f5e280" d="M 126.5,278.5 C 130.52,281.604 134.686,284.604 139,287.5C 158.586,320.706 187.086,341.872 224.5,351C 219.379,352.54 214.379,354.373 209.5,356.5C 170.906,342.052 143.239,316.052 126.5,278.5 Z"/></g>
<g><path style="opacity:1" fill="#f6e380" d="M 382.5,294.5 C 383.376,294.369 384.043,294.702 384.5,295.5C 351.665,353.759 301.665,381.592 234.5,379C 212.085,376.002 212.418,373.002 235.5,370C 293.782,372.608 339.282,350.108 372,302.5C 375.299,299.449 378.799,296.782 382.5,294.5 Z"/></g>
<g><path style="opacity:1" fill="#f5e280" d="M 117.5,294.5 C 121.012,297.17 124.678,299.67 128.5,302C 146.803,328.637 170.803,348.304 200.5,361C 197.841,364.33 194.508,365.997 190.5,366C 158.04,350.373 133.707,326.539 117.5,294.5 Z"/></g>
<g><path style="opacity:1" fill="#f5e280" d="M 305.5,374.5 C 310.064,374.55 313.564,376.55 316,380.5C 319.414,384.994 322.581,389.66 325.5,394.5C 324.307,396.384 322.641,396.884 320.5,396C 315.541,388.707 309.541,382.374 302.5,377C 303.571,376.148 304.571,375.315 305.5,374.5 Z"/></g>
</svg>
