<?xml version="1.0" encoding="UTF-8"?>
<!DOCTYPE svg PUBLIC "-//W3C//DTD SVG 1.1//EN" "http://www.w3.org/Graphics/SVG/1.1/DTD/svg11.dtd">
<svg xmlns="http://www.w3.org/2000/svg" version="1.1" width="500px" height="500px" style="shape-rendering:geometricPrecision; text-rendering:geometricPrecision; image-rendering:optimizeQuality; fill-rule:evenodd; clip-rule:evenodd" xmlns:xlink="http://www.w3.org/1999/xlink">
<g><path style="opacity:0.804" fill="#989050" d="M 249.5,5.5 C 246.495,7.2766 243.162,8.2766 239.5,8.5C 242.505,6.7234 245.838,5.7234 249.5,5.5 Z"/></g>
<g><path style="opacity:1" fill="#f7e582" d="M 260.5,8.5 C 260.541,10.7453 261.375,11.4119 263,10.5C 263.853,12.1247 264.853,12.4581 266,11.5C 266.853,13.1247 267.853,13.4581 269,12.5C 270.667,13.5 272.333,14.5 274,15.5C 274.333,15.1667 274.667,14.8333 275,14.5C 278.667,16.1667 282.333,17.8333 286,19.5C 287.147,18.5419 288.147,18.8753 289,20.5C 289.333,20.1667 289.667,19.8333 290,19.5C 291.667,20.5 293.333,21.5 295,22.5C 296.147,21.5419 297.147,21.8753 298,23.5C 299.011,22.6634 300.178,22.33 301.5,22.5C 305.134,22.1565 306.801,23.8232 306.5,27.5C 305.411,40.167 304.411,52.8337 303.5,65.5C 302.35,70.3158 302.184,75.3158 303,80.5C 308.682,86.0146 314.182,91.6813 319.5,97.5C 312.022,106.813 304.355,115.98 296.5,125C 291.288,123.264 285.954,121.931 280.5,121C 278.167,128 275.833,135 273.5,142C 265.459,144.403 257.459,146.903 249.5,149.5C 242.137,147.435 234.804,145.268 227.5,143C 226.333,142.5 225.5,141.667 225,140.5C 222.855,133.901 221.022,127.235 219.5,120.5C 213.599,121.471 207.932,122.971 202.5,125C 195.333,116.5 188.167,108 181,99.5C 180.333,98.5 180.333,97.5 181,96.5C 185.633,90.8651 190.633,85.5318 196,80.5C 196.497,78.1902 196.663,75.8568 196.5,73.5C 195.299,57.4792 193.965,41.4792 192.5,25.5C 193.421,23.244 195.088,22.244 197.5,22.5C 210.961,18.8469 224.294,14.6803 237.5,10C 238.056,9.61742 238.389,9.11742 238.5,8.5C 238.833,8.5 239.167,8.5 239.5,8.5C 243.162,8.2766 246.495,7.2766 249.5,5.5C 253.029,5.76745 256.696,6.76745 260.5,8.5 Z"/></g>
<g><path style="opacity:0.949" fill="#c7b968" d="M 260.5,8.5 C 274.39,12.796 288.057,17.4626 301.5,22.5C 300.178,22.33 299.011,22.6634 298,23.5C 297.147,21.8753 296.147,21.5419 295,22.5C 293.333,21.5 291.667,20.5 290,19.5C 289.667,19.8333 289.333,20.1667 289,20.5C 288.147,18.8753 287.147,18.5419 286,19.5C 282.333,17.8333 278.667,16.1667 275,14.5C 274.667,14.8333 274.333,15.1667 274,15.5C 272.333,14.5 270.667,13.5 269,12.5C 267.853,13.4581 266.853,13.1247 266,11.5C 264.853,12.4581 263.853,12.1247 263,10.5C 261.375,11.4119 260.541,10.7453 260.5,8.5 Z"/></g>
<g><path style="opacity:0.82" fill="#ac9f59" d="M 238.5,8.5 C 238.389,9.11742 238.056,9.61742 237.5,10C 224.294,14.6803 210.961,18.8469 197.5,22.5C 210.943,17.4626 224.61,12.796 238.5,8.5 Z"/></g>
<g><path style="opacity:0.58" fill="#c4b467" d="M 174.5,39.5 C 173.549,38.0813 173.216,36.4147 173.5,34.5C 127.664,34.1679 81.997,34.5012 36.5,35.5C 35.6236,35.6309 34.9569,35.2975 34.5,34.5C 81.1619,33.5001 127.829,33.1667 174.5,33.5C 174.5,35.5 174.5,37.5 174.5,39.5 Z"/></g>
<g><path style="opacity:0.58" fill="#c8b769" d="M 462.5,35.5 C 416.931,34.1701 371.264,34.1701 325.5,35.5C 348.324,34.1669 371.49,33.5002 395,33.5C 418.167,33.8333 441.333,34.1667 464.5,34.5C 464.043,35.2975 463.376,35.6309 462.5,35.5 Z"/></g>
<g><path style="opacity:1" fill="#f9e682" d="M 174.5,39.5 C 175.314,44.1191 175.647,48.7858 175.5,53.5C 175.5,55.5 175.5,57.5 175.5,59.5C 138.827,59.8332 102.161,59.4999 65.5,58.5C 64.6013,56.1592 63.268,55.4925 61.5,56.5C 52.849,49.8465 44.5156,42.8465 36.5,35.5C 81.997,34.5012 127.664,34.1679 173.5,34.5C 173.216,36.4147 173.549,38.0813 174.5,39.5 Z"/></g>
<g><path style="opacity:1" fill="#f8e682" d="M 462.5,35.5 C 453.486,43.8451 444.153,51.8451 434.5,59.5C 397.5,59.5 360.5,59.5 323.5,59.5C 323.5,58.5 323.5,57.5 323.5,56.5C 323.578,49.2997 324.245,42.2997 325.5,35.5C 371.264,34.1701 416.931,34.1701 462.5,35.5 Z"/></g>
<g><path style="opacity:0.6" fill="#c3b366" d="M 175.5,53.5 C 176.468,55.6074 176.802,57.9407 176.5,60.5C 139.165,60.6667 101.832,60.5 64.5,60C 63.2899,58.9609 62.2899,57.7942 61.5,56.5C 63.268,55.4925 64.6013,56.1592 65.5,58.5C 102.161,59.4999 138.827,59.8332 175.5,59.5C 175.5,57.5 175.5,55.5 175.5,53.5 Z"/></g>
<g><path style="opacity:0.6" fill="#c2b266" d="M 323.5,56.5 C 323.5,57.5 323.5,58.5 323.5,59.5C 360.5,59.5 397.5,59.5 434.5,59.5C 397.337,60.4985 360.004,60.8318 322.5,60.5C 322.232,58.901 322.566,57.5676 323.5,56.5 Z"/></g>
<g><path style="opacity:0.804" fill="#6f683e" d="M 331.5,73.5 C 365.833,73.5 400.167,73.5 434.5,73.5C 434.833,178.335 434.499,283.001 433.5,387.5C 433.833,282.999 433.499,178.665 432.5,74.5C 399.329,74.1684 366.329,74.5017 333.5,75.5C 332.5,75.1667 331.833,74.5 331.5,73.5 Z"/></g>
<g><path style="opacity:1" fill="#21434d" d="M 303.5,65.5 C 303.5,68.1667 303.5,70.8333 303.5,73.5C 312.833,73.5 322.167,73.5 331.5,73.5C 331.833,74.5 332.5,75.1667 333.5,75.5C 337.676,79.8431 341.676,84.3431 345.5,89C 343.316,92.0116 340.983,94.8449 338.5,97.5C 337.662,97.8417 337.328,98.5084 337.5,99.5C 337.5,168.833 337.5,238.167 337.5,307.5C 310.485,333.125 278.152,345.292 240.5,344C 218.134,346.101 199.301,355.267 184,371.5C 180.934,375.722 178.101,380.056 175.5,384.5C 176.117,386.636 177.451,387.47 179.5,387C 191.818,369.001 208.818,358.334 230.5,355C 270.98,357.007 306.646,345.173 337.5,319.5C 337.5,322.5 337.5,325.5 337.5,328.5C 316.03,345.947 291.363,356.114 263.5,359C 253.5,359.333 243.5,359.667 233.5,360C 227.088,360.644 221.088,362.478 215.5,365.5C 260.115,375.178 300.782,366.512 337.5,339.5C 337.5,363.167 337.5,386.833 337.5,410.5C 308.467,428.169 279.133,445.503 249.5,462.5C 219.867,445.503 190.533,428.169 161.5,410.5C 161.169,386.994 161.502,363.661 162.5,340.5C 170.643,346.41 179.309,351.577 188.5,356C 192.92,356.303 196.587,354.636 199.5,351C 185.317,345.754 172.65,338.254 161.5,328.5C 161.194,325.615 161.527,322.948 162.5,320.5C 175.859,332.103 191.026,340.77 208,346.5C 212.976,345.063 217.809,343.23 222.5,341C 202.638,336.068 184.638,327.401 168.5,315C 165.961,312.63 163.628,310.13 161.5,307.5C 161.5,238.167 161.5,168.833 161.5,99.5C 161.672,98.5084 161.338,97.8417 160.5,97.5C 157.934,94.7111 155.6,91.7111 153.5,88.5C 157.189,84.4799 160.855,80.4799 164.5,76.5C 165.5,76.1667 166.167,75.5 166.5,74.5C 167.167,74.5 167.5,74.1667 167.5,73.5C 177.167,73.5 186.833,73.5 196.5,73.5C 196.663,75.8568 196.497,78.1902 196,80.5C 190.633,85.5318 185.633,90.8651 181,96.5C 180.333,97.5 180.333,98.5 181,99.5C 188.167,108 195.333,116.5 202.5,125C 207.932,122.971 213.599,121.471 219.5,120.5C 221.022,127.235 222.855,133.901 225,140.5C 225.5,141.667 226.333,142.5 227.5,143C 234.804,145.268 242.137,147.435 249.5,149.5C 257.459,146.903 265.459,144.403 273.5,142C 275.833,135 278.167,128 280.5,121C 285.954,121.931 291.288,123.264 296.5,125C 304.355,115.98 312.022,106.813 319.5,97.5C 314.182,91.6813 308.682,86.0146 303,80.5C 302.184,75.3158 302.35,70.3158 303.5,65.5 Z"/></g>
<g><path style="opacity:0.694" fill="#b2a763" d="M 167.5,73.5 C 167.5,74.1667 167.167,74.5 166.5,74.5C 133.167,74.5 99.8333,74.5 66.5,74.5C 66.1672,179.001 66.5005,283.335 67.5,387.5C 67.5,387.833 67.5,388.167 67.5,388.5C 65.5021,283.839 64.8355,178.839 65.5,73.5C 99.5,73.5 133.5,73.5 167.5,73.5 Z"/></g>
<g><path style="opacity:1" fill="#fef188" d="M 166.5,74.5 C 166.167,75.5 165.5,76.1667 164.5,76.5C 132.24,75.5077 99.9066,75.1744 67.5,75.5C 67.5,179.5 67.5,283.5 67.5,387.5C 66.5005,283.335 66.1672,179.001 66.5,74.5C 99.8333,74.5 133.167,74.5 166.5,74.5 Z"/></g>
<g><path style="opacity:1" fill="#f8e582" d="M 432.5,74.5 C 432.5,178.833 432.5,283.167 432.5,387.5C 430.821,387.285 429.821,387.952 429.5,389.5C 408.334,402.92 386.667,415.587 364.5,427.5C 361.729,426.227 360.062,427.227 359.5,430.5C 351.168,436.002 342.501,441.002 333.5,445.5C 330.729,444.227 329.062,445.227 328.5,448.5C 303.502,463.668 278.168,478.335 252.5,492.5C 250.5,492.5 248.5,492.5 246.5,492.5C 186.634,458.071 126.967,423.404 67.5,388.5C 67.5,388.167 67.5,387.833 67.5,387.5C 67.5,283.5 67.5,179.5 67.5,75.5C 99.9066,75.1744 132.24,75.5077 164.5,76.5C 160.855,80.4799 157.189,84.4799 153.5,88.5C 155.6,91.7111 157.934,94.7111 160.5,97.5C 137.673,98.4975 114.673,98.8308 91.5,98.5C 91.1673,189.335 91.5006,280.002 92.5,370.5C 115.001,384.588 138.001,397.921 161.5,410.5C 190.533,428.169 219.867,445.503 249.5,462.5C 279.133,445.503 308.467,428.169 337.5,410.5C 360.635,397.765 383.635,384.765 406.5,371.5C 407.499,280.668 407.833,189.668 407.5,98.5C 384.327,98.8308 361.327,98.4975 338.5,97.5C 340.983,94.8449 343.316,92.0116 345.5,89C 341.676,84.3431 337.676,79.8431 333.5,75.5C 366.329,74.5017 399.329,74.1684 432.5,74.5 Z"/></g>
<g><path style="opacity:0.882" fill="#e8da7f" d="M 432.5,74.5 C 433.499,178.665 433.833,282.999 433.5,387.5C 432.486,388.674 431.153,389.34 429.5,389.5C 429.821,387.952 430.821,387.285 432.5,387.5C 432.5,283.167 432.5,178.833 432.5,74.5 Z"/></g>
<g><path style="opacity:1" fill="#24444d" d="M 214.5,74.5 C 229.351,74.1739 235.184,81.1739 232,95.5C 225.928,104.113 218.428,105.613 209.5,100C 201.765,89.5632 203.432,81.0632 214.5,74.5 Z"/></g>
<g><path style="opacity:1" fill="#25454d" d="M 275.5,74.5 C 290.328,74.1535 296.162,81.1535 293,95.5C 287.5,103.664 280.333,105.498 271.5,101C 262.529,90.5655 263.862,81.7321 275.5,74.5 Z"/></g>
<g><path style="opacity:1" fill="#7c927f" d="M 160.5,97.5 C 161.338,97.8417 161.672,98.5084 161.5,99.5C 138.5,99.5 115.5,99.5 92.5,99.5C 92.5,189.833 92.5,280.167 92.5,370.5C 91.5006,280.002 91.1673,189.335 91.5,98.5C 114.673,98.8308 137.673,98.4975 160.5,97.5 Z"/></g>
<g><path style="opacity:1" fill="#3e6d7c" d="M 161.5,99.5 C 161.5,168.833 161.5,238.167 161.5,307.5C 148.174,295.869 138.007,281.869 131,265.5C 127.323,261.275 123.489,257.942 119.5,255.5C 128.592,280.698 142.925,302.365 162.5,320.5C 161.527,322.948 161.194,325.615 161.5,328.5C 144.249,315.742 130.749,299.742 121,280.5C 116.989,275.946 112.823,272.279 108.5,269.5C 120.478,297.809 138.478,321.475 162.5,340.5C 161.502,363.661 161.169,386.994 161.5,410.5C 138.001,397.921 115.001,384.588 92.5,370.5C 92.5,280.167 92.5,189.833 92.5,99.5C 115.5,99.5 138.5,99.5 161.5,99.5 Z"/></g>
<g><path style="opacity:1" fill="#3e6d7c" d="M 337.5,99.5 C 360.5,99.5 383.5,99.5 406.5,99.5C 406.5,190.167 406.5,280.833 406.5,371.5C 383.635,384.765 360.635,397.765 337.5,410.5C 337.5,386.833 337.5,363.167 337.5,339.5C 361.39,320.764 379.056,297.264 390.5,269C 385.86,272.625 381.36,276.792 377,281.5C 366.918,299.75 353.751,315.416 337.5,328.5C 337.5,325.5 337.5,322.5 337.5,319.5C 355.923,301.67 369.589,280.67 378.5,256.5C 374.844,258.603 371.344,261.603 368,265.5C 360.503,281.515 350.337,295.515 337.5,307.5C 337.5,238.167 337.5,168.833 337.5,99.5 Z"/></g>
<g><path style="opacity:1" fill="#6c8a7d" d="M 338.5,97.5 C 361.327,98.4975 384.327,98.8308 407.5,98.5C 407.833,189.668 407.499,280.668 406.5,371.5C 406.5,280.833 406.5,190.167 406.5,99.5C 383.5,99.5 360.5,99.5 337.5,99.5C 337.328,98.5084 337.662,97.8417 338.5,97.5 Z"/></g>
<g><path style="opacity:1" fill="#25444d" d="M 248.5,104.5 C 249.496,104.414 250.329,104.748 251,105.5C 253.698,109.367 256.198,113.367 258.5,117.5C 257.573,119.946 255.906,120.779 253.5,120C 252.315,118.647 250.981,117.48 249.5,116.5C 247.831,117.671 246.331,119.004 245,120.5C 243.374,119.711 241.874,118.711 240.5,117.5C 243.44,113.278 246.106,108.945 248.5,104.5 Z"/></g>
<g><path style="opacity:1" fill="#f7e582" d="M 248.5,173.5 C 255.269,190.807 261.269,208.473 266.5,226.5C 284.261,226.027 301.927,226.527 319.5,228C 305.5,238.667 291.5,249.333 277.5,260C 283.7,276.928 288.867,294.094 293,311.5C 278.141,301.407 263.474,291.074 249,280.5C 234.253,290.459 219.753,300.793 205.5,311.5C 204.386,310.277 204.219,308.944 205,307.5C 209.333,293.833 213.667,280.167 218,266.5C 218.995,263.874 219.328,261.207 219,258.5C 205.078,248.455 191.244,238.289 177.5,228C 195.444,226.554 213.444,226.054 231.5,226.5C 236.965,208.772 242.631,191.106 248.5,173.5 Z"/></g>
<g><path style="opacity:1" fill="#f5e482" d="M 161.5,307.5 C 163.628,310.13 165.961,312.63 168.5,315C 184.638,327.401 202.638,336.068 222.5,341C 217.809,343.23 212.976,345.063 208,346.5C 191.026,340.77 175.859,332.103 162.5,320.5C 142.925,302.365 128.592,280.698 119.5,255.5C 123.489,257.942 127.323,261.275 131,265.5C 138.007,281.869 148.174,295.869 161.5,307.5 Z"/></g>
<g><path style="opacity:1" fill="#f5e382" d="M 337.5,319.5 C 306.646,345.173 270.98,357.007 230.5,355C 208.818,358.334 191.818,369.001 179.5,387C 177.451,387.47 176.117,386.636 175.5,384.5C 178.101,380.056 180.934,375.722 184,371.5C 199.301,355.267 218.134,346.101 240.5,344C 278.152,345.292 310.485,333.125 337.5,307.5C 350.337,295.515 360.503,281.515 368,265.5C 371.344,261.603 374.844,258.603 378.5,256.5C 369.589,280.67 355.923,301.67 337.5,319.5 Z"/></g>
<g><path style="opacity:1" fill="#f4e382" d="M 161.5,328.5 C 172.65,338.254 185.317,345.754 199.5,351C 196.587,354.636 192.92,356.303 188.5,356C 179.309,351.577 170.643,346.41 162.5,340.5C 138.478,321.475 120.478,297.809 108.5,269.5C 112.823,272.279 116.989,275.946 121,280.5C 130.749,299.742 144.249,315.742 161.5,328.5 Z"/></g>
<g><path style="opacity:1" fill="#f5e482" d="M 337.5,339.5 C 300.782,366.512 260.115,375.178 215.5,365.5C 221.088,362.478 227.088,360.644 233.5,360C 243.5,359.667 253.5,359.333 263.5,359C 291.363,356.114 316.03,345.947 337.5,328.5C 353.751,315.416 366.918,299.75 377,281.5C 381.36,276.792 385.86,272.625 390.5,269C 379.056,297.264 361.39,320.764 337.5,339.5 Z"/></g>
<g><path style="opacity:1" fill="#f2e281" d="M 304.5,364.5 C 307.809,365.242 310.643,366.909 313,369.5C 316.992,374.15 320.492,379.15 323.5,384.5C 322.307,386.384 320.641,386.884 318.5,386C 313.688,378.688 307.688,372.521 300.5,367.5C 301.624,366.141 302.958,365.141 304.5,364.5 Z"/></g>
<g><path style="opacity:0.994" fill="#a19758" d="M 364.5,427.5 C 363.101,428.89 361.434,429.89 359.5,430.5C 360.062,427.227 361.729,426.227 364.5,427.5 Z"/></g>
<g><path style="opacity:0.994" fill="#a19758" d="M 333.5,445.5 C 332.101,446.89 330.434,447.89 328.5,448.5C 329.062,445.227 330.729,444.227 333.5,445.5 Z"/></g>
<g><path style="opacity:1" fill="#9e955d" d="M 246.5,492.5 C 248.5,492.5 250.5,492.5 252.5,492.5C 250.5,495.167 248.5,495.167 246.5,492.5 Z"/></g>
</svg>
