<?xml version="1.0" encoding="UTF-8"?>
<!DOCTYPE svg PUBLIC "-//W3C//DTD SVG 1.1//EN" "http://www.w3.org/Graphics/SVG/1.1/DTD/svg11.dtd">
<svg xmlns="http://www.w3.org/2000/svg" version="1.1" width="500px" height="500px" style="shape-rendering:geometricPrecision; text-rendering:geometricPrecision; image-rendering:optimizeQuality; fill-rule:evenodd; clip-rule:evenodd" xmlns:xlink="http://www.w3.org/1999/xlink">
<g><path style="opacity:1" fill="#f8e582" d="M 112.5,27.5 C 115.152,27.5905 117.485,26.9238 119.5,25.5C 162.551,11.2704 206.885,4.2704 252.5,4.5C 316.929,3.88338 377.762,18.2167 435,47.5C 435.667,160.833 435.667,274.167 435,387.5C 374.312,423.678 313.312,459.345 252,494.5C 189.187,459.093 126.52,423.427 64,387.5C 63.3333,274.167 63.3333,160.833 64,47.5C 79.545,39.3103 95.7117,32.6437 112.5,27.5 Z"/></g>
<g><path style="opacity:1" fill="#54205e" d="M 406.5,299.5 C 402.722,242.422 376.388,199.255 327.5,170C 276.339,143.722 225.339,144.055 174.5,171C 126.64,200.396 100.974,243.229 97.5,299.5C 94.8333,299.5 92.1667,299.5 89.5,299.5C 89.3333,222.166 89.5,144.833 90,67.5C 123.849,50.1067 159.682,38.94 197.5,34C 208.778,32.3935 220.111,31.5602 231.5,31.5C 233.833,22.8333 236.167,14.1667 238.5,5.5C 246.86,5.16879 255.193,5.50212 263.5,6.5C 266.073,14.7197 268.74,22.8864 271.5,31C 319.667,33.2914 365.333,45.1247 408.5,66.5C 409.5,144.164 409.833,221.83 409.5,299.5C 408.5,299.5 407.5,299.5 406.5,299.5 Z"/></g>
<g><path style="opacity:0.796" fill="#9a9151" d="M 119.5,25.5 C 117.485,26.9238 115.152,27.5905 112.5,27.5C 114.515,26.0762 116.848,25.4095 119.5,25.5 Z"/></g>
<g><path style="opacity:1" fill="#f8e582" d="M 263.5,67.5 C 277.167,68.1667 290.833,68.8333 304.5,69.5C 293.875,77.6194 283.375,85.9527 273,94.5C 276.191,108.59 280.025,122.59 284.5,136.5C 284.167,136.833 283.833,137.167 283.5,137.5C 272.227,129.283 261.06,120.95 250,112.5C 238.583,120.463 227.416,128.796 216.5,137.5C 215.644,134.861 215.81,132.194 217,129.5C 220.603,118.192 224.103,106.858 227.5,95.5C 216.69,86.5948 205.69,77.9281 194.5,69.5C 208.5,68.8333 222.5,68.1667 236.5,67.5C 240.102,52.8618 244.602,38.5285 250,24.5C 254.607,38.8206 259.107,53.1539 263.5,67.5 Z"/></g>
<g><path style="opacity:1" fill="#b19172" d="M 236.5,67.5 C 222.5,68.1667 208.5,68.8333 194.5,69.5C 193.957,69.44 193.624,69.1067 193.5,68.5C 207.818,67.5007 222.151,67.1674 236.5,67.5 Z"/></g>
<g><path style="opacity:1" fill="#a98771" d="M 263.5,67.5 C 277.516,67.1674 291.516,67.5008 305.5,68.5C 305.376,69.1067 305.043,69.44 304.5,69.5C 290.833,68.8333 277.167,68.1667 263.5,67.5 Z"/></g>
<g><path style="opacity:1" fill="#7f4983" d="M 406.5,299.5 C 388.5,299.5 370.5,299.5 352.5,299.5C 355.842,292.457 359.176,285.457 362.5,278.5C 366.658,283.491 371.325,287.991 376.5,292C 378.624,293.582 380.79,293.749 383,292.5C 381.275,267.931 375.608,244.264 366,221.5C 361.627,214.12 356.127,207.62 349.5,202C 340.782,194.948 331.782,188.281 322.5,182C 316.607,178.591 310.274,176.591 303.5,176C 293.906,166.04 282.239,162.04 268.5,164C 267.667,164.833 266.833,165.667 266,166.5C 263.841,172.152 261.841,177.819 260,183.5C 257.56,178.938 254.893,174.604 252,170.5C 242.315,178.196 236.482,188.196 234.5,200.5C 234.34,203.696 235.34,206.363 237.5,208.5C 239.197,207.636 240.363,206.303 241,204.5C 242.496,198.505 243.83,192.505 245,186.5C 246.587,185.273 247.921,185.606 249,187.5C 249.667,193.833 249.667,200.167 249,206.5C 245.629,211.777 240.796,214.943 234.5,216C 229.53,216.886 224.53,217.552 219.5,218C 211.986,232.172 200.653,242.172 185.5,248C 179.129,250.068 172.796,252.235 166.5,254.5C 165.734,269.562 166.067,284.562 167.5,299.5C 150.167,299.5 132.833,299.5 115.5,299.5C 113.954,295.287 110.954,292.953 106.5,292.5C 106.5,294.833 106.5,297.167 106.5,299.5C 103.5,299.5 100.5,299.5 97.5,299.5C 100.974,243.229 126.64,200.396 174.5,171C 225.339,144.055 276.339,143.722 327.5,170C 376.388,199.255 402.722,242.422 406.5,299.5 Z"/></g>
<g><path style="opacity:1" fill="#54205e" d="M 352.5,299.5 C 346.5,299.5 340.5,299.5 334.5,299.5C 333.456,308.139 333.289,316.806 334,325.5C 342.475,334.064 351.141,342.397 360,350.5C 360.667,351.5 360.667,352.5 360,353.5C 342.833,374.667 325.667,395.833 308.5,417C 289.397,424.367 270.231,431.534 251,438.5C 232.435,431.533 213.935,424.367 195.5,417C 177.787,395.622 160.453,373.955 143.5,352C 151.302,343.197 159.469,334.697 168,326.5C 168.824,317.324 168.657,308.324 167.5,299.5C 166.067,284.562 165.734,269.562 166.5,254.5C 172.796,252.235 179.129,250.068 185.5,248C 200.653,242.172 211.986,232.172 219.5,218C 224.53,217.552 229.53,216.886 234.5,216C 240.796,214.943 245.629,211.777 249,206.5C 249.667,200.167 249.667,193.833 249,187.5C 247.921,185.606 246.587,185.273 245,186.5C 243.83,192.505 242.496,198.505 241,204.5C 240.363,206.303 239.197,207.636 237.5,208.5C 235.34,206.363 234.34,203.696 234.5,200.5C 236.482,188.196 242.315,178.196 252,170.5C 254.893,174.604 257.56,178.938 260,183.5C 261.841,177.819 263.841,172.152 266,166.5C 266.833,165.667 267.667,164.833 268.5,164C 282.239,162.04 293.906,166.04 303.5,176C 310.274,176.591 316.607,178.591 322.5,182C 331.782,188.281 340.782,194.948 349.5,202C 356.127,207.62 361.627,214.12 366,221.5C 375.608,244.264 381.275,267.931 383,292.5C 380.79,293.749 378.624,293.582 376.5,292C 371.325,287.991 366.658,283.491 362.5,278.5C 359.176,285.457 355.842,292.457 352.5,299.5 Z"/></g>
<g><path style="opacity:1" fill="#55215e" d="M 168.5,184.5 C 169.376,184.369 170.043,184.702 170.5,185.5C 160.167,197.833 148.833,209.167 136.5,219.5C 135.417,218.635 135.251,217.635 136,216.5C 146.728,205.604 157.562,194.937 168.5,184.5 Z"/></g>
<g><path style="opacity:1" fill="#f9e682" d="M 249.5,254.5 C 270.209,260.458 290.709,267.125 311,274.5C 310.27,294.5 309.603,314.5 309,334.5C 314.649,340.983 320.483,347.317 326.5,353.5C 319.068,363.768 311.068,373.602 302.5,383C 296.734,381.614 291.068,379.947 285.5,378C 282.636,385.592 279.969,393.258 277.5,401C 268.868,403.449 260.368,406.283 252,409.5C 243.833,407 235.667,404.5 227.5,402C 224.054,394.256 221.054,386.256 218.5,378C 212.734,379.386 207.068,381.053 201.5,383C 193.667,373.833 185.833,364.667 178,355.5C 177.333,354.5 177.333,353.5 178,352.5C 183.301,346.198 188.968,340.198 195,334.5C 194.002,314.194 193.168,293.86 192.5,273.5C 211.784,267.739 230.784,261.405 249.5,254.5 Z"/></g>
<g><path style="opacity:1" fill="#531f5e" d="M 115.5,299.5 C 112.5,299.5 109.5,299.5 106.5,299.5C 106.5,297.167 106.5,294.833 106.5,292.5C 110.954,292.953 113.954,295.287 115.5,299.5 Z"/></g>
<g><path style="opacity:1" fill="#55225e" d="M 215.5,328.5 C 232.056,329.554 237.556,337.887 232,353.5C 226.185,359.468 219.352,360.968 211.5,358C 202.954,351.513 201.454,343.68 207,334.5C 209.637,332.109 212.47,330.109 215.5,328.5 Z"/></g>
<g><path style="opacity:1" fill="#55225e" d="M 280.5,328.5 C 293.822,328.045 300.322,334.378 300,347.5C 296.21,357.48 289.044,361.313 278.5,359C 270.587,354.334 267.754,347.501 270,338.5C 272.738,334.26 276.238,330.926 280.5,328.5 Z"/></g>
<g><path style="opacity:1" fill="#55215e" d="M 250.5,361.5 C 252.371,361.859 253.871,362.859 255,364.5C 256.97,367.968 259.136,371.301 261.5,374.5C 260.5,376.167 259.167,377.5 257.5,378.5C 255.517,377.018 253.684,375.351 252,373.5C 250.316,375.351 248.483,377.018 246.5,378.5C 244.833,377.5 243.5,376.167 242.5,374.5C 245.22,370.132 247.887,365.799 250.5,361.5 Z"/></g>
</svg>
