<?xml version="1.0" encoding="UTF-8"?>
<!DOCTYPE svg PUBLIC "-//W3C//DTD SVG 1.1//EN" "http://www.w3.org/Graphics/SVG/1.1/DTD/svg11.dtd">
<svg xmlns="http://www.w3.org/2000/svg" version="1.1" width="500px" height="500px" style="shape-rendering:geometricPrecision; text-rendering:geometricPrecision; image-rendering:optimizeQuality; fill-rule:evenodd; clip-rule:evenodd" xmlns:xlink="http://www.w3.org/1999/xlink">
<g><path style="opacity:1" fill="#f5e281" d="M 303.5,7.5 C 303.918,8.22158 304.584,8.72158 305.5,9C 302.335,16.3291 299.668,23.8291 297.5,31.5C 267.145,29.1079 236.812,28.9412 206.5,31C 202.422,23.6776 198.755,16.1776 195.5,8.5C 231.318,3.57326 267.318,3.23993 303.5,7.5 Z"/></g>
<g><path style="opacity:1" fill="#54205e" d="M 303.5,7.5 C 313.769,8.32254 323.769,9.98921 333.5,12.5C 332.448,12.3505 331.448,12.5172 330.5,13C 334.528,21.9175 337.861,31.0842 340.5,40.5C 364.548,46.1277 387.548,54.6277 409.5,66C 410.487,76.4179 410.82,86.9179 410.5,97.5C 418.65,98.4927 426.983,98.8261 435.5,98.5C 435.5,114.167 435.5,129.833 435.5,145.5C 427.167,145.5 418.833,145.5 410.5,145.5C 410.5,196.5 410.5,247.5 410.5,298.5C 408.5,298.5 406.5,298.5 404.5,298.5C 399.855,240.844 372.689,197.511 323,168.5C 319.353,171.313 315.853,174.313 312.5,177.5C 330.547,187.378 346.38,200.044 360,215.5C 362.254,219.007 364.254,222.673 366,226.5C 374.162,248.143 378.995,270.476 380.5,293.5C 377.072,293.453 374.072,292.287 371.5,290C 367.623,286.292 363.957,282.458 360.5,278.5C 359.522,278.977 358.689,279.643 358,280.5C 356.508,286.813 354.342,292.813 351.5,298.5C 345.5,298.5 339.5,298.5 333.5,298.5C 332.659,305.465 332.326,312.465 332.5,319.5C 358.5,319.5 384.5,319.5 410.5,319.5C 410.5,335.833 410.5,352.167 410.5,368.5C 389.831,368.333 369.164,368.5 348.5,369C 334.5,385.667 320.5,402.333 306.5,419C 288.053,425.204 269.72,431.704 251.5,438.5C 233.795,432.098 216.128,425.598 198.5,419C 184.874,402.372 170.874,386.039 156.5,370C 147.173,369.5 137.839,369.334 128.5,369.5C 115.677,368.505 102.677,368.171 89.5,368.5C 89.5,352.167 89.5,335.833 89.5,319.5C 115.833,319.5 142.167,319.5 168.5,319.5C 168.674,312.465 168.341,305.465 167.5,298.5C 166.5,298.5 165.5,298.5 164.5,298.5C 164.33,283.794 163.83,269.127 163,254.5C 176.306,251.345 188.639,246.012 200,238.5C 204.295,224.018 208.462,209.518 212.5,195C 201.331,185.668 189.998,176.501 178.5,167.5C 132.891,192.675 105.391,231.008 96,282.5C 95.5006,287.823 95.334,293.156 95.5,298.5C 93.1667,298.5 90.8333,298.5 88.5,298.5C 88.5,247.833 88.5,197.167 88.5,146.5C 80.6841,145.508 72.6841,145.174 64.5,145.5C 64.5,129.833 64.5,114.167 64.5,98.5C 72.5,98.5 80.5,98.5 88.5,98.5C 88.1797,87.585 88.513,76.7517 89.5,66C 112.421,54.4154 136.421,45.9154 161.5,40.5C 163.964,31.7735 166.631,23.1069 169.5,14.5C 170.833,13.8333 170.833,13.1667 169.5,12.5C 177.909,10.3222 186.576,8.98885 195.5,8.5C 198.755,16.1776 202.422,23.6776 206.5,31C 236.812,28.9412 267.145,29.1079 297.5,31.5C 299.668,23.8291 302.335,16.3291 305.5,9C 304.584,8.72158 303.918,8.22158 303.5,7.5 Z"/></g>
<g><path style="opacity:0.502" fill="#6d5b43" d="M 164.5,13.5 C 165.919,12.5489 167.585,12.2155 169.5,12.5C 170.833,13.1667 170.833,13.8333 169.5,14.5C 168.081,13.5489 166.415,13.2155 164.5,13.5 Z"/></g>
<g><path style="opacity:1" fill="#f5e280" d="M 333.5,12.5 C 345.211,14.0385 356.545,16.7051 367.5,20.5C 369.246,21.2176 369.912,22.2176 369.5,23.5C 371.071,22.6906 372.738,22.3573 374.5,22.5C 376.786,22.595 378.786,23.2616 380.5,24.5C 381.469,25.3094 382.302,26.3094 383,27.5C 384.011,26.6634 385.178,26.33 386.5,26.5C 387.469,27.3094 388.302,28.3094 389,29.5C 390.011,28.6634 391.178,28.33 392.5,28.5C 406.821,33.1642 420.488,39.1642 433.5,46.5C 434.485,63.423 434.818,80.423 434.5,97.5C 426.5,97.5 418.5,97.5 410.5,97.5C 410.82,86.9179 410.487,76.4179 409.5,66C 387.548,54.6277 364.548,46.1277 340.5,40.5C 337.861,31.0842 334.528,21.9175 330.5,13C 331.448,12.5172 332.448,12.3505 333.5,12.5 Z"/></g>
<g><path style="opacity:1" fill="#f7e482" d="M 164.5,13.5 C 166.415,13.2155 168.081,13.5489 169.5,14.5C 166.631,23.1069 163.964,31.7735 161.5,40.5C 136.421,45.9154 112.421,54.4154 89.5,66C 88.513,76.7517 88.1797,87.585 88.5,98.5C 80.5,98.5 72.5,98.5 64.5,98.5C 64.1667,98.5 63.8333,98.5 63.5,98.5C 63.3334,81.4967 63.5001,64.4967 64,47.5C 74.2117,42.1433 84.7117,37.4767 95.5,33.5C 98.716,33.6545 101.383,32.6545 103.5,30.5C 105.939,29.9475 108.273,29.9475 110.5,30.5C 111.696,30.1543 111.696,29.6543 110.5,29C 112.32,28.7996 113.653,27.9663 114.5,26.5C 114.833,26.5 115.167,26.5 115.5,26.5C 120.165,25.9431 124.498,24.6098 128.5,22.5C 131.152,22.5905 133.485,21.9238 135.5,20.5C 138.152,20.5905 140.485,19.9238 142.5,18.5C 149.551,16.0868 156.885,14.4201 164.5,13.5 Z"/></g>
<g><path style="opacity:0.816" fill="#84724b" d="M 142.5,18.5 C 140.485,19.9238 138.152,20.5905 135.5,20.5C 137.515,19.0762 139.848,18.4095 142.5,18.5 Z"/></g>
<g><path style="opacity:0.867" fill="#937f53" d="M 135.5,20.5 C 133.485,21.9238 131.152,22.5905 128.5,22.5C 130.515,21.0762 132.848,20.4095 135.5,20.5 Z"/></g>
<g><path style="opacity:1" fill="#a29058" d="M 367.5,20.5 C 370.067,20.7215 372.401,21.3882 374.5,22.5C 372.738,22.3573 371.071,22.6906 369.5,23.5C 369.912,22.2176 369.246,21.2176 367.5,20.5 Z"/></g>
<g><path style="opacity:0.91" fill="#978654" d="M 128.5,22.5 C 124.498,24.6098 120.165,25.9431 115.5,26.5C 119.502,24.3902 123.835,23.0569 128.5,22.5 Z"/></g>
<g><path style="opacity:1" fill="#958651" d="M 380.5,24.5 C 382.786,24.595 384.786,25.2616 386.5,26.5C 385.178,26.33 384.011,26.6634 383,27.5C 382.302,26.3094 381.469,25.3094 380.5,24.5 Z"/></g>
<g><path style="opacity:1" fill="#968752" d="M 386.5,26.5 C 388.786,26.595 390.786,27.2616 392.5,28.5C 391.178,28.33 390.011,28.6634 389,29.5C 388.302,28.3094 387.469,27.3094 386.5,26.5 Z"/></g>
<g><path style="opacity:1" fill="#b3a161" d="M 114.5,26.5 C 113.653,27.9663 112.32,28.7996 110.5,29C 111.696,29.6543 111.696,30.1543 110.5,30.5C 108.273,29.9475 105.939,29.9475 103.5,30.5C 106.939,28.7957 110.605,27.4624 114.5,26.5 Z"/></g>
<g><path style="opacity:1" fill="#f8e582" d="M 331.5,67.5 C 345.167,68.1667 358.833,68.8333 372.5,69.5C 363.043,76.4511 353.709,83.6178 344.5,91C 342.603,92.2647 341.27,93.9313 340.5,96C 344.198,109.592 348.198,123.092 352.5,136.5C 352.167,136.833 351.833,137.167 351.5,137.5C 340.227,129.283 329.06,120.95 318,112.5C 306.421,120.241 295.254,128.575 284.5,137.5C 283.644,134.861 283.81,132.194 285,129.5C 288.501,118.161 292.001,106.828 295.5,95.5C 284.69,86.5948 273.69,77.9281 262.5,69.5C 276.5,68.8333 290.5,68.1667 304.5,67.5C 308.222,53.0003 312.555,38.667 317.5,24.5C 322.567,38.7011 327.234,53.0344 331.5,67.5 Z"/></g>
<g><path style="opacity:1" fill="#f8e582" d="M 198.5,67.5 C 212.167,68.1667 225.833,68.8333 239.5,69.5C 228.31,77.9281 217.31,86.5948 206.5,95.5C 211.597,109.426 215.597,123.426 218.5,137.5C 207.167,129.167 195.833,120.833 184.5,112.5C 172.882,120.783 161.549,129.45 150.5,138.5C 150.167,138.167 149.833,137.833 149.5,137.5C 153.833,123.5 158.167,109.5 162.5,95.5C 151.69,86.5948 140.69,77.9281 129.5,69.5C 143.696,69.1609 157.696,68.1609 171.5,66.5C 175.427,52.3862 179.76,38.3862 184.5,24.5C 189.567,38.7011 194.234,53.0344 198.5,67.5 Z"/></g>
<g><path style="opacity:0.906" fill="#9a8a55" d="M 103.5,30.5 C 101.383,32.6545 98.716,33.6545 95.5,33.5C 97.936,32.129 100.603,31.129 103.5,30.5 Z"/></g>
<g><path style="opacity:0.749" fill="#d5bd8a" d="M 433.5,46.5 C 435.486,63.4678 436.153,80.8011 435.5,98.5C 426.983,98.8261 418.65,98.4927 410.5,97.5C 418.5,97.5 426.5,97.5 434.5,97.5C 434.818,80.423 434.485,63.423 433.5,46.5 Z"/></g>
<g><path style="opacity:1" fill="#bea075" d="M 171.5,66.5 C 157.696,68.1609 143.696,69.1609 129.5,69.5C 128.957,69.44 128.624,69.1067 128.5,68.5C 142.896,67.8174 157.229,67.1507 171.5,66.5 Z"/></g>
<g><path style="opacity:1" fill="#b49573" d="M 198.5,67.5 C 212.516,67.1674 226.516,67.5008 240.5,68.5C 240.376,69.1067 240.043,69.44 239.5,69.5C 225.833,68.8333 212.167,68.1667 198.5,67.5 Z"/></g>
<g><path style="opacity:1" fill="#bea075" d="M 304.5,67.5 C 290.5,68.1667 276.5,68.8333 262.5,69.5C 261.957,69.44 261.624,69.1067 261.5,68.5C 275.818,67.5007 290.151,67.1674 304.5,67.5 Z"/></g>
<g><path style="opacity:1" fill="#b49573" d="M 331.5,67.5 C 345.516,67.1674 359.516,67.5008 373.5,68.5C 373.376,69.1067 373.043,69.44 372.5,69.5C 358.833,68.8333 345.167,68.1667 331.5,67.5 Z"/></g>
<g><path style="opacity:1" fill="#f8e582" d="M 196.5,164.5 C 210.5,163.833 224.5,163.167 238.5,162.5C 242.508,147.978 247.008,133.645 252,119.5C 257.122,133.989 261.622,148.656 265.5,163.5C 279.504,163.333 293.504,163.5 307.5,164C 295.858,172.317 284.858,181.317 274.5,191C 278.5,204.333 282.5,217.667 286.5,231C 286.167,231.5 285.833,232 285.5,232.5C 274.227,224.283 263.06,215.95 252,207.5C 240.144,215.434 228.811,224.101 218,233.5C 218.009,229.446 218.676,225.446 220,221.5C 223.27,211.191 226.436,200.858 229.5,190.5C 218.69,181.595 207.69,172.928 196.5,164.5 Z"/></g>
<g><path style="opacity:1" fill="#a28185" d="M 63.5,98.5 C 63.8333,98.5 64.1667,98.5 64.5,98.5C 64.5,114.167 64.5,129.833 64.5,145.5C 72.6841,145.174 80.6841,145.508 88.5,146.5C 80.1667,146.5 71.8333,146.5 63.5,146.5C 63.5,130.5 63.5,114.5 63.5,98.5 Z"/></g>
<g><path style="opacity:1" fill="#f7e482" d="M 63.5,146.5 C 71.8333,146.5 80.1667,146.5 88.5,146.5C 88.5,197.167 88.5,247.833 88.5,298.5C 90.8333,298.5 93.1667,298.5 95.5,298.5C 118.5,298.5 141.5,298.5 164.5,298.5C 165.5,298.5 166.5,298.5 167.5,298.5C 168.341,305.465 168.674,312.465 168.5,319.5C 142.167,319.5 115.833,319.5 89.5,319.5C 88.5035,335.992 88.1702,352.658 88.5,369.5C 101.833,369.5 115.167,369.5 128.5,369.5C 137.839,369.334 147.173,369.5 156.5,370C 170.874,386.039 184.874,402.372 198.5,419C 216.128,425.598 233.795,432.098 251.5,438.5C 269.72,431.704 288.053,425.204 306.5,419C 320.5,402.333 334.5,385.667 348.5,369C 369.164,368.5 389.831,368.333 410.5,368.5C 410.5,352.167 410.5,335.833 410.5,319.5C 384.5,319.5 358.5,319.5 332.5,319.5C 332.326,312.465 332.659,305.465 333.5,298.5C 339.5,298.5 345.5,298.5 351.5,298.5C 369.167,298.5 386.833,298.5 404.5,298.5C 406.5,298.5 408.5,298.5 410.5,298.5C 411.499,248.003 411.832,197.336 411.5,146.5C 419.167,146.5 426.833,146.5 434.5,146.5C 434.83,227.237 434.497,307.904 433.5,388.5C 373.187,424.327 312.52,459.661 251.5,494.5C 188.895,459.071 126.395,423.405 64,387.5C 63.5,307.167 63.3333,226.834 63.5,146.5 Z"/></g>
<g><path style="opacity:0.749" fill="#e3cd8c" d="M 435.5,145.5 C 436.164,226.84 435.497,307.84 433.5,388.5C 434.497,307.904 434.83,227.237 434.5,146.5C 426.833,146.5 419.167,146.5 411.5,146.5C 411.832,197.336 411.499,248.003 410.5,298.5C 410.5,247.5 410.5,196.5 410.5,145.5C 418.833,145.5 427.167,145.5 435.5,145.5 Z"/></g>
<g><path style="opacity:1" fill="#a68470" d="M 238.5,162.5 C 224.5,163.167 210.5,163.833 196.5,164.5C 195.957,164.44 195.624,164.107 195.5,163.5C 209.818,162.501 224.151,162.167 238.5,162.5 Z"/></g>
<g><path style="opacity:1" fill="#7f4983" d="M 164.5,298.5 C 141.5,298.5 118.5,298.5 95.5,298.5C 95.334,293.156 95.5006,287.823 96,282.5C 105.391,231.008 132.891,192.675 178.5,167.5C 189.998,176.501 201.331,185.668 212.5,195C 208.462,209.518 204.295,224.018 200,238.5C 188.639,246.012 176.306,251.345 163,254.5C 163.83,269.127 164.33,283.794 164.5,298.5 Z"/></g>
<g><path style="opacity:1" fill="#7f4983" d="M 404.5,298.5 C 386.833,298.5 369.167,298.5 351.5,298.5C 354.342,292.813 356.508,286.813 358,280.5C 358.689,279.643 359.522,278.977 360.5,278.5C 363.957,282.458 367.623,286.292 371.5,290C 374.072,292.287 377.072,293.453 380.5,293.5C 378.995,270.476 374.162,248.143 366,226.5C 364.254,222.673 362.254,219.007 360,215.5C 346.38,200.044 330.547,187.378 312.5,177.5C 315.853,174.313 319.353,171.313 323,168.5C 372.689,197.511 399.855,240.844 404.5,298.5 Z"/></g>
<g><path style="opacity:1" fill="#572360" d="M 166.5,184.5 C 167.621,186.089 167.454,187.756 166,189.5C 155.936,200.233 145.27,210.233 134,219.5C 133.333,218.5 133.333,217.5 134,216.5C 144.064,204.935 154.898,194.268 166.5,184.5 Z"/></g>
<g><path style="opacity:1" fill="#f9e682" d="M 249.5,254.5 C 270.209,260.458 290.709,267.125 311,274.5C 310.168,294.484 309.501,314.484 309,334.5C 314.846,341.012 320.68,347.512 326.5,354C 318.891,363.947 310.891,373.614 302.5,383C 296.734,381.614 291.068,379.947 285.5,378C 282.636,385.592 279.969,393.258 277.5,401C 268.964,403.758 260.464,406.591 252,409.5C 243.833,407 235.667,404.5 227.5,402C 226.333,401.5 225.5,400.667 225,399.5C 223.527,392.103 221.36,384.936 218.5,378C 212.734,379.386 207.068,381.053 201.5,383C 193.667,373.833 185.833,364.667 178,355.5C 177.333,354.5 177.333,353.5 178,352.5C 183.301,346.198 188.968,340.198 195,334.5C 194.404,314.161 193.571,293.827 192.5,273.5C 211.784,267.739 230.784,261.405 249.5,254.5 Z"/></g>
<g><path style="opacity:1" fill="#55215e" d="M 215.5,328.5 C 230.732,329.214 236.565,336.881 233,351.5C 227.685,359.453 220.518,361.619 211.5,358C 201.789,350.022 201.122,341.356 209.5,332C 211.727,331.059 213.727,329.892 215.5,328.5 Z"/></g>
<g><path style="opacity:1" fill="#55215e" d="M 280.5,328.5 C 293.822,328.045 300.322,334.378 300,347.5C 296.458,357.915 289.291,361.748 278.5,359C 270.587,354.334 267.754,347.501 270,338.5C 272.738,334.26 276.238,330.926 280.5,328.5 Z"/></g>
<g><path style="opacity:1" fill="#54215e" d="M 250.5,361.5 C 252.371,361.859 253.871,362.859 255,364.5C 256.97,367.968 259.136,371.301 261.5,374.5C 260.5,376.167 259.167,377.5 257.5,378.5C 255.517,377.018 253.684,375.351 252,373.5C 250.316,375.351 248.483,377.018 246.5,378.5C 244.833,377.5 243.5,376.167 242.5,374.5C 245.44,370.278 248.106,365.945 250.5,361.5 Z"/></g>
<g><path style="opacity:1" fill="#98726d" d="M 89.5,319.5 C 89.5,335.833 89.5,352.167 89.5,368.5C 102.677,368.171 115.677,368.505 128.5,369.5C 115.167,369.5 101.833,369.5 88.5,369.5C 88.1702,352.658 88.5035,335.992 89.5,319.5 Z"/></g>
</svg>
