<?xml version="1.0" encoding="UTF-8"?>
<!DOCTYPE svg PUBLIC "-//W3C//DTD SVG 1.1//EN" "http://www.w3.org/Graphics/SVG/1.1/DTD/svg11.dtd">
<svg xmlns="http://www.w3.org/2000/svg" version="1.1" width="256px" height="256px" style="shape-rendering:geometricPrecision; text-rendering:geometricPrecision; image-rendering:optimizeQuality; fill-rule:evenodd; clip-rule:evenodd" xmlns:xlink="http://www.w3.org/1999/xlink">
<g><path style="opacity:0.994" fill="#c1b5a3" d="M 51.5,47.5 C 102.833,47.5 154.167,47.5 205.5,47.5C 205.667,93.5012 205.5,139.501 205,185.5C 180.812,198.933 156.645,212.767 132.5,227C 129.833,227.667 127.167,227.667 124.5,227C 100.38,213.014 76.2136,198.847 52,184.5C 51.5,138.835 51.3333,93.1679 51.5,47.5 Z"/></g>
<g><path style="opacity:1" fill="#7f7366" d="M 63.5,67.5 C 90.6674,95.2539 123.001,103.087 160.5,91C 173.008,85.65 184.008,78.15 193.5,68.5C 194.833,105.167 194.833,141.833 193.5,178.5C 171.814,190.634 150.147,202.968 128.5,215.5C 106.553,202.946 84.7193,190.279 63,177.5C 62.1737,140.762 62.3404,104.095 63.5,67.5 Z"/></g>
<g><path style="opacity:1" fill="#c1b5a3" d="M 100.5,135.5 C 101.552,135.351 102.552,135.517 103.5,136C 110.003,141.008 116.336,146.174 122.5,151.5C 116.11,157.389 109.276,162.723 102,167.5C 94.583,162.537 87.4164,157.204 80.5,151.5C 87.2363,146.147 93.903,140.814 100.5,135.5 Z"/></g>
<g><path style="opacity:1" fill="#c1b5a3" d="M 155.5,135.5 C 156.922,135.709 158.255,136.209 159.5,137C 165.669,141.674 171.669,146.507 177.5,151.5C 170.718,157.064 163.718,162.398 156.5,167.5C 149.282,162.398 142.282,157.064 135.5,151.5C 142.197,146.158 148.864,140.825 155.5,135.5 Z"/></g>
<g><path style="opacity:1" fill="#c1b5a3" d="M 127.5,157.5 C 129.783,157.608 131.783,158.441 133.5,160C 139.311,164.31 144.977,168.81 150.5,173.5C 143.464,179.04 136.297,184.374 129,189.5C 121.724,184.723 114.89,179.389 108.5,173.5C 114.853,168.144 121.186,162.81 127.5,157.5 Z"/></g>
</svg>
