<?xml version="1.0" encoding="UTF-8"?>
<!DOCTYPE svg PUBLIC "-//W3C//DTD SVG 1.1//EN" "http://www.w3.org/Graphics/SVG/1.1/DTD/svg11.dtd">
<svg xmlns="http://www.w3.org/2000/svg" version="1.1" width="500px" height="500px" style="shape-rendering:geometricPrecision; text-rendering:geometricPrecision; image-rendering:optimizeQuality; fill-rule:evenodd; clip-rule:evenodd" xmlns:xlink="http://www.w3.org/1999/xlink">
<g><path style="opacity:0.506" fill="#f1e190" d="M 176.5,25.5 C 175.51,19.3554 175.177,13.0221 175.5,6.5C 137.809,6.19136 100.143,6.52469 62.5,7.5C 63.2625,6.73209 64.2625,6.23209 65.5,6C 102.498,5.50001 139.498,5.33335 176.5,5.5C 176.5,12.1667 176.5,18.8333 176.5,25.5 Z"/></g>
<g><path style="opacity:1" fill="#f5e280" d="M 62.5,7.5 C 100.143,6.52469 137.809,6.19136 175.5,6.5C 175.177,13.0221 175.51,19.3554 176.5,25.5C 200.861,45.191 225.528,64.5244 250.5,83.5C 274.978,64.1899 299.311,44.6899 323.5,25C 322.522,18.5898 322.189,12.0898 322.5,5.5C 360.168,5.33335 397.835,5.50001 435.5,6C 443.54,9.06873 451.54,12.2354 459.5,15.5C 460.493,20.1196 460.827,24.7863 460.5,29.5C 421.499,29.3333 382.499,29.5 343.5,30C 312.311,55.3565 280.978,80.5231 249.5,105.5C 218.688,80.5223 188.021,55.3556 157.5,30C 117.835,29.5 78.1681,29.3333 38.5,29.5C 38.1975,24.57 38.5308,19.7367 39.5,15C 47.165,12.3892 54.8317,9.8892 62.5,7.5 Z"/></g>
<g><path style="opacity:1" fill="#f6e481" d="M 192.5,5.5 C 231.5,5.5 270.5,5.5 309.5,5.5C 309.219,9.18791 308.719,12.8546 308,16.5C 290.286,31.2705 272.119,45.4371 253.5,59C 250.697,59.755 248.03,59.4217 245.5,58C 230.957,46.6173 216.29,35.4507 201.5,24.5C 201.461,23.4168 201.127,22.4168 200.5,21.5C 197.747,20.0023 195.414,18.0023 193.5,15.5C 192.513,12.2317 192.18,8.89838 192.5,5.5 Z"/></g>
<g><path style="opacity:0.933" fill="#c8ba6a" d="M 192.5,5.5 C 192.18,8.89838 192.513,12.2317 193.5,15.5C 195.414,18.0023 197.747,20.0023 200.5,21.5C 201.127,22.4168 201.461,23.4168 201.5,24.5C 197.914,22.4203 194.747,19.7537 192,16.5C 191.19,12.6425 191.357,8.97579 192.5,5.5 Z"/></g>
<g><path style="opacity:1" fill="#353c80" d="M 39.5,58.5 C 79.1681,58.3333 118.835,58.5 158.5,59C 188.688,84.0224 219.021,108.856 249.5,133.5C 280.35,108.906 311.017,84.073 341.5,59C 381.335,58.1688 421.002,58.3354 460.5,59.5C 450.833,59.5 441.167,59.5 431.5,59.5C 431.5,118.5 431.5,177.5 431.5,236.5C 393.023,223.714 353.689,214.381 313.5,208.5C 312.165,195.822 310.665,183.155 309,170.5C 307.5,165 304,161.5 298.5,160C 287.258,155.21 275.924,150.71 264.5,146.5C 264.44,145.957 264.107,145.624 263.5,145.5C 262.5,165.489 262.167,185.489 262.5,205.5C 254.5,205.5 246.5,205.5 238.5,205.5C 238.83,185.326 238.497,165.326 237.5,145.5C 225.388,150.817 213.055,155.65 200.5,160C 195.6,161.902 192.433,165.402 191,170.5C 189.883,183.597 188.383,196.597 186.5,209.5C 146.245,213.315 107.245,222.315 69.5,236.5C 69.5,177.5 69.5,118.5 69.5,59.5C 59.3194,59.8274 49.3194,59.494 39.5,58.5 Z"/></g>
<g><path style="opacity:1" fill="#f8e582" d="M 39.5,58.5 C 49.3194,59.494 59.3194,59.8274 69.5,59.5C 69.5,118.5 69.5,177.5 69.5,236.5C 69.1668,276.172 69.5001,315.839 70.5,355.5C 82.4158,362.374 94.2491,369.374 106,376.5C 110.328,343.208 114.328,309.875 118,276.5C 119.061,273.438 120.894,270.938 123.5,269C 134.621,264.793 145.621,260.293 156.5,255.5C 157.333,305.83 157.833,356.163 158,406.5C 169.779,413.637 181.612,420.637 193.5,427.5C 193.56,428.043 193.893,428.376 194.5,428.5C 195.831,378.668 195.831,329.002 194.5,279.5C 193.955,277.407 193.122,275.407 192,273.5C 188.396,270.715 185.062,267.715 182,264.5C 181.333,258.833 181.333,253.167 182,247.5C 183.665,234.844 185.165,222.178 186.5,209.5C 188.383,196.597 189.883,183.597 191,170.5C 192.433,165.402 195.6,161.902 200.5,160C 213.055,155.65 225.388,150.817 237.5,145.5C 237.333,248.167 237.5,350.834 238,453.5C 241.75,455.959 245.583,458.292 249.5,460.5C 253.701,457.9 258.034,455.566 262.5,453.5C 263.167,351.167 263.833,248.833 264.5,146.5C 275.924,150.71 287.258,155.21 298.5,160C 304,161.5 307.5,165 309,170.5C 310.665,183.155 312.165,195.822 313.5,208.5C 316.504,226.372 318.004,244.372 318,262.5C 317.333,263.833 316.667,265.167 316,266.5C 312.638,268.35 309.638,270.683 307,273.5C 305.991,275.025 305.491,276.692 305.5,278.5C 304.169,328.335 304.169,378.335 305.5,428.5C 306.107,428.376 306.44,428.043 306.5,427.5C 318.004,420.58 329.671,413.914 341.5,407.5C 343.165,357.342 344.165,307.008 344.5,256.5C 355.257,260.376 365.924,264.543 376.5,269C 378.709,270.873 380.542,273.04 382,275.5C 385.766,309.231 389.933,342.898 394.5,376.5C 406.5,369.5 418.5,362.5 430.5,355.5C 431.5,315.839 431.833,276.172 431.5,236.5C 431.5,177.5 431.5,118.5 431.5,59.5C 441.167,59.5 450.833,59.5 460.5,59.5C 460.667,163.167 460.5,266.834 460,370.5C 390.148,411.759 320.148,452.759 250,493.5C 179.355,453.012 109.021,412.012 39,370.5C 38.1675,266.333 38.3341,162.333 39.5,58.5 Z"/></g>
<g><path style="opacity:1" fill="#706c69" d="M 264.5,146.5 C 263.833,248.833 263.167,351.167 262.5,453.5C 262.5,370.833 262.5,288.167 262.5,205.5C 262.167,185.489 262.5,165.489 263.5,145.5C 264.107,145.624 264.44,145.957 264.5,146.5 Z"/></g>
<g><path style="opacity:1" fill="#212655" d="M 237.5,145.5 C 238.497,165.326 238.83,185.326 238.5,205.5C 246.5,205.5 254.5,205.5 262.5,205.5C 262.5,288.167 262.5,370.833 262.5,453.5C 258.034,455.566 253.701,457.9 249.5,460.5C 245.583,458.292 241.75,455.959 238,453.5C 237.5,350.834 237.333,248.167 237.5,145.5 Z"/></g>
<g><path style="opacity:1" fill="#212655" d="M 186.5,209.5 C 185.165,222.178 183.665,234.844 182,247.5C 181.333,253.167 181.333,258.833 182,264.5C 185.062,267.715 188.396,270.715 192,273.5C 193.122,275.407 193.955,277.407 194.5,279.5C 194.832,329.003 194.499,378.336 193.5,427.5C 181.612,420.637 169.779,413.637 158,406.5C 157.833,356.163 157.333,305.83 156.5,255.5C 145.621,260.293 134.621,264.793 123.5,269C 120.894,270.938 119.061,273.438 118,276.5C 114.328,309.875 110.328,343.208 106,376.5C 94.2491,369.374 82.4158,362.374 70.5,355.5C 69.5001,315.839 69.1668,276.172 69.5,236.5C 107.245,222.315 146.245,213.315 186.5,209.5 Z"/></g>
<g><path style="opacity:1" fill="#212554" d="M 313.5,208.5 C 353.689,214.381 393.023,223.714 431.5,236.5C 431.833,276.172 431.5,315.839 430.5,355.5C 418.5,362.5 406.5,369.5 394.5,376.5C 389.933,342.898 385.766,309.231 382,275.5C 380.542,273.04 378.709,270.873 376.5,269C 365.924,264.543 355.257,260.376 344.5,256.5C 344.44,255.957 344.107,255.624 343.5,255.5C 342.829,306.234 342.162,356.901 341.5,407.5C 329.671,413.914 318.004,420.58 306.5,427.5C 305.501,378.003 305.168,328.336 305.5,278.5C 305.491,276.692 305.991,275.025 307,273.5C 309.638,270.683 312.638,268.35 316,266.5C 316.667,265.167 317.333,263.833 318,262.5C 318.004,244.372 316.504,226.372 313.5,208.5 Z"/></g>
<g><path style="opacity:1" fill="#d9c97b" d="M 344.5,256.5 C 344.165,307.008 343.165,357.342 341.5,407.5C 342.162,356.901 342.829,306.234 343.5,255.5C 344.107,255.624 344.44,255.957 344.5,256.5 Z"/></g>
<g><path style="opacity:1" fill="#4b4a5e" d="M 194.5,279.5 C 195.831,329.002 195.831,378.668 194.5,428.5C 193.893,428.376 193.56,428.043 193.5,427.5C 194.499,378.336 194.832,329.003 194.5,279.5 Z"/></g>
<g><path style="opacity:1" fill="#a69b71" d="M 305.5,278.5 C 305.168,328.336 305.501,378.003 306.5,427.5C 306.44,428.043 306.107,428.376 305.5,428.5C 304.169,378.335 304.169,328.335 305.5,278.5 Z"/></g>
</svg>
