<?xml version="1.0" encoding="UTF-8"?>
<!DOCTYPE svg PUBLIC "-//W3C//DTD SVG 1.1//EN" "http://www.w3.org/Graphics/SVG/1.1/DTD/svg11.dtd">
<svg xmlns="http://www.w3.org/2000/svg" version="1.1" width="256px" height="256px" style="shape-rendering:geometricPrecision; text-rendering:geometricPrecision; image-rendering:optimizeQuality; fill-rule:evenodd; clip-rule:evenodd" xmlns:xlink="http://www.w3.org/1999/xlink">
<g><path style="opacity:0.963" fill="#feec87" d="M 126.5,26.5 C 127.873,26.3433 129.207,26.51 130.5,27C 141.018,35.4288 151.352,44.0954 161.5,53C 176.163,53.4999 190.83,53.6666 205.5,53.5C 205.988,56.7107 205.321,59.544 203.5,62C 178.515,70.6061 153.515,79.1061 128.5,87.5C 103.485,79.1061 78.4853,70.6061 53.5,62C 51.6787,59.544 51.012,56.7107 51.5,53.5C 66.5037,53.6666 81.5037,53.4999 96.5,53C 106.694,44.3014 116.694,35.468 126.5,26.5 Z"/></g>
<g><path style="opacity:0.983" fill="#feeb87" d="M 51.5,70.5 C 77.1371,79.1569 102.804,87.8236 128.5,96.5C 154.196,87.8236 179.863,79.1569 205.5,70.5C 205.667,109.168 205.5,147.835 205,186.5C 179.706,201.23 154.206,215.563 128.5,229.5C 102.794,215.563 77.2945,201.23 52,186.5C 51.5,147.835 51.3333,109.168 51.5,70.5 Z"/></g>
<g><path style="opacity:1" fill="#98874c" d="M 62.5,96.5 C 70.2207,98.6289 77.8874,100.962 85.5,103.5C 86.4685,115.152 86.6352,126.819 86,138.5C 82.3333,142.167 78.6667,145.833 75,149.5C 74.3333,150.5 74.3333,151.5 75,152.5C 80.1438,159.278 85.6438,165.778 91.5,172C 95.5658,171.199 99.5658,170.199 103.5,169C 105.637,175.079 107.971,181.079 110.5,187C 116.275,189.036 122.108,190.869 128,192.5C 134.263,190.801 140.429,188.801 146.5,186.5C 149.122,180.803 151.456,174.97 153.5,169C 157.314,170.563 161.314,171.563 165.5,172C 171.356,165.778 176.856,159.278 182,152.5C 182.667,151.5 182.667,150.5 182,149.5C 178.333,145.833 174.667,142.167 171,138.5C 170.467,127.148 170.801,115.815 172,104.5C 179.195,100.935 186.695,98.2687 194.5,96.5C 194.667,123.835 194.5,151.169 194,178.5C 172.249,191.626 150.416,204.626 128.5,217.5C 106.584,204.626 84.7507,191.626 63,178.5C 62.5,151.169 62.3334,123.835 62.5,96.5 Z"/></g>
<g><path style="opacity:1" fill="#99894d" d="M 146.5,131.5 C 153.623,130.479 158.79,133.146 162,139.5C 163.104,145.186 161.271,149.686 156.5,153C 150.077,155.9 144.91,154.4 141,148.5C 138.269,141.307 140.102,135.64 146.5,131.5 Z"/></g>
<g><path style="opacity:1" fill="#99894d" d="M 100.5,132.5 C 111.875,131.377 117.042,136.377 116,147.5C 112.677,153.908 107.511,156.075 100.5,154C 94.9539,150.268 93.1206,145.101 95,138.5C 96.3597,135.977 98.193,133.977 100.5,132.5 Z"/></g>
<g><path style="opacity:1" fill="#9a8a4e" d="M 127.5,156.5 C 131.077,158.922 133.743,162.255 135.5,166.5C 133.338,170.29 131.005,170.29 128.5,166.5C 125.995,170.29 123.662,170.29 121.5,166.5C 123.511,163.139 125.511,159.806 127.5,156.5 Z"/></g>
</svg>
