<?xml version="1.0" encoding="UTF-8"?>
<!DOCTYPE svg PUBLIC "-//W3C//DTD SVG 1.1//EN" "http://www.w3.org/Graphics/SVG/1.1/DTD/svg11.dtd">
<svg xmlns="http://www.w3.org/2000/svg" version="1.1" width="256px" height="256px" style="shape-rendering:geometricPrecision; text-rendering:geometricPrecision; image-rendering:optimizeQuality; fill-rule:evenodd; clip-rule:evenodd" xmlns:xlink="http://www.w3.org/1999/xlink">
<g><path style="opacity:0.963" fill="#feec87" d="M 126.5,26.5 C 127.873,26.3433 129.207,26.51 130.5,27C 141.018,35.4288 151.352,44.0954 161.5,53C 176.163,53.4999 190.83,53.6666 205.5,53.5C 205.988,56.7107 205.321,59.544 203.5,62C 178.515,70.6061 153.515,79.1061 128.5,87.5C 103.485,79.1061 78.4853,70.6061 53.5,62C 51.6787,59.544 51.012,56.7107 51.5,53.5C 66.5037,53.6666 81.5037,53.4999 96.5,53C 106.694,44.3014 116.694,35.468 126.5,26.5 Z"/></g>
<g><path style="opacity:0.971" fill="#feeb87" d="M 51.5,70.5 C 77.1371,79.1569 102.804,87.8236 128.5,96.5C 154.196,87.8236 179.863,79.1569 205.5,70.5C 205.667,109.168 205.5,147.835 205,186.5C 179.706,201.23 154.206,215.563 128.5,229.5C 102.794,215.563 77.2945,201.23 52,186.5C 51.5,147.835 51.3333,109.168 51.5,70.5 Z"/></g>
<g><path style="opacity:1" fill="#97874c" d="M 62.5,96.5 C 84.6034,103.757 106.603,111.424 128.5,119.5C 150.329,111.247 172.329,103.581 194.5,96.5C 194.667,123.835 194.5,151.169 194,178.5C 172.249,191.626 150.416,204.626 128.5,217.5C 106.584,204.626 84.7507,191.626 63,178.5C 62.5,151.169 62.3334,123.835 62.5,96.5 Z"/></g>
<g><path style="opacity:1" fill="#feeb87" d="M 99.5,136.5 C 107.018,141.099 114.018,146.432 120.5,152.5C 114.146,158.183 107.48,163.516 100.5,168.5C 93.9414,163.394 87.608,158.061 81.5,152.5C 87.8173,147.516 93.8173,142.182 99.5,136.5 Z"/></g>
<g><path style="opacity:1" fill="#feeb87" d="M 153.5,136.5 C 161.018,141.099 168.018,146.432 174.5,152.5C 168.146,158.183 161.48,163.516 154.5,168.5C 147.941,163.394 141.608,158.061 135.5,152.5C 141.817,147.516 147.817,142.182 153.5,136.5 Z"/></g>
</svg>
