<?xml version="1.0" encoding="UTF-8"?>
<!DOCTYPE svg PUBLIC "-//W3C//DTD SVG 1.1//EN" "http://www.w3.org/Graphics/SVG/1.1/DTD/svg11.dtd">
<svg xmlns="http://www.w3.org/2000/svg" version="1.1" width="500px" height="500px" style="shape-rendering:geometricPrecision; text-rendering:geometricPrecision; image-rendering:optimizeQuality; fill-rule:evenodd; clip-rule:evenodd" xmlns:xlink="http://www.w3.org/1999/xlink">
<g><path style="opacity:1" fill="#f7e582" d="M 299.5,23.5 C 302.316,23.5442 304.649,24.5442 306.5,26.5C 305.035,42.4792 303.701,58.4792 302.5,74.5C 302.337,76.8568 302.503,79.1902 303,81.5C 307.633,87.1349 312.633,92.4682 318,97.5C 318.667,98.5 318.667,99.5 318,100.5C 310.833,109 303.667,117.5 296.5,126C 290.983,124.221 285.316,122.721 279.5,121.5C 278.452,126.488 277.286,131.488 276,136.5C 275.346,139.008 274.179,141.174 272.5,143C 264.772,145.577 256.938,147.743 249,149.5C 241.323,147.941 233.823,145.774 226.5,143C 223.833,135.667 221.167,128.333 218.5,121C 213.472,122.088 208.638,123.922 204,126.5C 195.937,117.384 188.104,108.051 180.5,98.5C 185.818,92.6813 191.318,87.0146 197,81.5C 197.796,78.9615 197.629,76.6282 196.5,74.5C 195.2,58.176 194.367,41.8427 194,25.5C 194.671,24.7476 195.504,24.4142 196.5,24.5C 214.016,19.2729 231.516,13.9396 249,8.5C 251.034,8.3536 252.701,9.02026 254,10.5C 255.147,9.54195 256.147,9.87528 257,11.5C 258.147,10.5419 259.147,10.8753 260,12.5C 261.147,11.5419 262.147,11.8753 263,13.5C 264.147,12.5419 265.147,12.8753 266,14.5C 267.147,13.5419 268.147,13.8753 269,15.5C 270.147,14.5419 271.147,14.8753 272,16.5C 273.147,15.5419 274.147,15.8753 275,17.5C 276.147,16.5419 277.147,16.8753 278,18.5C 279.147,17.5419 280.147,17.8753 281,19.5C 282.147,18.5419 283.147,18.8753 284,20.5C 285.147,19.5419 286.147,19.8753 287,21.5C 288.147,20.5419 289.147,20.8753 290,22.5C 291.147,21.5419 292.147,21.8753 293,23.5C 294.147,22.5419 295.147,22.8753 296,24.5C 297.011,23.6634 298.178,23.33 299.5,23.5 Z"/></g>
<g><path style="opacity:0.871" fill="#b8ab60" d="M 299.5,23.5 C 298.178,23.33 297.011,23.6634 296,24.5C 295.147,22.8753 294.147,22.5419 293,23.5C 292.147,21.8753 291.147,21.5419 290,22.5C 289.147,20.8753 288.147,20.5419 287,21.5C 286.147,19.8753 285.147,19.5419 284,20.5C 283.147,18.8753 282.147,18.5419 281,19.5C 280.147,17.8753 279.147,17.5419 278,18.5C 277.147,16.8753 276.147,16.5419 275,17.5C 274.147,15.8753 273.147,15.5419 272,16.5C 271.147,14.8753 270.147,14.5419 269,15.5C 268.147,13.8753 267.147,13.5419 266,14.5C 265.147,12.8753 264.147,12.5419 263,13.5C 262.147,11.8753 261.147,11.5419 260,12.5C 259.147,10.8753 258.147,10.5419 257,11.5C 256.147,9.87528 255.147,9.54195 254,10.5C 252.701,9.02026 251.034,8.3536 249,8.5C 231.516,13.9396 214.016,19.2729 196.5,24.5C 213.926,18.1352 231.592,12.1352 249.5,6.5C 266.408,11.8018 283.074,17.4685 299.5,23.5 Z"/></g>
<g><path style="opacity:0.173" fill="#272411" d="M 174.5,35.5 C 128.664,35.1679 82.997,35.5012 37.5,36.5C 36.9569,36.44 36.6236,36.1067 36.5,35.5C 82.6649,34.1691 128.665,34.1691 174.5,35.5 Z"/></g>
<g><path style="opacity:0.173" fill="#282512" d="M 324.5,35.5 C 370.668,34.169 417.002,34.169 463.5,35.5C 463.376,36.1067 463.043,36.44 462.5,36.5C 416.67,35.5012 370.67,35.1679 324.5,35.5 Z"/></g>
<g><path style="opacity:1" fill="#f8e582" d="M 174.5,35.5 C 175.587,43.4542 176.253,51.4542 176.5,59.5C 140.515,61.4936 104.182,62.1603 67.5,61.5C 56.9102,53.9134 46.9102,45.5801 37.5,36.5C 82.997,35.5012 128.664,35.1679 174.5,35.5 Z"/></g>
<g><path style="opacity:1" fill="#f1de7e" d="M 324.5,35.5 C 370.67,35.1679 416.67,35.5012 462.5,36.5C 452.331,45.1657 441.998,53.6657 431.5,62C 395.168,62.5 358.835,62.6667 322.5,62.5C 322.968,53.4842 323.635,44.4842 324.5,35.5 Z"/></g>
<g><path style="opacity:0.012" fill="#262310" d="M 176.5,59.5 C 177.404,60.209 177.737,61.209 177.5,62.5C 140.663,62.8318 103.996,62.4985 67.5,61.5C 104.182,62.1603 140.515,61.4936 176.5,59.5 Z"/></g>
<g><path style="opacity:0.667" fill="#ada164" d="M 67.5,75.5 C 67.5,75.1667 67.5,74.8333 67.5,74.5C 101.167,74.5 134.833,74.5 168.5,74.5C 168.167,75.5 167.5,76.1667 166.5,76.5C 133.671,75.5017 100.671,75.1684 67.5,75.5 Z"/></g>
<g><path style="opacity:0.471" fill="#6a623a" d="M 67.5,74.5 C 67.5,74.8333 67.5,75.1667 67.5,75.5C 67.1672,179.335 67.5005,283.001 68.5,386.5C 68.5,386.833 68.5,387.167 68.5,387.5C 67.1667,335.671 66.5,283.504 66.5,231C 66.5,178.666 66.8333,126.499 67.5,74.5 Z"/></g>
<g><path style="opacity:1" fill="#fef38b" d="M 67.5,75.5 C 100.671,75.1684 133.671,75.5017 166.5,76.5C 166.5,77.1667 166.167,77.5 165.5,77.5C 133.24,76.5077 100.907,76.1744 68.5,76.5C 68.5,179.833 68.5,283.167 68.5,386.5C 67.5005,283.001 67.1672,179.335 67.5,75.5 Z"/></g>
<g><path style="opacity:1" fill="#f7e582" d="M 165.5,77.5 C 161.657,81.5102 157.99,85.6768 154.5,90C 156.684,93.0116 159.017,95.8449 161.5,98.5C 138.673,99.4975 115.673,99.8308 92.5,99.5C 92.1673,190.002 92.5006,280.335 93.5,370.5C 93.8333,370.5 94.1667,370.5 94.5,370.5C 116.634,383.737 138.967,396.737 161.5,409.5C 190.842,426.653 220.342,443.653 250,460.5C 279.46,443.859 308.626,426.859 337.5,409.5C 360.167,396.5 382.833,383.5 405.5,370.5C 406.499,280.335 406.833,190.002 406.5,99.5C 383.5,99.5 360.5,99.5 337.5,99.5C 340.196,96.6124 342.529,93.4458 344.5,90C 340.676,85.3431 336.676,80.8431 332.5,76.5C 365.167,76.5 397.833,76.5 430.5,76.5C 430.167,180.001 430.501,283.335 431.5,386.5C 431.5,386.833 431.5,387.167 431.5,387.5C 370.827,422.51 310.16,457.51 249.5,492.5C 188.978,457.742 128.644,422.742 68.5,387.5C 68.5,387.167 68.5,386.833 68.5,386.5C 68.5,283.167 68.5,179.833 68.5,76.5C 100.907,76.1744 133.24,76.5077 165.5,77.5 Z"/></g>
<g><path style="opacity:1" fill="#212655" d="M 168.5,74.5 C 177.833,74.5 187.167,74.5 196.5,74.5C 197.629,76.6282 197.796,78.9615 197,81.5C 191.318,87.0146 185.818,92.6813 180.5,98.5C 188.104,108.051 195.937,117.384 204,126.5C 208.638,123.922 213.472,122.088 218.5,121C 221.167,128.333 223.833,135.667 226.5,143C 233.823,145.774 241.323,147.941 249,149.5C 256.938,147.743 264.772,145.577 272.5,143C 274.179,141.174 275.346,139.008 276,136.5C 277.286,131.488 278.452,126.488 279.5,121.5C 285.316,122.721 290.983,124.221 296.5,126C 303.667,117.5 310.833,109 318,100.5C 318.667,99.5 318.667,98.5 318,97.5C 312.633,92.4682 307.633,87.1349 303,81.5C 302.503,79.1902 302.337,76.8568 302.5,74.5C 312.167,74.5 321.833,74.5 331.5,74.5C 331.328,75.4916 331.662,76.1583 332.5,76.5C 336.676,80.8431 340.676,85.3431 344.5,90C 342.529,93.4458 340.196,96.6124 337.5,99.5C 337.5,99.8333 337.5,100.167 337.5,100.5C 337.5,100.833 337.5,101.167 337.5,101.5C 337.167,169.669 337.501,237.669 338.5,305.5C 321.534,322.658 301.2,334.158 277.5,340C 261.506,341.698 245.506,343.365 229.5,345C 205.751,350.193 187.751,363.193 175.5,384C 176.736,386.248 178.403,386.748 180.5,385.5C 192.57,367.971 209.236,357.471 230.5,354C 271.138,356.398 306.804,344.565 337.5,318.5C 337.5,321.5 337.5,324.5 337.5,327.5C 316.061,345.04 291.394,355.206 263.5,358C 253.833,358.333 244.167,358.667 234.5,359C 228.232,360.148 222.232,361.981 216.5,364.5C 260.789,374.345 301.122,365.678 337.5,338.5C 337.5,362.167 337.5,385.833 337.5,409.5C 308.626,426.859 279.46,443.859 250,460.5C 220.342,443.653 190.842,426.653 161.5,409.5C 161.169,385.994 161.502,362.661 162.5,339.5C 171.646,345.912 181.313,351.578 191.5,356.5C 194.473,354.853 197.14,352.853 199.5,350.5C 185.481,344.835 172.814,337.168 161.5,327.5C 161.194,324.615 161.527,321.948 162.5,319.5C 175.006,330.262 189.006,338.762 204.5,345C 206.833,345.667 209.167,345.667 211.5,345C 215.09,343.47 218.757,342.136 222.5,341C 198.783,335.15 178.449,323.65 161.5,306.5C 161.5,238.167 161.5,169.833 161.5,101.5C 161.5,101.167 161.5,100.833 161.5,100.5C 162.833,99.8333 162.833,99.1667 161.5,98.5C 159.017,95.8449 156.684,93.0116 154.5,90C 157.99,85.6768 161.657,81.5102 165.5,77.5C 166.167,77.5 166.5,77.1667 166.5,76.5C 167.5,76.1667 168.167,75.5 168.5,74.5 Z"/></g>
<g><path style="opacity:1" fill="#fff289" d="M 332.5,76.5 C 365.329,75.5017 398.329,75.1684 431.5,75.5C 431.5,179.167 431.5,282.833 431.5,386.5C 430.501,283.335 430.167,180.001 430.5,76.5C 397.833,76.5 365.167,76.5 332.5,76.5 Z"/></g>
<g><path style="opacity:0.737" fill="#b1a464" d="M 331.5,74.5 C 365.167,74.5 398.833,74.5 432.5,74.5C 432.833,179.001 432.499,283.335 431.5,387.5C 431.5,387.167 431.5,386.833 431.5,386.5C 431.5,282.833 431.5,179.167 431.5,75.5C 398.329,75.1684 365.329,75.5017 332.5,76.5C 331.662,76.1583 331.328,75.4916 331.5,74.5 Z"/></g>
<g><path style="opacity:1" fill="#242755" d="M 215.5,75.5 C 230.337,75.8368 235.837,83.1701 232,97.5C 223.558,106.689 215.224,106.689 207,97.5C 202.911,87.3627 205.744,80.0294 215.5,75.5 Z"/></g>
<g><path style="opacity:1" fill="#252855" d="M 276.5,75.5 C 288.863,76.0236 294.696,82.3569 294,94.5C 288.927,104.191 281.427,106.691 271.5,102C 262.229,90.9571 263.896,82.1237 276.5,75.5 Z"/></g>
<g><path style="opacity:1" fill="#7a7582" d="M 161.5,98.5 C 162.833,99.1667 162.833,99.8333 161.5,100.5C 138.833,100.5 116.167,100.5 93.5,100.5C 93.5,190.5 93.5,280.5 93.5,370.5C 92.5006,280.335 92.1673,190.002 92.5,99.5C 115.673,99.8308 138.673,99.4975 161.5,98.5 Z"/></g>
<g><path style="opacity:1" fill="#293282" d="M 161.5,100.5 C 161.5,100.833 161.5,101.167 161.5,101.5C 139.167,101.5 116.833,101.5 94.5,101.5C 94.5048,191.472 94.5048,281.138 94.5,370.5C 94.1667,370.5 93.8333,370.5 93.5,370.5C 93.5,280.5 93.5,190.5 93.5,100.5C 116.167,100.5 138.833,100.5 161.5,100.5 Z"/></g>
<g><path style="opacity:1" fill="#363d81" d="M 161.5,101.5 C 161.5,169.833 161.5,238.167 161.5,306.5C 148.736,294.984 138.903,281.318 132,265.5C 128.323,261.275 124.489,257.942 120.5,255.5C 129.324,280.306 143.324,301.64 162.5,319.5C 161.527,321.948 161.194,324.615 161.5,327.5C 144.556,315.052 131.39,299.386 122,280.5C 117.989,275.946 113.823,272.279 109.5,269.5C 121.143,297.466 138.81,320.799 162.5,339.5C 161.502,362.661 161.169,385.994 161.5,409.5C 138.967,396.737 116.634,383.737 94.5,370.5C 94.5048,281.138 94.5048,191.472 94.5,101.5C 116.833,101.5 139.167,101.5 161.5,101.5 Z"/></g>
<g><path style="opacity:1" fill="#363d81" d="M 337.5,101.5 C 359.833,101.5 382.167,101.5 404.5,101.5C 404.167,191.002 404.501,280.335 405.5,369.5C 405.5,369.833 405.5,370.167 405.5,370.5C 382.833,383.5 360.167,396.5 337.5,409.5C 337.5,385.833 337.5,362.167 337.5,338.5C 361.536,319.739 378.703,296.072 389,267.5C 385.806,271.605 382.14,275.272 378,278.5C 367.972,297.695 354.472,314.028 337.5,327.5C 337.5,324.5 337.5,321.5 337.5,318.5C 355.572,301.379 368.905,281.046 377.5,257.5C 376.998,256.479 376.332,256.312 375.5,257C 372.667,259.833 369.833,262.667 367,265.5C 359.966,280.684 350.466,294.017 338.5,305.5C 337.501,237.669 337.167,169.669 337.5,101.5 Z"/></g>
<g><path style="opacity:1" fill="#2a3482" d="M 337.5,101.5 C 337.5,101.167 337.5,100.833 337.5,100.5C 360.167,100.5 382.833,100.5 405.5,100.5C 405.5,190.167 405.5,279.833 405.5,369.5C 404.501,280.335 404.167,191.002 404.5,101.5C 382.167,101.5 359.833,101.5 337.5,101.5 Z"/></g>
<g><path style="opacity:1" fill="#6f6e82" d="M 337.5,100.5 C 337.5,100.167 337.5,99.8333 337.5,99.5C 360.5,99.5 383.5,99.5 406.5,99.5C 406.833,190.002 406.499,280.335 405.5,370.5C 405.5,370.167 405.5,369.833 405.5,369.5C 405.5,279.833 405.5,190.167 405.5,100.5C 382.833,100.5 360.167,100.5 337.5,100.5 Z"/></g>
<g><path style="opacity:1" fill="#242755" d="M 248.5,105.5 C 249.496,105.414 250.329,105.748 251,106.5C 253.698,110.367 256.198,114.367 258.5,118.5C 257.564,119.974 256.23,120.974 254.5,121.5C 252.833,120.167 251.167,118.833 249.5,117.5C 247.833,118.833 246.167,120.167 244.5,121.5C 242.054,120.573 241.221,118.906 242,116.5C 244.421,112.929 246.587,109.262 248.5,105.5 Z"/></g>
<g><path style="opacity:1" fill="#f7e582" d="M 182.5,227.5 C 199.167,227.5 215.833,227.5 232.5,227.5C 232.5,226.167 232.5,224.833 232.5,223.5C 237.308,206.909 242.808,190.576 249,174.5C 254.932,191.463 260.765,208.463 266.5,225.5C 284.209,226.055 301.876,226.888 319.5,228C 305.481,238.692 291.481,249.358 277.5,260C 283.306,277.075 288.472,294.241 293,311.5C 278.492,300.915 263.825,290.582 249,280.5C 234.253,290.459 219.753,300.793 205.5,311.5C 204.794,309.234 204.961,306.901 206,304.5C 210.636,289.594 215.469,274.76 220.5,260C 206.661,249.333 192.661,238.833 178.5,228.5C 179.689,227.571 181.022,227.238 182.5,227.5 Z"/></g>
<g><path style="opacity:1" fill="#c3b677" d="M 232.5,223.5 C 232.5,224.833 232.5,226.167 232.5,227.5C 215.833,227.5 199.167,227.5 182.5,227.5C 198.658,226.504 214.991,226.17 231.5,226.5C 231.263,225.209 231.596,224.209 232.5,223.5 Z"/></g>
<g><path style="opacity:1" fill="#f4e282" d="M 161.5,306.5 C 178.449,323.65 198.783,335.15 222.5,341C 218.757,342.136 215.09,343.47 211.5,345C 209.167,345.667 206.833,345.667 204.5,345C 189.006,338.762 175.006,330.262 162.5,319.5C 143.324,301.64 129.324,280.306 120.5,255.5C 124.489,257.942 128.323,261.275 132,265.5C 138.903,281.318 148.736,294.984 161.5,306.5 Z"/></g>
<g><path style="opacity:1" fill="#f3e282" d="M 337.5,318.5 C 306.804,344.565 271.138,356.398 230.5,354C 209.236,357.471 192.57,367.971 180.5,385.5C 178.403,386.748 176.736,386.248 175.5,384C 187.751,363.193 205.751,350.193 229.5,345C 245.506,343.365 261.506,341.698 277.5,340C 301.2,334.158 321.534,322.658 338.5,305.5C 350.466,294.017 359.966,280.684 367,265.5C 369.833,262.667 372.667,259.833 375.5,257C 376.332,256.312 376.998,256.479 377.5,257.5C 368.905,281.046 355.572,301.379 337.5,318.5 Z"/></g>
<g><path style="opacity:1" fill="#f3e282" d="M 161.5,327.5 C 172.814,337.168 185.481,344.835 199.5,350.5C 197.14,352.853 194.473,354.853 191.5,356.5C 181.313,351.578 171.646,345.912 162.5,339.5C 138.81,320.799 121.143,297.466 109.5,269.5C 113.823,272.279 117.989,275.946 122,280.5C 131.39,299.386 144.556,315.052 161.5,327.5 Z"/></g>
<g><path style="opacity:1" fill="#f3e182" d="M 337.5,338.5 C 301.122,365.678 260.789,374.345 216.5,364.5C 222.232,361.981 228.232,360.148 234.5,359C 244.167,358.667 253.833,358.333 263.5,358C 291.394,355.206 316.061,345.04 337.5,327.5C 354.472,314.028 367.972,297.695 378,278.5C 382.14,275.272 385.806,271.605 389,267.5C 378.703,296.072 361.536,319.739 337.5,338.5 Z"/></g>
<g><path style="opacity:1" fill="#efdf81" d="M 304.5,363.5 C 305.552,363.351 306.552,363.517 307.5,364C 313.593,370.09 318.927,376.756 323.5,384C 322.328,386.055 320.661,386.722 318.5,386C 313.708,378.874 307.875,372.707 301,367.5C 300.333,366.833 300.333,366.167 301,365.5C 302.302,364.915 303.469,364.249 304.5,363.5 Z"/></g>
</svg>
