<?xml version="1.0" encoding="UTF-8"?>
<!DOCTYPE svg PUBLIC "-//W3C//DTD SVG 1.1//EN" "http://www.w3.org/Graphics/SVG/1.1/DTD/svg11.dtd">
<svg xmlns="http://www.w3.org/2000/svg" version="1.1" width="256px" height="256px" style="shape-rendering:geometricPrecision; text-rendering:geometricPrecision; image-rendering:optimizeQuality; fill-rule:evenodd; clip-rule:evenodd" xmlns:xlink="http://www.w3.org/1999/xlink">
<g><path style="opacity:0.974" fill="#fdeb88" d="M 159.5,53.5 C 153.822,55.682 149.155,59.182 145.5,64C 149.106,74.1438 152.272,84.3105 155,94.5C 146.56,87.5509 137.727,81.2176 128.5,75.5C 119.273,81.2176 110.44,87.5509 102,94.5C 104.728,84.3105 107.894,74.1438 111.5,64C 107.845,59.182 103.178,55.682 97.5,53.5C 93.2366,50.0191 88.9032,46.5191 84.5,43C 95.495,42.5002 106.495,42.3335 117.5,42.5C 120.575,31.9415 124.241,21.6081 128.5,11.5C 132.759,21.6081 136.425,31.9415 139.5,42.5C 150.505,42.3335 161.505,42.5002 172.5,43C 168.097,46.5191 163.763,50.0191 159.5,53.5 Z"/></g>
<g><path style="opacity:0.989" fill="#fdea88" d="M 79.5,53.5 C 84.3149,57.4698 89.3149,61.3031 94.5,65C 84.172,65.4998 73.8387,65.6665 63.5,65.5C 63.3334,91.8354 63.5,118.169 64,144.5C 75.0907,126.106 91.2573,114.606 112.5,110C 141.914,105.36 166.747,113.86 187,135.5C 188.752,138.672 190.752,141.672 193,144.5C 193.5,118.169 193.667,91.8354 193.5,65.5C 183.161,65.6665 172.828,65.4998 162.5,65C 167.421,61.3869 172.088,57.5536 176.5,53.5C 186.167,53.5 195.833,53.5 205.5,53.5C 205.667,97.8346 205.5,142.168 205,186.5C 179.83,201.522 154.33,215.855 128.5,229.5C 102.67,215.855 77.1698,201.522 52,186.5C 51.5,142.168 51.3333,97.8346 51.5,53.5C 60.8333,53.5 70.1667,53.5 79.5,53.5 Z"/></g>
<g><path style="opacity:1" fill="#698792" d="M 79.5,53.5 C 85.5,53.5 91.5,53.5 97.5,53.5C 103.178,55.682 107.845,59.182 111.5,64C 107.894,74.1438 104.728,84.3105 102,94.5C 110.44,87.5509 119.273,81.2176 128.5,75.5C 137.727,81.2176 146.56,87.5509 155,94.5C 152.272,84.3105 149.106,74.1438 145.5,64C 149.155,59.182 153.822,55.682 159.5,53.5C 165.167,53.5 170.833,53.5 176.5,53.5C 172.088,57.5536 167.421,61.3869 162.5,65C 172.828,65.4998 183.161,65.6665 193.5,65.5C 193.667,91.8354 193.5,118.169 193,144.5C 190.752,141.672 188.752,138.672 187,135.5C 166.747,113.86 141.914,105.36 112.5,110C 91.2573,114.606 75.0907,126.106 64,144.5C 63.5,118.169 63.3334,91.8354 63.5,65.5C 73.8387,65.6665 84.172,65.4998 94.5,65C 89.3149,61.3031 84.3149,57.4698 79.5,53.5 Z"/></g>
<g><path style="opacity:1" fill="#6c8892" d="M 116.5,119.5 C 136.811,117.992 155.144,123.158 171.5,135C 184.426,146.685 191.592,161.185 193,178.5C 187.667,181.833 182.333,185.167 177,188.5C 174.439,152.772 155.272,133.439 119.5,130.5C 89.002,133.495 71.1687,150.162 66,180.5C 64.5134,179.845 63.3467,178.845 62.5,177.5C 66.3223,156.655 76.989,140.489 94.5,129C 101.584,124.95 108.917,121.784 116.5,119.5 Z"/></g>
<g><path style="opacity:1" fill="#6b8892" d="M 127.5,135.5 C 154.684,139.008 168.351,154.341 168.5,181.5C 166.5,179.833 164.5,178.167 162.5,176.5C 160.21,179.494 158.376,182.827 157,186.5C 153.47,179.819 147.97,176.985 140.5,178C 142.332,178.748 143.999,179.748 145.5,181C 142.984,183.683 140.317,186.183 137.5,188.5C 134.44,185.393 131.606,182.059 129,178.5C 129.799,182.441 131.466,186.107 134,189.5C 135.699,190.406 137.533,190.739 139.5,190.5C 136.428,199.31 132.261,207.644 127,215.5C 122.916,212.874 118.75,210.374 114.5,208C 113.375,199.542 108.542,195.376 100,195.5C 93.5173,192.708 91.8506,188.041 95,181.5C 97.276,175.901 101.109,171.901 106.5,169.5C 109.79,169.637 112.123,171.137 113.5,174C 118.155,174.499 122.821,174.666 127.5,174.5C 127.703,172.61 127.037,171.11 125.5,170C 121.633,167.302 117.633,164.802 113.5,162.5C 109.977,164.886 106.31,166.886 102.5,168.5C 102.343,167.127 102.51,165.793 103,164.5C 107.329,158.489 112.996,154.489 120,152.5C 121.25,149.923 121.584,147.257 121,144.5C 120.107,143.289 119.274,143.289 118.5,144.5C 117.985,146.225 117.318,147.892 116.5,149.5C 115.386,148.277 115.219,146.944 116,145.5C 117.673,142.999 119.507,140.666 121.5,138.5C 122.48,139.981 123.647,141.315 125,142.5C 125.991,140.192 126.824,137.859 127.5,135.5 Z"/></g>
<g><path style="opacity:1" fill="#688792" d="M 90.5,142.5 C 91.2389,142.369 91.9056,142.536 92.5,143C 88.3333,147.167 84.1667,151.333 80,155.5C 79.3333,154.833 79.3333,154.167 80,153.5C 83.7039,149.964 87.2039,146.298 90.5,142.5 Z"/></g>
</svg>
