<svg xmlns="http://www.w3.org/2000/svg" width="211.483" height="211.483" viewBox="0 0 55.955 55.955" xmlns:v="https://vecta.io/nano"><circle cx="27.977" cy="27.978" r="27.977" fill="#fff"/><path d="M23.546 8.602l9.936 9.98-.022 5.357 2.734-2.712 3.757 11.981 2.979 2.334-5.69 2.112 2.201 5.668-5.979-1.423-1.311 6.002-4.179-4.334-4.157 4.379-1.334-5.957-5.957 1.245 2.201-5.579-5.735-2.312 4.268-3.112.022-2.156 6.268-10.403z"/><path d="M27.969 22.761L23.237 31.5h.019c-.362.724-.552 1.521-.555 2.331 0 1.394.554 2.731 1.54 3.717s2.323 1.54 3.717 1.54 2.731-.554 3.717-1.54 1.54-2.323 1.54-3.717c-.003-.798-.187-1.585-.539-2.301h.008z" fill="#fff"/></svg>