<svg xmlns="http://www.w3.org/2000/svg" xmlns:xlink="http://www.w3.org/1999/xlink" width="211.589" height="211.589" viewBox="0 0 55.983 55.983" xmlns:v="https://vecta.io/nano"><circle cx="27.992" cy="27.991" r="27.992" fill="#fff"/><path d="M24.762 30.952v-2.153c-3.327 0-6.311-.017-9.717-.017-5.646 0-5.795-8.518 0-8.518-.028-2.721 2-5.281 5.411-4.653.682-1.998 1.589-3.979 4.464-3.979 1.014 0 2.125.352 3.072 1.483.844-1.131 1.752-1.516 3.437-1.516 1.877 0 4.123 2.029 4.123 3.714 2.471 0 4.821 1.671 4.821 4.874 6.454.018 6.472 8.603-.538 8.613v2.153c7.589.031 7.536-5.325 7.567-6.395-.069-1.714-.516-5.248-5.032-6.375-.261-2.029-2.325-4.339-5.244-5.028-1.081-2.171-2.144-2.884-3.751-3.435-1.938-.665-3.945-.306-5.383.441-.947-.621-2.117-.737-3.23-.737-3.162 0-5.24 1.989-5.717 3.711-1.563.095-2.718.614-3.692 1.344-1.268.95-2.19 2.506-2.308 3.733-1.218.211-4.422 2.125-4.422 6.136 0 4.493 3.422 6.603 5.584 6.604l10.555.003m5.921-6.46l.037 3.442-2.903-1.765-1.172 2.091 2.964 1.635-2.964 1.595 1.191 2.086 2.853-1.664-.007 3.346h2.422l-.058-3.37 2.955 1.708 1.152-1.984-2.992-1.716 2.948-1.814-1.085-1.873-2.977 1.735.058-3.452h-2.422m-8.25 10.766l-.001 3.391-2.857-1.67-1.155 1.906 2.89 1.711-2.865 1.794 1.119 1.904 2.871-1.724.011 3.453h2.317l-.047-3.446 3.094 1.727 1.134-1.904-3.092-1.779 3.087-1.73-1.096-1.904-3.14 1.653.058-3.382z" fill="#080808"/></svg>
