<svg xmlns="http://www.w3.org/2000/svg" xmlns:xlink="http://www.w3.org/1999/xlink" width="211.654" height="211.654" viewBox="0 0 56 56" xmlns:v="https://vecta.io/nano"><circle cx="28" cy="28" r="28" fill="#fff"/><path d="M26.923 9.147v6.984l-4.064-4.06-1.517 1.527 5.581 5.575v6.959l-6.269-3.619-1.705-7.384-2.097.484 1.253 5.429-5.892-3.402-1.076 1.864 6.081 3.511-5.567 1.285.484 2.097 7.554-1.744-.056-.244 6.214 3.587-6.154 3.553.076-.329-7.554-1.744-.484 2.097 5.658 1.306-6.252 3.61 1.076 1.863 5.754-3.322-1.235 5.349 2.097.484 1.687-7.304 6.406-3.699v6.94l-5.62 5.614 1.517 1.527 4.103-4.099v7.003h2.152v-7.023l4.083 4.079 1.517-1.527-5.6-5.594v-6.919l6.269 3.619 1.704 7.384 2.097-.484-1.253-5.429 5.892 3.402 1.076-1.863-6.192-3.575 5.637-1.301-.484-2.097-7.554 1.744.071.31-6.189-3.573 6.168-3.561-.05.218 7.554 1.744.484-2.097-5.539-1.279 6.093-3.518-1.076-1.864-5.948 3.434 1.27-5.501-2.097-.484-1.721 7.456-6.212 3.587v-6.979l5.64-5.634-1.517-1.527-4.123 4.119V9.147z"/></svg>
