<svg xmlns="http://www.w3.org/2000/svg" xmlns:xlink="http://www.w3.org/1999/xlink" width="211.654" height="211.654" viewBox="0 0 56 56" xmlns:v="https://vecta.io/nano"><circle cx="28" cy="28" r="28" fill="#fff"/><path d="M22.774 38.121c-3.984 2.51-1.774 5.315 1.188 6.302-3.42 4.068 2.038 5.954 4.307 5.954 2.45 0 7.63-1.935 4.309-5.954C36.786 42.58 36.546 39.607 34 38c1.625-.51 4.128-1.762 4.06-3.561-.081-2.107-3.553-3.789-5.06-3.796l-1.778 1.692s4.454.377 4.447 2.036c-.007 1.782-4.913 2.142-7.519 2.137-2.525-.005-7.15-.343-7.28-2.098-.114-1.538 4.13-2.083 4.13-2.083l-2.2-1.66c-1.43.273-4.366 2.013-4.308 3.963.055 1.84 3.111 2.97 4.281 3.49m10.785 2.767c0 1.767-3.559 2.161-5.307 2.169-1.9.008-5.294-.386-5.294-2.111 0-1.708 3.344-2.12 5.226-2.135 1.92-.016 5.367.675 5.367 2.089m-5.281 4.362c1.207.003 3.181.406 3.173 1.588-.008 1.167-1.986 1.527-3.153 1.523-1.177-.003-3.167-.377-3.17-1.554-.002-1.171 1.954-1.561 3.15-1.558z" fill="#070707"/><path d="M26.082 5.386l.084 7.593-7.621 7.564.028 4.303 9.561 7.368 8.717-8.493-2.222-9.645-2.025 4.134-.084-6.552zm3.262 10.574v6.664l3.29 1.097-4.612 4.668-6.299-4.724z"/></svg>
