<svg xmlns="http://www.w3.org/2000/svg" xmlns:xlink="http://www.w3.org/1999/xlink" width="211.654" height="211.654" viewBox="0 0 56 56" xmlns:v="https://vecta.io/nano"><circle cx="28" cy="28" r="28" fill="#fff"/><path d="M28.002 8.49c-4.788 0-8.669 8.724-8.669 19.486s3.881 19.486 8.669 19.486 8.669-8.724 8.669-19.486S32.79 8.49 28.002 8.49zm0 2.222c1.73 0 3.389 1.817 4.612 5.051s1.91 7.62 1.91 12.194-.687 8.96-1.91 12.193-2.882 5.051-4.612 5.05-3.389-1.817-4.612-5.05-1.91-7.62-1.91-12.193.687-8.96 1.91-12.194 2.882-5.051 4.612-5.051z"/><path d="M44.877 18.233c-2.394-4.146-11.89-3.146-21.21 2.235S8.733 33.572 11.126 37.719s11.89 3.146 21.21-2.235 14.935-13.104 12.541-17.251zm-1.924 1.111c.865 1.498.121 3.843-2.068 6.519s-5.644 5.464-9.605 7.751-8.103 3.885-11.515 4.442-5.815.029-6.68-1.469-.121-3.843 2.068-6.519 5.644-5.464 9.605-7.751 8.103-3.885 11.515-4.443 5.815-.029 6.68 1.469z"/><path d="M44.877 37.719c2.394-4.147-3.221-11.87-12.541-17.251s-18.816-6.382-21.21-2.235 3.221 11.87 12.541 17.251 18.816 6.382 21.21 2.235zm-1.924-1.111c-.865 1.498-3.268 2.026-6.68 1.469s-7.554-2.156-11.515-4.443-7.416-5.075-9.605-7.751-2.933-5.021-2.068-6.519 3.268-2.026 6.68-1.469 7.554 2.156 11.515 4.442 7.416 5.075 9.605 7.751 2.933 5.021 2.068 6.519z"/></svg>
