<svg xmlns="http://www.w3.org/2000/svg" width="210.905" height="210.905" viewBox="0 0 55.802 55.802" xmlns:v="https://vecta.io/nano"><circle cx="11.205" cy="22.654" r="2.684"/><circle cx="18.761" cy="14.939" r="2.684"/><circle cx="44.57" cy="21.063" r="2.684"/><circle cx="41.905" cy="31.403" r="2.684"/><circle cx="39.161" cy="41.822" r="2.684"/><path d="M40.235 8.039l-7.238 9.524-.04-3.102-8.272 8.57-.02-4.275-10.777 11.254s-2.664 2.545-2.664 6.94c0 5.567 4.633 10.797 10.718 10.797 7.039 0 9.238-4.445 10.459-7.158l5.17-18.571-3.241 1.093zM22.091 29.643c1.938 0 3.797.77 5.167 2.14s2.14 3.229 2.14 5.167-.77 3.797-2.14 5.167-3.229 2.14-5.167 2.14a7.31 7.31 0 0 1-7.307-7.307 7.31 7.31 0 0 1 7.307-7.308z"/></svg>