<svg xmlns="http://www.w3.org/2000/svg" xmlns:xlink="http://www.w3.org/1999/xlink" width="211.654" height="211.654" viewBox="0 0 56 56" xmlns:v="https://vecta.io/nano"><circle cx="28" cy="28" r="28" fill="#fff"/><path d="M24.572 9.893c-3.263 0-4.836 1.707-5.805 3.654-2.419 0-5.918 2.357-5.918 5.488-1.159 0-4.505 1.619-4.505 5.872 0 4.029 2.944 6.465 6.08 6.465l19.994.056 7.201-.029c2.049-.008 5.518-2.114 5.518-6.51 0-3.387-2.613-6.157-5.132-6.157 0-2.697-2.883-4.829-5.019-4.829-.707-1.778-2.486-4.015-5.901-4.015-1.539 0-2.18.184-3.268.812-1.329-.767-1.825-.804-3.246-.804M19.88 34.12l-1.885 4.577 1.885.808 1.885-4.577-1.885-.808m5.385 0l-1.885 4.577 1.885.808 1.885-4.577-1.885-.808m5.385 0l-1.885 4.577 1.885.808 1.885-4.577-1.885-.808m5.385 0l-1.885 4.577 1.885.808 1.885-4.577-1.885-.808m-19.385 6.462l-1.885 4.577 1.885.808 1.885-4.577-1.885-.808m5.385 0l-1.885 4.577 1.885.808 1.885-4.577-1.885-.808m5.385 0l-1.885 4.577 1.885.808 1.885-4.577-1.885-.808m5.385 0l-1.885 4.577 1.885.808 1.885-4.577z"/></svg>
