<svg xmlns="http://www.w3.org/2000/svg" xmlns:xlink="http://www.w3.org/1999/xlink" width="211.654" height="211.654" viewBox="0 0 56 56" xmlns:v="https://vecta.io/nano"><circle cx="28" cy="28" r="28" fill="#fff"/><path d="M24.941 12.823a5.33 5.33 0 0 0-5.329 5.328l2.115.014a3.25 3.25 0 0 1 3.242-3.178 3.25 3.25 0 0 1 3.246 3.178h2.054c0-2.957-2.385-5.343-5.328-5.343zm-.028 30.229a5.33 5.33 0 0 1-5.329-5.328l2.115-.014a3.25 3.25 0 0 0 3.242 3.178 3.25 3.25 0 0 0 3.246-3.178h2.054c0 2.957-2.385 5.343-5.328 5.343zm8.659-28.045a3.13 3.13 0 0 1 3.235 3.199c0 1.918-1.142 3.222-2.865 3.222l-20.832.017.017 2.175 20.992.062s4.864.007 4.854-5.504c.035-2.984-2.46-5.315-5.403-5.315zM7.689 26.855l34.792-.012c2.438-.001 4.081-2.205 4.081-4.428 0-2.682-2.435-4.198-4.368-4.198l.024-2.13c4.829 0 6.512 3.584 6.519 6.7.007 3.214-2.621 6.207-6.267 6.21l-34.78.023zm25.85 13.996a3.13 3.13 0 0 0 3.235-3.199c0-1.918-1.142-3.222-2.865-3.222l-20.832-.017.017-2.175 20.992-.062s4.864-.007 4.854 5.504c.035 2.984-2.46 5.315-5.403 5.315z"/></svg>
