<svg xmlns="http://www.w3.org/2000/svg" xmlns:xlink="http://www.w3.org/1999/xlink" width="211.654" height="211.654" viewBox="0 0 56 56" xmlns:v="https://vecta.io/nano"><path d="M25.338 13.4c-3.263 0-4.836 1.707-5.805 3.654-2.419 0-5.918 2.357-5.918 5.488-1.159 0-4.505 1.619-4.505 5.872 0 4.029 2.944 6.465 6.08 6.465l19.994.056 7.201-.029c2.049-.008 5.518-2.114 5.518-6.51 0-3.387-2.613-6.157-5.132-6.157 0-2.697-2.883-4.829-5.019-4.829-.707-1.778-2.486-4.015-5.901-4.015-1.539 0-2.181.184-3.268.812-1.329-.767-1.825-.804-3.246-.804M15.143 39.407s1.637 1.083 2.927 1.083 3.944-2.315 6.474-2.315 5.044 2.216 7.921 2.216 4.002-2.381 6.648-2.381c2.332 0 3.952 1.472 3.952 1.472l-1.091 1.703s-1.091-1.009-2.795-1.009c-1.951 0-2.514 2.365-6.763 2.365s-5.341-2.249-7.871-2.249c-2.299 0-3.44 2.464-6.515 2.464-1.951 0-4.018-1.687-4.018-1.687z"/></svg>
