<svg xmlns="http://www.w3.org/2000/svg" xmlns:xlink="http://www.w3.org/1999/xlink" width="211.654" height="211.654" viewBox="0 0 56 56" xmlns:v="https://vecta.io/nano"><circle cx="28" cy="28" r="28" fill="#fff"/><circle cx="28.002" cy="28.039" r="7.539"/><path d="M28.002 13.919c-7.798 0-14.12 6.322-14.12 14.12s6.322 14.12 14.12 14.12 14.12-6.322 14.12-14.12-6.322-14.12-14.12-14.12zm0 2.249c6.556 0 11.871 5.315 11.871 11.871S34.558 39.91 28.002 39.91s-11.871-5.315-11.871-11.871 5.315-11.871 11.871-11.871zm0-8.632c-11.324 0-20.503 9.18-20.503 20.503s9.18 20.503 20.503 20.503 20.503-9.18 20.503-20.503-9.18-20.503-20.503-20.503zm0 2.183c10.118 0 18.32 8.202 18.32 18.32s-8.202 18.32-18.32 18.32-18.32-8.202-18.32-18.32 8.202-18.32 18.32-18.32z"/></svg>
