<?xml version="1.0" standalone="no"?>
<!DOCTYPE svg PUBLIC "-//W3C//DTD SVG 20010904//EN"
 "http://www.w3.org/TR/2001/REC-SVG-20010904/DTD/svg10.dtd">
<svg version="1.0" xmlns="http://www.w3.org/2000/svg"
 width="100.000000pt" height="100.000000pt" viewBox="0 0 100.000000 100.000000"
 preserveAspectRatio="xMidYMid meet">

<g transform="translate(0.000000,100.000000) scale(0.100000,-0.100000)"
fill="#000000" stroke="none">
<path d="M805 841 c-10 -9 -149 -90 -495 -288 -91 -52 -169 -98 -173 -102 -5
-5 20 -15 54 -24 l63 -16 93 52 c53 30 93 59 93 67 0 15 289 190 313 190 7 0
29 -32 50 -70 21 -39 40 -70 42 -70 3 0 27 14 55 31 34 21 52 39 56 57 3 15
13 51 21 80 8 30 13 55 11 56 -5 4 -156 46 -165 46 -5 0 -13 -4 -18 -9z"/>
<path d="M623 591 c-62 -36 -113 -69 -113 -72 0 -9 76 -139 89 -152 6 -6 47
11 118 53 59 34 110 64 112 66 3 3 -62 124 -83 154 -9 14 -27 7 -123 -49z"/>
<path d="M20 626 c0 -4 66 -122 75 -134 4 -4 135 73 135 79 0 4 -39 16 -88 28
-48 12 -95 24 -104 27 -10 3 -18 3 -18 0z"/>
<path d="M330 394 c-69 -41 -160 -93 -202 -117 -78 -42 -88 -53 -67 -74 8 -8
37 4 107 44 54 31 148 85 210 120 82 47 112 69 108 80 -3 8 -6 17 -6 19 0 13
-38 -5 -150 -72z"/>
<path d="M420 332 c-287 -166 -281 -161 -270 -182 10 -19 13 -19 68 12 257
146 322 184 322 194 0 6 -6 16 -12 21 -9 7 -41 -6 -108 -45z"/>
</g>
</svg>
