<?xml version="1.0" standalone="no"?>
<!DOCTYPE svg PUBLIC "-//W3C//DTD SVG 20010904//EN"
 "http://www.w3.org/TR/2001/REC-SVG-20010904/DTD/svg10.dtd">
<svg version="1.0" xmlns="http://www.w3.org/2000/svg"
 width="100.000000pt" height="100.000000pt" viewBox="0 0 100.000000 100.000000"
 preserveAspectRatio="xMidYMid meet">

<g transform="translate(0.000000,100.000000) scale(0.100000,-0.100000)"
fill="#000000" stroke="none">
<path d="M440 961 c0 -5 -11 -12 -25 -15 -30 -8 -65 -36 -65 -52 0 -7 -5 -14
-11 -16 -5 -2 -13 -22 -16 -46 -5 -36 -9 -42 -29 -42 -23 0 -24 -2 -24 -91 0
-87 1 -92 29 -120 16 -16 33 -29 38 -29 5 0 20 -13 33 -30 14 -16 30 -29 37
-30 6 0 25 -13 41 -30 38 -37 74 -39 92 -5 7 13 22 28 34 31 11 4 31 20 45 35
14 16 29 29 34 29 5 0 22 13 38 29 28 28 29 33 29 120 0 90 0 91 -25 91 -22 0
-25 4 -25 34 0 19 -7 41 -15 50 -8 8 -15 18 -15 23 0 14 -38 42 -65 49 -14 3
-25 10 -25 15 0 5 -25 9 -55 9 -30 0 -55 -4 -55 -9z m200 -246 l0 -75 -31 0
c-21 0 -40 9 -55 25 -17 19 -33 25 -63 25 -35 0 -41 -4 -47 -25 -5 -21 -12
-25 -45 -25 l-39 0 0 75 0 75 140 0 140 0 0 -75z"/>
<path d="M110 411 c0 -43 4 -53 40 -90 l40 -41 95 0 95 0 0 41 c0 35 -7 47
-49 90 l-48 49 -87 0 -86 0 0 -49z"/>
<path d="M610 366 l0 -53 39 -7 c58 -9 67 -59 12 -73 -36 -9 -51 -27 -51 -62
l0 -31 135 0 135 0 0 33 c0 40 -8 52 -40 62 -40 13 -65 45 -35 45 8 0 15 4 15
9 0 5 14 12 30 16 29 6 30 9 30 61 l0 54 -135 0 -135 0 0 -54z m238 -13 c-2
-10 -14 -20 -28 -22 -14 -1 -28 -8 -32 -14 -8 -14 -77 -14 -86 -1 -4 6 -15 13
-24 17 -10 3 -18 13 -18 22 0 12 16 15 96 15 86 0 95 -2 92 -17z"/>
<path d="M446 356 c3 -8 12 -17 20 -20 18 -7 9 -45 -14 -62 -11 -8 -14 -27
-11 -80 4 -65 7 -73 40 -107 20 -20 41 -37 48 -37 6 0 11 -4 11 -10 0 -6 27
-10 60 -10 33 0 60 4 60 9 0 5 13 12 29 16 16 3 32 13 35 22 6 14 0 15 -41 9
-27 -3 -49 -11 -51 -16 -5 -13 -62 -13 -62 -1 0 5 -13 12 -30 16 -18 4 -32 15
-36 28 -4 12 -12 25 -18 29 -18 12 -14 102 6 121 22 22 35 21 50 -3 21 -33 28
-23 28 39 0 67 -4 71 -81 71 -38 0 -47 -3 -43 -14z"/>
</g>
</svg>
