<?xml version="1.0" standalone="no"?>
<!DOCTYPE svg PUBLIC "-//W3C//DTD SVG 20010904//EN"
 "http://www.w3.org/TR/2001/REC-SVG-20010904/DTD/svg10.dtd">
<svg version="1.0" xmlns="http://www.w3.org/2000/svg"
 width="100.000000pt" height="100.000000pt" viewBox="0 0 100.000000 100.000000"
 preserveAspectRatio="xMidYMid meet">

<g transform="translate(0.000000,100.000000) scale(0.100000,-0.100000)"
fill="#000000" stroke="none">
<path d="M100 595 l0 -325 25 0 25 0 0 300 0 300 80 0 c79 0 80 0 80 25 l0 25
-105 0 -105 0 0 -325z"/>
<path d="M540 810 l0 -110 -30 0 c-25 0 -30 -4 -30 -25 0 -24 3 -25 55 -25
l55 0 0 110 0 110 80 0 c79 0 80 0 80 25 l0 25 -105 0 -105 0 0 -110z"/>
<path d="M210 485 l0 -325 175 0 175 0 0 65 0 65 65 0 65 0 0 70 0 70 85 0 85
0 0 190 0 190 -110 0 -110 0 0 -110 0 -110 -110 0 -110 0 0 110 0 110 -105 0
-105 0 0 -325z"/>
<path d="M750 305 l0 -65 -65 0 c-63 0 -65 -1 -65 -25 0 -24 2 -25 65 -25 l65
0 0 -70 c0 -68 1 -70 25 -70 23 0 24 3 27 68 l3 67 68 3 c64 3 67 4 67 27 0
24 -2 25 -70 25 l-70 0 0 65 c0 63 -1 65 -25 65 -24 0 -25 -2 -25 -65z"/>
</g>
</svg>
