<?xml version="1.0" standalone="no"?>
<!DOCTYPE svg PUBLIC "-//W3C//DTD SVG 20010904//EN"
 "http://www.w3.org/TR/2001/REC-SVG-20010904/DTD/svg10.dtd">
<svg version="1.0" xmlns="http://www.w3.org/2000/svg"
 width="100.000000pt" height="100.000000pt" viewBox="0 0 100.000000 100.000000"
 preserveAspectRatio="xMidYMid meet">

<g transform="translate(0.000000,100.000000) scale(0.100000,-0.100000)"
fill="#000000" stroke="none">
<path d="M437 956 c-21 -8 -40 -16 -41 -18 -1 -1 -17 -22 -35 -45 -18 -23 -35
-58 -38 -78 -4 -25 -11 -35 -24 -35 -17 0 -19 -9 -19 -94 0 -94 0 -94 33 -122
41 -36 84 -70 137 -108 22 -17 40 -33 40 -38 0 -21 32 -3 86 48 12 12 38 31
58 43 20 13 42 31 49 40 6 10 22 23 35 30 20 11 22 18 22 106 0 93 0 95 -24
95 -20 0 -24 6 -29 39 -5 43 -35 88 -77 120 -38 27 -123 36 -173 17z m213
-246 l0 -70 -35 0 c-24 0 -37 6 -45 20 -8 16 -21 20 -60 20 -39 0 -53 -4 -62
-20 -9 -13 -24 -20 -45 -20 l-33 0 0 70 0 70 140 0 140 0 0 -70z"/>
<path d="M110 407 c0 -39 5 -48 49 -90 l50 -47 205 0 205 0 3 33 c3 32 4 32
61 35 l57 3 0 54 c0 33 -4 55 -11 55 -6 0 -31 -20 -56 -45 l-45 -45 -113 0
c-105 0 -117 2 -151 25 -21 14 -44 34 -51 45 -12 18 -26 20 -109 20 l-94 0 0
-43z"/>
<path d="M790 345 l0 -55 -61 0 c-57 0 -60 -1 -57 -22 3 -20 10 -23 61 -26
l57 -3 0 -59 c0 -53 2 -60 20 -60 18 0 20 7 20 60 l0 60 60 0 c57 0 60 1 60
25 0 24 -3 25 -60 25 l-60 0 0 55 c0 48 -2 55 -20 55 -18 0 -20 -7 -20 -55z"/>
</g>
</svg>
