<?xml version="1.0" standalone="no"?>
<!DOCTYPE svg PUBLIC "-//W3C//DTD SVG 20010904//EN"
 "http://www.w3.org/TR/2001/REC-SVG-20010904/DTD/svg10.dtd">
<svg version="1.0" xmlns="http://www.w3.org/2000/svg"
 width="100.000000pt" height="100.000000pt" viewBox="0 0 100.000000 100.000000"
 preserveAspectRatio="xMidYMid meet">

<g transform="translate(0.000000,100.000000) scale(0.100000,-0.100000)"
fill="#000000" stroke="none">
<path d="M362 910 c-29 -10 -67 -28 -85 -39 -66 -42 -63 -38 -43 -60 l18 -20
32 23 c34 26 136 66 166 66 15 0 20 7 20 25 0 21 -5 25 -27 25 -16 -1 -52 -9
-81 -20z"/>
<path d="M530 906 c0 -19 5 -26 20 -26 30 0 132 -40 166 -66 31 -23 32 -23 50
-3 17 19 17 20 -2 34 -40 31 -141 75 -186 81 -47 7 -48 6 -48 -20z"/>
<path d="M147 748 c-33 -44 -45 -70 -63 -126 -21 -70 -19 -92 10 -92 20 0 24
6 30 38 7 47 38 119 65 154 20 25 20 26 2 42 -18 16 -20 16 -44 -16z"/>
<path d="M806 761 c-12 -13 -14 -21 -6 -26 18 -11 69 -121 76 -164 6 -35 10
-41 30 -41 30 0 31 25 4 105 -19 56 -69 145 -81 145 -3 0 -14 -9 -23 -19z"/>
<path d="M435 760 c-81 -20 -107 -42 -83 -67 13 -12 19 -12 49 1 19 8 42 17
52 20 10 3 17 15 17 31 0 14 -1 25 -2 24 -2 -1 -16 -5 -33 -9z"/>
<path d="M530 744 c0 -15 7 -27 18 -30 9 -3 32 -12 51 -20 30 -13 36 -13 49
-1 25 25 -4 48 -85 67 -30 7 -33 6 -33 -16z"/>
<path d="M273 648 c-12 -16 -23 -44 -33 -85 -7 -30 -6 -33 16 -33 15 0 27 7
30 18 3 9 12 32 20 51 11 25 12 36 3 47 -14 17 -24 18 -36 2z"/>
<path d="M691 646 c-9 -11 -8 -21 3 -47 8 -19 17 -42 20 -51 3 -11 15 -18 31
-18 23 0 25 3 19 28 -10 40 -37 95 -50 99 -6 2 -16 -3 -23 -11z"/>
<path d="M450 593 c-25 -13 -39 -29 -49 -59 -13 -37 -12 -44 5 -80 57 -117
233 -49 195 76 -20 67 -88 95 -151 63z"/>
<path d="M70 447 c0 -57 79 -227 105 -227 16 0 36 38 25 45 -18 11 -69 122
-76 164 -6 35 -10 41 -30 41 -18 0 -24 -5 -24 -23z"/>
<path d="M236 443 c11 -43 33 -91 45 -98 6 -4 17 -1 26 7 12 13 12 19 -1 49
-8 19 -17 42 -20 52 -3 10 -15 17 -31 17 -23 0 -25 -3 -19 -27z"/>
<path d="M714 453 c-3 -10 -12 -33 -20 -52 -13 -30 -13 -36 -1 -49 9 -8 20
-11 26 -7 12 7 34 55 45 98 6 24 4 27 -19 27 -16 0 -28 -7 -31 -17z"/>
<path d="M876 432 c-7 -46 -38 -119 -65 -153 -16 -21 -17 -27 -5 -43 11 -16
16 -17 29 -6 39 32 95 161 95 218 0 17 -6 22 -24 22 -20 0 -24 -6 -30 -38z"/>
<path d="M351 306 c-7 -8 -10 -20 -6 -26 7 -12 55 -33 98 -44 26 -6 28 -5 25
20 -2 19 -12 29 -38 39 -19 7 -42 15 -51 19 -9 4 -21 1 -28 -8z"/>
<path d="M595 305 c-16 -7 -38 -16 -47 -19 -11 -3 -18 -15 -18 -30 0 -22 3
-23 33 -16 80 19 108 40 87 65 -15 18 -16 18 -55 0z"/>
<path d="M234 189 c-17 -19 -17 -20 2 -34 40 -31 141 -75 187 -81 46 -7 47 -6
47 20 0 19 -5 26 -18 26 -33 0 -134 39 -167 65 -32 24 -33 24 -51 4z"/>
<path d="M730 196 c-27 -26 -87 -54 -144 -68 -49 -11 -56 -16 -56 -37 0 -23 2
-23 48 -17 45 6 146 50 187 81 19 15 19 15 -1 35 -17 17 -22 18 -34 6z"/>
</g>
</svg>
