<?xml version="1.0" standalone="no"?>
<!DOCTYPE svg PUBLIC "-//W3C//DTD SVG 20010904//EN"
 "http://www.w3.org/TR/2001/REC-SVG-20010904/DTD/svg10.dtd">
<svg version="1.0" xmlns="http://www.w3.org/2000/svg"
 width="100.000000pt" height="100.000000pt" viewBox="0 0 100.000000 100.000000"
 preserveAspectRatio="xMidYMid meet">

<g transform="translate(0.000000,100.000000) scale(0.100000,-0.100000)"
fill="#000000" stroke="none">
<path d="M230 929 c0 -109 39 -279 76 -334 8 -11 14 -27 14 -37 0 -24 14 -23
44 5 l26 22 -32 64 c-29 58 -33 78 -42 198 l-10 133 -38 0 -38 0 0 -51z"/>
<path d="M390 905 c0 -121 29 -220 88 -294 19 -23 19 -24 -15 -80 -18 -31 -38
-74 -44 -96 -17 -63 -35 -100 -68 -138 -17 -19 -31 -38 -31 -43 0 -4 -12 -20
-26 -35 l-27 -28 51 -58 c72 -84 93 -101 140 -117 42 -15 43 -15 54 10 11 23
9 28 -7 40 -45 32 -53 44 -70 98 l-18 56 54 63 c30 34 61 69 70 77 28 27 116
134 128 157 7 14 11 98 11 242 l0 221 -145 0 -145 0 0 -75z"/>
<path d="M715 438 c-17 -22 -35 -47 -40 -56 -6 -10 -24 -31 -40 -48 -17 -17
-50 -57 -75 -89 l-44 -57 28 -25 28 -24 37 42 c20 24 51 65 69 92 18 28 45 62
60 76 15 14 38 38 50 52 l23 26 -33 25 -34 26 -29 -40z"/>
</g>
</svg>
