<?xml version="1.0" standalone="no"?>
<!DOCTYPE svg PUBLIC "-//W3C//DTD SVG 20010904//EN"
 "http://www.w3.org/TR/2001/REC-SVG-20010904/DTD/svg10.dtd">
<svg version="1.0" xmlns="http://www.w3.org/2000/svg"
 width="100.000000pt" height="100.000000pt" viewBox="0 0 100.000000 100.000000"
 preserveAspectRatio="xMidYMid meet">

<g transform="translate(0.000000,100.000000) scale(0.100000,-0.100000)"
fill="#000000" stroke="none">
<path d="M743 866 c-50 -23 -68 -79 -41 -129 17 -33 39 -46 79 -47 108 -1 125
161 19 184 -14 3 -39 -1 -57 -8z"/>
<path d="M417 752 c-59 -59 -107 -112 -107 -117 0 -10 23 -33 48 -49 8 -5 40
20 89 68 l78 75 28 -27 28 -26 -250 -251 -250 -250 32 -32 32 -32 142 141 143
142 66 -68 c36 -37 64 -69 62 -70 -2 -2 -47 -11 -100 -21 l-98 -18 0 -31 c0
-58 6 -60 116 -41 55 10 118 21 142 25 49 8 46 5 61 50 l11 34 -95 96 c-52 52
-95 100 -95 105 0 6 32 42 70 80 l70 69 0 -102 0 -102 130 0 130 0 0 45 0 45
-85 0 -85 0 0 83 0 82 -103 103 -102 102 -108 -108z"/>
</g>
</svg>
