<?xml version="1.0" standalone="no"?>
<!DOCTYPE svg PUBLIC "-//W3C//DTD SVG 20010904//EN"
 "http://www.w3.org/TR/2001/REC-SVG-20010904/DTD/svg10.dtd">
<svg version="1.0" xmlns="http://www.w3.org/2000/svg"
 width="100.000000pt" height="100.000000pt" viewBox="0 0 100.000000 100.000000"
 preserveAspectRatio="xMidYMid meet">

<g transform="translate(0.000000,100.000000) scale(0.100000,-0.100000)"
fill="#000000" stroke="none">
<path d="M381 925 c-145 -41 -253 -145 -306 -297 -19 -57 -19 -199 0 -256 56
-160 177 -270 333 -303 236 -49 471 108 521 349 16 79 15 82 -23 82 -33 0 -33
-1 -39 -51 -14 -114 -90 -221 -199 -280 -61 -33 -67 -34 -173 -34 -96 0 -116
3 -155 24 -84 44 -137 97 -177 178 -34 70 -37 82 -37 163 0 81 3 93 37 163 40
81 93 134 177 178 39 21 59 24 155 24 106 0 112 -1 173 -34 34 -19 62 -37 62
-41 0 -4 -13 -22 -28 -38 l-29 -31 -51 26 c-134 66 -285 20 -367 -111 -27 -45
-30 -57 -30 -135 0 -75 3 -92 27 -131 74 -126 212 -179 338 -131 96 36 180
142 180 226 0 32 -2 35 -29 35 -26 0 -30 -4 -36 -40 -9 -55 -60 -120 -115
-148 -66 -34 -153 -28 -212 15 -159 115 -92 367 100 381 60 4 132 -17 132 -38
0 -7 -14 -25 -31 -41 -26 -24 -37 -28 -68 -23 -28 4 -44 0 -71 -18 -65 -44
-65 -132 0 -176 73 -49 160 3 160 96 l0 47 157 157 c155 155 157 157 138 178
-24 27 -28 26 -69 -17 l-35 -38 -28 18 c-87 56 -154 80 -241 83 -58 3 -105 -1
-141 -11z"/>
</g>
</svg>
