<?xml version="1.0" standalone="no"?>
<!DOCTYPE svg PUBLIC "-//W3C//DTD SVG 20010904//EN"
 "http://www.w3.org/TR/2001/REC-SVG-20010904/DTD/svg10.dtd">
<svg version="1.0" xmlns="http://www.w3.org/2000/svg"
 width="100.000000pt" height="100.000000pt" viewBox="0 0 100.000000 100.000000"
 preserveAspectRatio="xMidYMid meet">

<g transform="translate(0.000000,100.000000) scale(0.100000,-0.100000)"
fill="#000000" stroke="none">
<path d="M277 896 c-154 -55 -230 -242 -157 -390 11 -22 77 -104 147 -181 71
-78 151 -166 179 -198 l50 -57 179 198 c209 232 229 265 223 375 -2 42 -12 88
-22 110 -24 48 -78 103 -130 129 -53 27 -148 34 -203 15 -37 -12 -49 -13 -80
-1 -49 17 -137 17 -186 0z m180 -86 c41 -18 43 -18 82 1 77 37 171 18 233 -48
35 -37 48 -73 48 -134 0 -65 -17 -96 -108 -199 -211 -238 -221 -247 -239 -216
-4 7 -30 38 -58 68 -240 260 -240 261 -240 349 0 58 4 73 30 110 58 82 161
111 252 69z"/>
<path d="M314 766 c-53 -23 -84 -74 -84 -138 l0 -56 109 -123 c131 -149 159
-176 170 -163 97 109 207 230 212 234 20 16 49 80 49 109 0 70 -76 151 -143
151 -34 0 -89 -24 -111 -49 l-19 -21 -26 24 c-48 45 -101 56 -157 32z"/>
</g>
</svg>
