<?xml version="1.0" encoding="UTF-8"?>
<svg version="1.1" xmlns="http://www.w3.org/2000/svg" width="53" height="42">
<path d="M0 0 C10.89 0 21.78 0 33 0 C33 2.31 33 4.62 33 7 C29.37 7 25.74 7 22 7 C22.495 7.94875 22.99 8.8975 23.5 9.875 C25 14 25 14 25 24 C16.75 24 8.5 24 0 24 C0 23.01 0 22.02 0 21 C-1.98 20.67 -3.96 20.34 -6 20 C-6 16.37 -6 12.74 -6 9 C-4.02 8.67 -2.04 8.34 0 8 C0 5.36 0 2.72 0 0 Z M11 17 C11 17.33 11 17.66 11 18 C12.65 18 14.3 18 16 18 C16 17.67 16 17.34 16 17 C14.35 17 12.7 17 11 17 Z " fill="#60884D" transform="translate(20,0)"/>
<path d="M0 0 C3.96 0 7.92 0 12 0 C12 5.94 12 11.88 12 18 C11.34 18 10.68 18 10 18 C10 23.28 10 28.56 10 34 C7.36 34 4.72 34 2 34 C2 28.72 2 23.44 2 18 C1.34 18 0.68 18 0 18 C0 12.06 0 6.12 0 0 Z " fill="#E9E9D9" transform="translate(0,8)"/>
<path d="M0 0 C1.23685547 -0.04125 2.47371094 -0.0825 3.74804688 -0.125 C12.65225153 -0.20196773 12.65225153 -0.20196773 15.65771484 1.8359375 C18.6875 5.40717527 18.6875 5.40717527 18.6875 7.5 C6.4775 7.5 -5.7325 7.5 -18.3125 7.5 C-13.12916238 -1.13889604 -9.49913631 0.07846473 0 0 Z " fill="#648F50" transform="translate(32.3125,34.5)"/>
<path d="M0 0 C1.81242052 -0.02687279 3.62495233 -0.04633715 5.4375 -0.0625 C6.44683594 -0.07410156 7.45617187 -0.08570313 8.49609375 -0.09765625 C11 0 11 0 12 1 C13.67884238 1.3931648 15.36850045 1.74085452 17.0625 2.0625 C17.98160156 2.23910156 18.90070312 2.41570313 19.84765625 2.59765625 C20.55792969 2.73042969 21.26820312 2.86320313 22 3 C22 3.99 22 4.98 22 6 C21.28972656 6.13277344 20.57945313 6.26554687 19.84765625 6.40234375 C18.92855469 6.57894531 18.00945313 6.75554688 17.0625 6.9375 C16.14597656 7.11152344 15.22945312 7.28554688 14.28515625 7.46484375 C12.04710156 7.77714988 12.04710156 7.77714988 11 9 C9.14712498 9.07226502 7.29166122 9.0838122 5.4375 9.0625 C4.42558594 9.05347656 3.41367187 9.04445313 2.37109375 9.03515625 C1.58863281 9.02355469 0.80617188 9.01195312 0 9 C0 6.03 0 3.06 0 0 Z " fill="#F7F7E6" transform="translate(15,10)"/>
<path d="M0 0 C0.66 0.33 1.32 0.66 2 1 C2 3.64 2 6.28 2 9 C-5.92 9 -13.84 9 -22 9 C-22 8.01 -22 7.02 -22 6 C-20.865625 5.855625 -19.73125 5.71125 -18.5625 5.5625 C-15.19222799 5.38828522 -15.19222799 5.38828522 -14 4 C-11.52488197 3.46349901 -9.03718816 3.03607886 -6.54296875 2.59765625 C-3.98624746 2.10456017 -3.98624746 2.10456017 -1.80078125 0.87109375 C-0.90939453 0.43990234 -0.90939453 0.43990234 0 0 Z " fill="#659250" transform="translate(42,15)"/>
<path d="M0 0 C4.95 0 9.9 0 15 0 C15 2.31 15 4.62 15 7 C10.05 7 5.1 7 0 7 C0 4.69 0 2.38 0 0 Z " fill="#628D4F" transform="translate(25,26)"/>
<path d="M0 0 C0 0.99 0 1.98 0 3 C-1.81332154 2.69230293 -3.62564345 2.37870936 -5.4375 2.0625 C-6.95150391 1.80146484 -6.95150391 1.80146484 -8.49609375 1.53515625 C-11 1 -11 1 -12 0 C-13.84891946 -0.23363881 -15.70488031 -0.41303635 -17.5625 -0.5625 C-18.57441406 -0.64628906 -19.58632813 -0.73007813 -20.62890625 -0.81640625 C-21.80259766 -0.90728516 -21.80259766 -0.90728516 -23 -1 C-23 1.97 -23 4.94 -23 8 C-21.27054347 7.85764543 -19.54144346 7.71095618 -17.8125 7.5625 C-16.84957031 7.48128906 -15.88664062 7.40007813 -14.89453125 7.31640625 C-12.02009001 7.04969188 -12.02009001 7.04969188 -9.3125 6.4375 C-6.60701497 5.92565148 -4.64602695 6.31959307 -2 7 C-2 7.33 -2 7.66 -2 8 C-3.8253125 8.2165625 -3.8253125 8.2165625 -5.6875 8.4375 C-8.01124344 8.71781171 -10.16684028 9.04277956 -12.4375 9.625 C-16.3890891 10.20328133 -20.04947335 9.53066776 -24 9 C-24 5.37 -24 1.74 -24 -2 C-15.17091198 -3.1561901 -8.48864491 -2.66398963 0 0 Z " fill="#575A52" transform="translate(38,11)"/>
<path d="M0 0 C3 0.125 3 0.125 4 1.125 C4.125 3.625 4.125 3.625 4 6.125 C3 7.125 3 7.125 0 7.25 C-3 7.125 -3 7.125 -4 6.125 C-4.125 3.625 -4.125 3.625 -4 1.125 C-3 0.125 -3 0.125 0 0 Z " fill="#EFEFDE" transform="translate(6,-0.125)"/>
<path d="M0 0 C2.42581871 2.42581871 2.96355664 4.07433869 3.09765625 7.48046875 C3.08605469 8.37378906 3.07445312 9.26710938 3.0625 10.1875 C3.05347656 11.08855469 3.04445313 11.98960938 3.03515625 12.91796875 C3.02355469 13.60503906 3.01195312 14.29210938 3 15 C2.67 15 2.34 15 2 15 C1.67 12.36 1.34 9.72 1 7 C-1.31 7.66 -3.62 8.32 -6 9 C-6.33 8.34 -6.66 7.68 -7 7 C-3.375 4 -3.375 4 0 4 C0 2.68 0 1.36 0 0 Z " fill="#42503B" transform="translate(42,9)"/>
<path d="M0 0 C3 0.125 3 0.125 4 1.125 C4.04063832 2.79117115 4.042721 4.45888095 4 6.125 C3.34 4.805 2.68 3.485 2 2.125 C0.05925139 2.40117533 0.05925139 2.40117533 -2 3.125 C-2.66 4.115 -3.32 5.105 -4 6.125 C-4.042721 4.45888095 -4.04063832 2.79117115 -4 1.125 C-3 0.125 -3 0.125 0 0 Z " fill="#A0A096" transform="translate(6,-0.125)"/>
<path d="M0 0 C0.99 0.33 1.98 0.66 3 1 C1.02 2.98 -0.96 4.96 -3 7 C-3.66 6.67 -4.32 6.34 -5 6 C-3.35 4.02 -1.7 2.04 0 0 Z " fill="#537345" transform="translate(19,35)"/>
<path d="M0 0 C2.97 0.33 5.94 0.66 9 1 C9 1.33 9 1.66 9 2 C6.02148438 2.34179688 6.02148438 2.34179688 3.04296875 2.68359375 C0.80603607 2.97170735 0.80603607 2.97170735 -2 4 C-1.34 2.68 -0.68 1.36 0 0 Z " fill="#3D4339" transform="translate(27,17)"/>
</svg>
