<?xml version="1.0" encoding="UTF-8"?>
<svg version="1.1" xmlns="http://www.w3.org/2000/svg" width="47" height="43">
<path d="M0 0 C8.91 0 17.82 0 27 0 C27.06886985 4.7877298 27.12860026 9.57374177 27.16479492 14.36157227 C27.17988243 15.99021223 27.20035506 17.61881156 27.22631836 19.24731445 C27.26270449 21.58815535 27.2797262 23.92845919 27.29296875 26.26953125 C27.30845261 26.99775589 27.32393646 27.72598053 27.33988953 28.47627258 C27.34085423 31.37335699 27.32359147 33.48519249 25.75805664 35.97583008 C23.50732262 37.28701314 22.17029364 37.27563958 19.578125 37.1171875 C18.71703125 37.08496094 17.8559375 37.05273438 16.96875 37.01953125 C15.17139615 36.92398227 13.37447065 36.81995941 11.578125 36.70703125 C4.92003203 36.47915009 2.10238086 37.73609956 -3 42 C-6.79428243 43.28862422 -8.93263741 43.42725805 -12.6640625 41.93359375 C-15.15138264 40.70394675 -17.58078104 39.35873942 -20 38 C-20 30.74 -20 23.48 -20 16 C-12.08154188 13.7375834 -12.08154188 13.7375834 -7.75 13.8125 C-6.50476563 13.82216797 -6.50476563 13.82216797 -5.234375 13.83203125 C-3 14 -3 14 0 15 C0 10.05 0 5.1 0 0 Z M5 10 C5 10.33 5 10.66 5 11 C6.65 11 8.3 11 10 11 C10 12.98 10 14.96 10 17 C12.31 17 14.62 17 17 17 C17 15.02 17 13.04 17 11 C18.65 11 20.3 11 22 11 C22 10.67 22 10.34 22 10 C16.39 10 10.78 10 5 10 Z " fill="#4DAECA" transform="translate(20,0)"/>
<path d="M0 0 C1.09570312 -0.01417969 2.19140625 -0.02835938 3.3203125 -0.04296875 C7.41285303 0.22237179 10.92760696 1.09484088 14.875 2.1875 C15.01030844 5.25148451 15.1092407 8.30947126 15.1875 11.375 C15.22939453 12.23931641 15.27128906 13.10363281 15.31445312 13.99414062 C15.40217694 18.57332366 15.4096917 20.51260412 12.4765625 24.21484375 C7.16032609 28.24592391 7.16032609 28.24592391 3.125 28.0625 C-0.125 27.1875 -0.125 27.1875 -8.125 23.1875 C-8.125 15.9275 -8.125 8.6675 -8.125 1.1875 C-5.36304671 -0.19347665 -3.0831952 0.01788396 0 0 Z " fill="#E9E9DA" transform="translate(8.125,14.8125)"/>
<path d="M0 0 C8.91 0 17.82 0 27 0 C27 11.22 27 22.44 27 34 C26.67 34 26.34 34 26 34 C25.505 21.625 25.505 21.625 25 9 C24.01 9.99 23.02 10.98 22 12 C20.68 12 19.36 12 18 12 C18 13.98 18 15.96 18 18 C15.03 18 12.06 18 9 18 C9 16.02 9 14.04 9 12 C8.21625 12.04125 7.4325 12.0825 6.625 12.125 C4 12 4 12 2 10 C1.67 11.65 1.34 13.3 1 15 C2.32 15 3.64 15 5 15 C5.0582253 18.08325358 5.09367134 21.16636505 5.125 24.25 C5.14175781 25.12269531 5.15851562 25.99539062 5.17578125 26.89453125 C5.18222656 27.73886719 5.18867188 28.58320313 5.1953125 29.453125 C5.20578613 30.22817383 5.21625977 31.00322266 5.22705078 31.80175781 C4.97326556 34.25883539 4.22444152 35.87311542 3 38 C2.34 37.67 1.68 37.34 1 37 C1.495 36.505 1.495 36.505 2 36 C2.15620555 34.58672053 2.25056173 33.1664541 2.31640625 31.74609375 C2.35830078 30.89208984 2.40019531 30.03808594 2.44335938 29.15820312 C2.48267578 28.26037109 2.52199219 27.36253906 2.5625 26.4375 C2.60568359 25.53580078 2.64886719 24.63410156 2.69335938 23.70507812 C2.79977984 21.47024844 2.90042481 19.23514514 3 17 C-2.28 16.34 -7.56 15.68 -13 15 C-13 14.67 -13 14.34 -13 14 C-11.39592672 13.97291433 -9.7917215 13.95356517 -8.1875 13.9375 C-7.29417969 13.92589844 -6.40085937 13.91429687 -5.48046875 13.90234375 C-3 14 -3 14 0 15 C0 10.05 0 5.1 0 0 Z M5 10 C5 10.33 5 10.66 5 11 C6.65 11 8.3 11 10 11 C10 12.98 10 14.96 10 17 C12.31 17 14.62 17 17 17 C17 15.02 17 13.04 17 11 C18.65 11 20.3 11 22 11 C22 10.67 22 10.34 22 10 C16.39 10 10.78 10 5 10 Z " fill="#4694AA" transform="translate(20,0)"/>
<path d="M0 0 C2 1.375 2 1.375 4 3 C4 3.66 4 4.32 4 5 C5.65 5 7.3 5 9 5 C9 6.98 9 8.96 9 11 C11.31 11 13.62 11 16 11 C16 9.02 16 7.04 16 5 C17.65 5 19.3 5 21 5 C19.68 5.33 18.36 5.66 17 6 C17 7.98 17 9.96 17 12 C14.03 12 11.06 12 8 12 C8 10.02 8 8.04 8 6 C7.21625 6.04125 6.4325 6.0825 5.625 6.125 C3 6 3 6 1 4 C0.67 5.65 0.34 7.3 0 9 C1.32 9 2.64 9 4 9 C4.0582253 12.08325358 4.09367134 15.16636505 4.125 18.25 C4.14175781 19.12269531 4.15851562 19.99539062 4.17578125 20.89453125 C4.18222656 21.73886719 4.18867188 22.58320313 4.1953125 23.453125 C4.20578613 24.22817383 4.21625977 25.00322266 4.22705078 25.80175781 C3.97326556 28.25883539 3.22444152 29.87311542 2 32 C1.34 31.67 0.68 31.34 0 31 C0.33 30.67 0.66 30.34 1 30 C1.15620555 28.58672053 1.25056173 27.1664541 1.31640625 25.74609375 C1.35830078 24.89208984 1.40019531 24.03808594 1.44335938 23.15820312 C1.48267578 22.26037109 1.52199219 21.36253906 1.5625 20.4375 C1.60568359 19.53580078 1.64886719 18.63410156 1.69335938 17.70507812 C1.79977984 15.47024844 1.90042481 13.23514514 2 11 C-3.28 10.34 -8.56 9.68 -14 9 C-14 8.67 -14 8.34 -14 8 C-12.39592672 7.97291433 -10.7917215 7.95356517 -9.1875 7.9375 C-8.29417969 7.92589844 -7.40085937 7.91429687 -6.48046875 7.90234375 C-4 8 -4 8 -1 9 C-1.020625 7.700625 -1.04125 6.40125 -1.0625 5.0625 C-1.08399454 3.70834367 -1.07148199 2.35243917 -1 1 C-0.67 0.67 -0.34 0.34 0 0 Z " fill="#4B5656" transform="translate(21,6)"/>
<path d="M0 0 C2 1.375 2 1.375 4 3 C4 3.66 4 4.32 4 5 C5.65 5 7.3 5 9 5 C9 6.98 9 8.96 9 11 C11.31 11 13.62 11 16 11 C16 9.02 16 7.04 16 5 C17.65 5 19.3 5 21 5 C19.68 5.33 18.36 5.66 17 6 C17 7.98 17 9.96 17 12 C14.03 12 11.06 12 8 12 C8 10.02 8 8.04 8 6 C6.35 6 4.7 6 3 6 C2.566875 5.0409375 2.566875 5.0409375 2.125 4.0625 C1.17176549 1.84793921 1.17176549 1.84793921 -1 1 C-0.67 0.67 -0.34 0.34 0 0 Z " fill="#35535C" transform="translate(21,6)"/>
<path d="M0 0 C0.680625 -0.01417969 1.36125 -0.02835938 2.0625 -0.04296875 C4 0.1875 4 0.1875 7 2.1875 C7 2.8475 7 3.5075 7 4.1875 C6.38511719 4.01992188 5.77023438 3.85234375 5.13671875 3.6796875 C4.32847656 3.47601562 3.52023437 3.27234375 2.6875 3.0625 C1.48673828 2.74925781 1.48673828 2.74925781 0.26171875 2.4296875 C-2.28207233 1.91322666 -2.28207233 1.91322666 -5 4.1875 C-5.99 4.1875 -6.98 4.1875 -8 4.1875 C-7.67 3.1975 -7.34 2.2075 -7 1.1875 C-4.35559361 0.3060312 -2.71939248 0.02575182 0 0 Z " fill="#4C4C49" transform="translate(12,19.8125)"/>
<path d="M0 0 C1.65 0 3.3 0 5 0 C5 1.65 5 3.3 5 5 C3.35 5 1.7 5 0 5 C0 3.35 0 1.7 0 0 Z " fill="#418092" transform="translate(31,11)"/>
<path d="M0 0 C0.33 0.99 0.66 1.98 1 3 C1.99 3 2.98 3 4 3 C2.25 7.875 2.25 7.875 0 9 C0 8.01 0 7.02 0 6 C-0.99 5.34 -1.98 4.68 -3 4 C-2.01 2.68 -1.02 1.36 0 0 Z " fill="#64645F" transform="translate(11,27)"/>
</svg>
