<?xml version="1.0" encoding="UTF-8"?>
<svg version="1.1" xmlns="http://www.w3.org/2000/svg" width="47" height="43">
<path d="M0 0 C12.87 0 25.74 0 39 0 C39 2.64 39 5.28 39 8 C33.06 8.495 33.06 8.495 27 9 C27.66 10.65 28.32 12.3 29 14 C29.1953125 16.89453125 29.1953125 16.89453125 29.125 19.8125 C29.10695312 20.78832031 29.08890625 21.76414062 29.0703125 22.76953125 C29.04710937 23.50558594 29.02390625 24.24164062 29 25 C27.68 25.33 26.36 25.66 25 26 C25 28.64 25 31.28 25 34 C21.85418577 34.02888514 18.70840531 34.04675923 15.5625 34.0625 C14.21575195 34.07506836 14.21575195 34.07506836 12.84179688 34.08789062 C11.56079102 34.09272461 11.56079102 34.09272461 10.25390625 34.09765625 C9.46314697 34.10289307 8.6723877 34.10812988 7.85766602 34.11352539 C6 34 6 34 5 33 C4.7180604 30.71315662 4.55222995 28.42636727 4.37890625 26.12890625 C4.17223364 23.79072597 4.17223364 23.79072597 2 22 C2 22.99 2 23.98 2 25 C2 27.33333333 2 29.66666667 2 32 C-1.59554276 32 -2.13723325 31.39521908 -4.6875 29 C-7.16350964 26.39228771 -8.54675924 24.56695928 -8.8125 20.9375 C-8.46163786 16.77499912 -6.44704259 15.24228629 -3.3984375 12.64453125 C-1.16036179 10.01260423 -1.22518829 7.30527204 -1.10546875 3.953125 C-1 2 -1 2 0 0 Z " fill="#659251" transform="translate(8,0)"/>
<path d="M0 0 C7.71428571 6 7.71428571 6 9 12 C10.32 12 11.64 12 13 12 C14.75 13.3125 14.75 13.3125 16 15 C16 15.99 16 16.98 16 18 C15.34 18 14.68 18 14 18 C13.73316406 18.58265625 13.46632813 19.1653125 13.19140625 19.765625 C11.97613248 22.04476137 10.62930828 23.80462832 8.9375 25.75 C8.41027344 26.36359375 7.88304687 26.9771875 7.33984375 27.609375 C6.89769531 28.06828125 6.45554687 28.5271875 6 29 C5.67 29 5.34 29 5 29 C4.8046875 26.98177083 4.609375 24.96354167 4.4140625 22.9453125 C4.13625251 20.77331755 4.13625251 20.77331755 2 19 C2 19.99 2 20.98 2 22 C2 24.33333333 2 26.66666667 2 29 C-1.59554276 29 -2.13723325 28.39521908 -4.6875 26 C-7.20456651 23.36001942 -8.53296891 21.55752747 -8.75 17.875 C-7.86693183 13.3124811 -6.69456886 11.74944659 -3 9 C-2.01 9 -1.02 9 0 9 C0 6.03 0 3.06 0 0 Z " fill="#DADACB" transform="translate(8,3)"/>
<path d="M0 0 C2.16554614 -0.00655197 4.32647872 -0.0609922 6.49121094 -0.11791992 C7.87400782 -0.12672506 9.2568264 -0.13267723 10.63964844 -0.13549805 C11.89310059 -0.14782471 13.14655273 -0.16015137 14.43798828 -0.17285156 C19.13317784 0.84376971 20.1774108 2.61208396 22.80371094 6.5559082 C22.80371094 7.2159082 22.80371094 7.8759082 22.80371094 8.5559082 C9.27371094 8.5559082 -4.25628906 8.5559082 -18.19628906 8.5559082 C-14.32989079 -1.11008748 -9.50286303 -0.00322641 0 0 Z " fill="#5B7F4A" transform="translate(20.1962890625,34.444091796875)"/>
<path d="M0 0 C5.28 0 10.56 0 16 0 C16 0.33 16 0.66 16 1 C9.565 1.495 9.565 1.495 3 2 C4.051875 3.051875 5.10375 4.10375 6.1875 5.1875 C10.45833333 9.45833333 14.72916667 13.72916667 19 18 C17.125 21.875 17.125 21.875 16 23 C19.96 23.33 23.92 23.66 28 24 C28 20.7 28 17.4 28 14 C28.33 14 28.66 14 29 14 C29 17.63 29 21.26 29 25 C27.68 25.33 26.36 25.66 25 26 C25 28.64 25 31.28 25 34 C18.73 34 12.46 34 6 34 C6 30.03990775 7.40780183 28.85479241 9.875 25.8125 C10.59429687 24.91144531 11.31359375 24.01039062 12.0546875 23.08203125 C12.69664063 22.39496094 13.33859375 21.70789063 14 21 C14.66 21 15.32 21 16 21 C14.78969026 18.42672567 14.78969026 18.42672567 13 16 C11.68 16 10.36 16 9 16 C8.67 16 8.34 16 8 16 C7.773125 14.948125 7.54625 13.89625 7.3125 12.8125 C6.20639469 8.8402094 4.11370115 6.70400363 1 4 C0.67 6.64 0.34 9.28 0 12 C-0.66 11.67 -1.32 11.34 -2 11 C-1.85892253 9.54119891 -1.71197585 8.08296449 -1.5625 6.625 C-1.48128906 5.81289062 -1.40007813 5.00078125 -1.31640625 4.1640625 C-1 2 -1 2 0 0 Z " fill="#374032" transform="translate(8,0)"/>
<path d="M0 0 C0.94101562 0.00322266 1.88203125 0.00644531 2.8515625 0.00976562 C3.83640625 0.01814453 4.82125 0.02652344 5.8359375 0.03515625 C6.82851563 0.03966797 7.82109375 0.04417969 8.84375 0.04882812 C11.2995391 0.0606348 13.75520854 0.07710225 16.2109375 0.09765625 C16.2109375 2.73765625 16.2109375 5.37765625 16.2109375 8.09765625 C10.2709375 8.59265625 10.2709375 8.59265625 4.2109375 9.09765625 C4.5409375 10.74765625 4.8709375 12.39765625 5.2109375 14.09765625 C4.8190625 13.56140625 4.4271875 13.02515625 4.0234375 12.47265625 C-0.75714479 6.15333272 -0.75714479 6.15333272 -6.7890625 1.09765625 C-4.33631109 -0.12871945 -2.7384844 -0.01649689 0 0 Z " fill="#638E4F" transform="translate(30.7890625,-0.09765625)"/>
<path d="M0 0 C0 2.31 0 4.62 0 7 C-5.61 7 -11.22 7 -17 7 C-12.13760855 -0.35929516 -8.60529033 -0.96464998 0 0 Z " fill="#649050" transform="translate(32,26)"/>
<path d="M0 0 C5.28 0 10.56 0 16 0 C16 0.33 16 0.66 16 1 C9.565 1.495 9.565 1.495 3 2 C4.134375 3.093125 5.26875 4.18625 6.4375 5.3125 C8.86467848 7.65141744 9.91515427 8.74546282 11 12 C10.0625 14.1875 10.0625 14.1875 9 16 C8.67 16 8.34 16 8 16 C7.773125 14.948125 7.54625 13.89625 7.3125 12.8125 C6.20639469 8.8402094 4.11370115 6.70400363 1 4 C0.67 6.64 0.34 9.28 0 12 C-0.66 11.67 -1.32 11.34 -2 11 C-1.85892253 9.54119891 -1.71197585 8.08296449 -1.5625 6.625 C-1.48128906 5.81289062 -1.40007813 5.00078125 -1.31640625 4.1640625 C-1 2 -1 2 0 0 Z " fill="#505B49" transform="translate(8,0)"/>
<path d="M0 0 C5.75 3.75 5.75 3.75 8 6 C10.89223503 6.46396693 10.89223503 6.46396693 14.125 6.625 C15.76855469 6.73714844 15.76855469 6.73714844 17.4453125 6.8515625 C18.28835937 6.90054687 19.13140625 6.94953125 20 7 C20 4.69 20 2.38 20 0 C20.33 0 20.66 0 21 0 C21 2.64 21 5.28 21 8 C15.06 8.495 15.06 8.495 9 9 C9.33 10.65 9.66 12.3 10 14 C9.608125 13.46375 9.21625 12.9275 8.8125 12.375 C4.03191771 6.05567647 4.03191771 6.05567647 -2 1 C-1.34 0.67 -0.68 0.34 0 0 Z " fill="#384233" transform="translate(26,0)"/>
<path d="M0 0 C3.36591866 1.44253657 5.51047079 3.33264727 8 6 C6.95125002 8.62187494 6.35068687 9.79371361 3.875 11.25 C3.25625 11.4975 2.6375 11.745 2 12 C2.33 11.01 2.66 10.02 3 9 C3.66 9 4.32 9 5 9 C3.26440562 5.942048 1.61527381 3.36620011 -1 1 C-0.67 0.67 -0.34 0.34 0 0 Z " fill="#454E40" transform="translate(19,12)"/>
<path d="M0 0 C0.33 0.99 0.66 1.98 1 3 C-0.65 4.65 -2.3 6.3 -4 8 C-4.66 7.67 -5.32 7.34 -6 7 C-4.02 4.69 -2.04 2.38 0 0 Z " fill="#4A4F45" transform="translate(20,24)"/>
<path d="" fill="#2D2D2C" transform="translate(0,0)"/>
</svg>
