<svg xmlns="http://www.w3.org/2000/svg" width="194" height="194" viewBox="0 0 194 194" version="1.1"><path d="M 50 42.500 L 50 51 54 51 L 58 51 58 42.500 L 58 34 54 34 L 50 34 50 42.500 M 63.667 34.667 C 63.300 35.033, 63 38.858, 63 43.167 L 63 51 90.050 51 C 112.507 51, 117.607 50.737, 120.092 49.452 C 121.849 48.544, 125.099 47.997, 127.964 48.128 C 131.405 48.285, 134.339 47.640, 137.921 45.939 C 140.715 44.613, 143 43.223, 143 42.849 C 143 42.476, 140.918 41.008, 138.374 39.585 C 134.790 37.582, 132.355 37, 127.565 37 C 123.677 37, 120.662 36.455, 119.441 35.532 C 117.850 34.328, 112.706 34.058, 90.917 34.032 C 76.296 34.014, 64.033 34.300, 63.667 34.667 M 50.667 57.667 C 50.300 58.033, 50 61.858, 50 66.167 L 50 74 54 74 L 58 74 58 65.500 L 58 57 54.667 57 C 52.833 57, 51.033 57.300, 50.667 57.667 M 63 65.500 L 63 74 90.300 74 C 108.937 74, 117.952 73.648, 118.708 72.892 C 119.317 72.283, 122.895 71.573, 126.658 71.315 C 132.940 70.883, 143 67.525, 143 65.859 C 143 65.491, 141.007 64.022, 138.572 62.595 C 135.058 60.535, 132.827 60, 127.763 60 C 123.701 60, 120.677 59.467, 119.441 58.532 C 117.847 57.326, 112.626 57.058, 90.250 57.032 L 63 57 63 65.500 M 50 88.500 L 50 97 54 97 L 58 97 58 88.500 L 58 80 54 80 L 50 80 50 88.500 M 63 88.500 L 63 97 89.886 97 C 111.790 97, 117.302 96.723, 119.636 95.506 C 121.211 94.685, 124.975 94.017, 128 94.023 C 133.120 94.034, 142.853 90.665, 142.961 88.845 C 142.983 88.485, 141.007 87.022, 138.572 85.595 C 135.058 83.535, 132.827 83, 127.763 83 C 123.701 83, 120.677 82.467, 119.441 81.532 C 117.847 80.326, 112.626 80.058, 90.250 80.032 L 63 80 63 88.500" stroke="none" fill="#f5f5e7" fill-rule="evenodd"/><path d="M 49 121 C 49 122.929, 48.333 123, 30.122 123 C 8.697 123, 7.634 123.334, 9.823 129.387 C 10.470 131.177, 11 134.276, 11 136.274 C 11 138.272, 11.522 141.052, 12.161 142.453 C 13.141 144.605, 13.985 145, 17.601 145 C 19.956 145, 22.160 145.450, 22.500 146 C 22.840 146.550, 25.275 147, 27.911 147 C 31.872 147, 33.248 147.521, 35.843 150 C 37.569 151.650, 39.886 153, 40.991 153 C 42.096 153, 43 153.450, 43 154 C 43 154.550, 44.313 155, 45.917 155 C 47.521 155, 49.096 155.563, 49.417 156.250 C 49.883 157.250, 50.117 157.250, 50.583 156.250 C 51.481 154.326, 53.805 154.766, 55.052 157.096 C 56.135 159.121, 56.224 159.130, 57.654 157.346 C 58.468 156.331, 60.342 153.250, 61.817 150.500 C 64.336 145.805, 64.765 145.481, 68.835 145.188 L 73.170 144.877 72.988 153.688 C 72.749 165.288, 72.697 165, 75 165 C 76.100 165, 77 165.450, 77 166 C 77 166.609, 81.500 167, 88.500 167 C 95.500 167, 100 166.609, 100 166 C 100 165.450, 100.900 165, 102 165 C 103.100 165, 104 164.550, 104 164 C 104 163.450, 105.800 163, 108 163 C 110.200 163, 112 162.624, 112 162.165 C 112 161.705, 115.671 157.543, 120.159 152.915 C 124.646 148.287, 127.951 145.132, 127.504 145.905 C 126.957 146.849, 127.069 147.075, 127.845 146.595 C 129.262 145.720, 129.378 143, 128 143 C 127.450 143, 127 142.550, 127 142 C 127 141.450, 127.625 141, 128.389 141 C 129.885 141, 130.500 143.570, 131.562 154.250 C 132.141 160.076, 132.012 161, 130.616 161 C 128.708 161, 128.456 162.612, 130.250 163.341 C 131.196 163.724, 131.142 164.096, 130.029 164.869 C 127.635 166.532, 129.778 167.457, 132.567 165.964 C 134.763 164.789, 135.262 164.800, 136.050 166.046 C 137.372 168.137, 137.212 169, 135.500 169 C 132.618 169, 134.030 171.986, 137.622 173.487 C 143.246 175.836, 145 175.503, 145 172.083 C 145 170.479, 144.499 169, 143.887 168.796 C 142.274 168.258, 137.596 142.737, 138.876 141.458 C 139.127 141.206, 141.058 141, 143.167 141 C 145.275 141, 147 140.550, 147 140 C 147 139.450, 147.645 139, 148.433 139 C 149.221 139, 150.151 138.100, 150.500 137 C 151.104 135.099, 152.013 135, 168.960 135 C 184.257 135, 186.872 134.777, 187.390 133.426 C 188.876 129.555, 186.331 129.147, 159.036 128.880 C 136.322 128.658, 132.713 128.413, 132.202 127.062 C 130.807 123.371, 129.326 123, 115.982 123 C 103.581 123, 102.716 122.871, 101.018 120.774 C 99.389 118.763, 98.970 118.678, 96.688 119.900 C 94.897 120.858, 92.316 121.063, 87.830 120.602 C 84.349 120.245, 80.825 119.988, 80 120.030 C 61.489 120.984, 51 121.001, 51 120.077 C 51 119.485, 50.550 119, 50 119 C 49.450 119, 49 119.900, 49 121 M 43 144 C 43 147.206, 44.391 148.030, 45.393 145.418 C 46.421 142.738, 46.070 141, 44.500 141 C 43.500 141, 43 142, 43 144 M 53.543 147.930 C 53.238 148.425, 53.553 149.058, 54.244 149.338 C 55.226 149.736, 55.204 150.056, 54.143 150.799 C 53.040 151.572, 53.029 151.900, 54.084 152.552 C 54.848 153.024, 55.546 152.863, 55.780 152.159 C 55.999 151.502, 56.813 150.329, 57.589 149.554 C 58.365 148.778, 59 147.984, 59 147.790 C 59 146.978, 54.053 147.105, 53.543 147.930" stroke="none" fill="#4fb2cc" fill-rule="evenodd"/></svg>