<svg xmlns="http://www.w3.org/2000/svg" width="194" height="194" viewBox="0 0 194 194" version="1.1"><path d="M 120 32 L 120 39 123.500 39 L 127 39 127 32 L 127 25 123.500 25 L 120 25 120 32 M 100.205 34.282 C 98.992 35.573, 98 37.069, 98 37.606 C 98 38.144, 100.029 40.575, 102.510 43.009 L 107.019 47.435 109.742 44.712 L 112.465 41.989 107.438 36.962 L 102.410 31.934 100.205 34.282 M 139.208 36.288 C 136.894 38.646, 135 41.043, 135 41.614 C 135 42.184, 136.012 43.599, 137.250 44.757 L 139.500 46.862 143 43.620 C 149.246 37.835, 149.400 37.475, 146.879 34.576 C 145.647 33.159, 144.364 32, 144.028 32 C 143.692 32, 141.523 33.930, 139.208 36.288 M 114.535 48.104 C 112.591 49.811, 111 51.836, 111 52.604 C 111 53.773, 105.074 54, 74.500 54 L 38 54 38 58 L 38 62 74.500 62 C 105.074 62, 111 62.227, 111 63.396 C 111 64.164, 112.591 66.189, 114.535 67.896 C 117.543 70.538, 118.864 71, 123.400 71 C 129.348 71, 132.967 68.899, 135.520 63.961 C 138.429 58.337, 137.206 52.920, 131.861 47.750 C 129.464 45.431, 128.160 45, 123.544 45 C 118.847 45, 117.568 45.441, 114.535 48.104 M 142.715 54.750 C 142.494 55.163, 142.355 56.850, 142.406 58.500 C 142.500 61.497, 142.506 61.500, 149.250 61.796 L 156 62.091 156 58.046 L 156 54 149.559 54 C 146.016 54, 142.937 54.337, 142.715 54.750 M 102.208 73.288 C 99.894 75.646, 98 78.043, 98 78.614 C 98 79.184, 99.013 80.596, 100.250 81.750 C 102.786 84.116, 103.301 83.861, 109.431 77.199 L 112.361 74.013 110.006 71.507 C 108.711 70.128, 107.374 69, 107.034 69 C 106.694 69, 104.523 70.930, 102.208 73.288 M 137.205 71.282 C 135.992 72.573, 135 74.069, 135 74.606 C 135 75.144, 137.029 77.575, 139.510 80.009 L 144.019 84.435 146.742 81.712 L 149.465 78.989 144.438 73.962 L 139.410 68.934 137.205 71.282 M 120 84 L 120 91 123.500 91 L 127 91 127 84 L 127 77 123.500 77 L 120 77 120 84 M 132.750 124.732 C 135.088 124.943, 138.912 124.943, 141.250 124.732 C 143.588 124.522, 141.675 124.349, 137 124.349 C 132.325 124.349, 130.412 124.522, 132.750 124.732" stroke="none" fill="#f5f5e8" fill-rule="evenodd"/><path d="M 23.350 108 C 23.020 109.650, 22.356 111, 21.875 111 C 21.394 111, 21 111.900, 21 113 C 21 114.100, 21.402 115, 21.893 115 C 23.157 115, 24.045 117.720, 23.362 119.500 C 22.974 120.509, 21.389 121, 18.515 121 C 16.167 121, 13.782 121.563, 13.216 122.250 C 12.650 122.938, 12.032 128.300, 11.843 134.167 C 11.545 143.443, 11.726 144.976, 13.236 145.917 C 14.299 146.580, 21.353 147, 31.419 147 C 47.016 147, 47.898 147.104, 48.503 149.010 C 48.987 150.534, 49.893 150.964, 52.245 150.784 C 53.953 150.654, 55.519 151.058, 55.727 151.682 C 55.935 152.305, 56.994 153.840, 58.080 155.092 C 59.166 156.344, 60.267 158.411, 60.527 159.684 C 61.712 165.486, 62.050 166.594, 63.067 168 C 63.885 169.130, 64.277 169.192, 64.659 168.250 C 64.938 167.563, 65.804 167, 66.583 167 C 67.362 167, 68 166.550, 68 166 C 68 165.450, 68.675 165, 69.500 165 C 70.647 165, 71 163.736, 71 159.622 C 71 153.936, 72.509 151.490, 75.345 152.579 C 76.225 152.916, 78.307 152.589, 79.972 151.852 C 82.762 150.617, 83.433 149.742, 83.118 147.750 C 82.916 146.468, 86.804 146.928, 87.341 148.250 C 87.737 149.226, 88.054 149.206, 88.788 148.160 C 89.533 147.099, 90.294 147.385, 92.442 149.533 C 95.639 152.730, 95.348 155.561, 91.421 159.488 C 88.447 162.462, 88.573 165.087, 91.756 166.487 C 92.990 167.030, 94 167.818, 94 168.237 C 94 169.441, 96.016 169.127, 97.442 167.701 C 98.743 166.399, 102.058 160.469, 102.020 159.510 C 101.935 157.361, 102.288 157, 104.475 157 C 106.692 157, 106.887 156.687, 106.350 154 L 105.750 151 112.375 151 C 116.125 151, 119 150.566, 119 150 C 119 149.450, 119.502 149, 120.115 149 C 120.878 149, 121.022 150.672, 120.569 154.297 C 119.793 160.507, 120.506 163, 123.060 163 C 125.046 163, 126.984 157.915, 126.994 152.679 C 127.003 148.160, 129.015 147, 136.845 147 C 141.500 147, 144.002 146.583, 144.338 145.750 C 144.741 144.750, 144.858 144.750, 144.921 145.750 C 145.043 147.680, 147.064 147.233, 149.164 144.811 C 150.651 143.097, 152.410 142.544, 157.281 142.261 C 168.013 141.638, 172.368 141.688, 176.700 142.481 C 180.691 143.212, 180.933 143.116, 181.576 140.553 C 181.948 139.070, 181.737 135.076, 181.107 131.678 C 180.477 128.280, 179.895 124.962, 179.814 124.304 C 179.712 123.475, 179.124 123.399, 177.899 124.054 C 175.298 125.446, 132.776 125.239, 125.810 123.800 C 122.615 123.140, 120 122.240, 120 121.800 C 120 121.360, 118.463 121, 116.583 121 C 114.704 121, 112.995 120.485, 112.786 119.857 C 112.500 118.999, 111.871 118.999, 110.268 119.857 C 109.093 120.485, 106.977 121, 105.566 121 C 104.155 121, 103 121.450, 103 122 C 103 122.550, 102.100 123, 101 123 C 99.900 123, 99 122.550, 99 122 C 99 121.450, 98.502 121, 97.893 121 C 97.284 121, 97.052 121.692, 97.376 122.538 C 98.113 124.457, 95.292 125.692, 93.733 124.133 C 93.110 123.510, 91.565 123, 90.300 123 C 89.035 123, 88 122.550, 88 122 C 88 121.450, 86.393 121, 84.429 121 C 79.534 121, 78 119.127, 78 113.153 C 78 105.924, 77.421 105, 72.893 105 C 70.752 105, 69 105.450, 69 106 C 69 106.630, 62.333 107, 51 107 C 39.667 107, 33 106.630, 33 106 C 33 105.450, 30.964 105, 28.475 105 C 24.247 105, 23.911 105.197, 23.350 108" stroke="none" fill="#4db3cd" fill-rule="evenodd"/></svg>