<svg version="1.0" xmlns="http://www.w3.org/2000/svg"
 width="1000" height="1000" viewBox="0 0 4000.000000 4000.000000"
 preserveAspectRatio="xMidYMid meet">

<g transform="translate(0.000000,4000.000000) scale(0.100000,-0.100000)"
fill="#3db8fe" stroke="none">
<path d="M19455 39644 c-508 -19 -871 -41 -1282 -79 -2851 -263 -5607 -1149
-8081 -2597 -3773 -2208 -6721 -5632 -8343 -9690 -774 -1937 -1233 -3997
-1359 -6108 -31 -527 -41 -1439 -20 -1935 81 -1922 398 -3666 989 -5445 389
-1169 865 -2252 1459 -3319 1247 -2244 2920 -4222 4927 -5828 1006 -804 2076
-1500 3233 -2102 2331 -1212 4923 -1940 7582 -2130 542 -39 746 -46 1425 -46
680 0 883 7 1425 46 3103 221 6087 1170 8750 2782 1854 1123 3529 2562 4926
4232 2239 2678 3722 5893 4298 9320 188 1116 270 2113 270 3270 0 693 -18
1123 -75 1755 -199 2234 -778 4408 -1714 6440 -1499 3254 -3880 6057 -6856
8073 -2488 1684 -5332 2776 -8294 3182 -584 80 -1117 129 -1795 165 -189 11
-1284 21 -1465 14z m485 -1103 l0 -979 298 -6 c377 -8 845 -24 1077 -36 1052
-58 1970 -179 2628 -346 191 -48 564 -166 590 -187 13 -11 -17 -118 -247 -872
-233 -764 -265 -860 -282 -858 -10 1 -102 22 -204 47 -794 191 -1600 318
-2420 381 -406 31 -543 36 -1040 42 -759 9 -1351 -21 -2060 -103 -727 -84
-1518 -231 -2069 -384 -79 -23 -145 -39 -146 -38 -2 2 -127 446 -278 987 -152
541 -278 985 -280 987 -2 2 -152 -47 -333 -110 -1721 -595 -3175 -1184 -3849
-1560 -54 -31 -102 -53 -106 -48 -13 14 -869 1491 -869 1499 1 17 519 297 950
513 1893 948 3892 1569 5995 1864 788 111 1689 180 2408 184 l237 2 0 -979z
m770 969 c2772 -106 5358 -752 7843 -1958 328 -160 956 -493 1160 -618 16 -9
-84 -188 -926 -1656 l-944 -1646 -49 31 c-103 64 -517 298 -704 397 -836 444
-1802 832 -2735 1097 -113 32 -205 61 -205 66 0 4 124 414 275 911 151 497
275 908 275 914 0 23 -344 148 -615 222 -859 234 -2189 384 -3607 407 l-408 6
0 919 0 918 193 0 c105 0 307 -5 447 -10z m-4757 -4388 c290 -1038 530 -1896
533 -1908 5 -18 -1 -23 -43 -33 -100 -25 -526 -153 -713 -214 -653 -216 -1238
-458 -1860 -768 -554 -277 -929 -495 -1440 -834 -677 -450 -1237 -896 -1833
-1459 l-169 -159 -2068 2068 -2069 2069 157 151 c954 921 2021 1760 3131 2464
311 197 642 393 654 388 7 -3 221 -366 477 -806 255 -441 467 -801 470 -801 4
0 62 32 131 71 517 297 1433 692 2674 1154 545 203 1394 503 1425 504 11 1
139 -441 543 -1887z m14119 1601 c2472 -1495 4581 -3510 6177 -5901 301 -451
619 -968 605 -981 -26 -23 -1488 -914 -1507 -918 -12 -3 -41 -21 -65 -40 l-42
-35 31 -41 c59 -78 215 -321 281 -437 320 -561 686 -1413 1068 -2485 85 -236
312 -914 373 -1111 l34 -110 -880 -238 c-484 -131 -885 -240 -891 -242 -7 -3
-28 63 -55 173 -263 1066 -702 2152 -1289 3183 -1059 1861 -2668 3644 -4609
5108 -387 291 -861 618 -1190 822 -84 51 -153 98 -153 102 0 7 1790 3137 1862
3255 23 39 -4 50 250 -104z m-10090 -2135 l3 -1013 320 -6 c1040 -21 2070
-166 3011 -425 l131 -36 -221 -885 c-208 -831 -222 -884 -241 -878 -241 71
-599 145 -940 194 -519 75 -1342 148 -1878 167 l-187 7 0 -1021 0 -1022 -127
0 c-260 0 -694 -31 -1048 -76 -358 -45 -656 -97 -1018 -181 -109 -25 -200 -43
-202 -41 -2 2 -216 852 -475 1888 -421 1686 -500 1987 -741 2849 -148 530
-269 965 -267 966 15 13 445 122 715 181 916 200 2094 335 2975 343 l188 1 2
-1012z m833 1002 c1916 -88 3645 -482 5330 -1214 256 -112 903 -433 1155 -574
151 -84 460 -264 478 -277 1 -1 -663 -1142 -1476 -2536 -813 -1394 -1482
-2541 -1488 -2550 -8 -15 -26 -7 -134 58 -173 102 -597 313 -827 411 -1091
463 -2309 727 -3505 759 l-238 6 0 954 0 953 36 0 c74 0 551 -31 844 -55 955
-79 1692 -200 2048 -335 40 -15 54 -17 57 -8 6 18 493 1969 497 1992 3 17 -14
25 -122 58 -401 122 -1044 259 -1590 337 -522 76 -1226 131 -1667 131 l-103 0
0 950 0 950 243 0 c133 0 341 -5 462 -10z m-12543 -3867 l2067 -2067 -160
-164 c-610 -627 -1192 -1364 -1627 -2060 -111 -177 -285 -475 -295 -506 -2 -5
-781 433 -1731 973 -951 540 -1734 980 -1741 978 -16 -7 -107 -128 -188 -252
-382 -584 -972 -1967 -1553 -3644 -53 -152 -98 -278 -100 -280 -5 -5 -1747
451 -1758 460 -5 4 18 101 52 221 818 2857 2301 5511 4331 7748 147 161 623
660 630 660 3 0 936 -930 2073 -2067z m19756 1650 c877 -538 1950 -1372 2821
-2194 l114 -108 -1961 -1968 c-1078 -1082 -2017 -2024 -2086 -2092 l-124 -124
-144 135 c-509 481 -1068 919 -1585 1241 l-150 93 1486 2547 c817 1401 1489
2547 1495 2547 5 0 65 -35 134 -77z m-11039 -2160 c255 -1022 466 -1863 468
-1869 2 -6 -47 -24 -114 -43 -685 -191 -1453 -505 -1963 -804 -84 -49 -96 -53
-107 -40 -7 9 -225 390 -484 847 -260 457 -474 833 -476 836 -9 10 -185 -58
-322 -126 -517 -256 -1159 -751 -1941 -1498 -107 -102 -197 -186 -200 -186 -3
0 -303 298 -668 663 l-663 663 133 129 c339 327 769 691 1189 1007 1321 995
2815 1740 4424 2207 132 38 245 70 250 70 6 1 219 -835 474 -1856z m14332
-500 c764 -774 1427 -1590 2004 -2467 172 -262 230 -355 224 -360 -6 -6 -3428
-1906 -3442 -1912 -9 -3 -48 52 -112 158 -305 506 -693 1042 -1071 1480 -154
178 -443 487 -524 558 -39 34 -70 67 -70 73 0 11 2707 2731 2721 2735 3 1 125
-118 270 -265z m-16111 -2405 c525 -925 956 -1687 958 -1694 2 -6 -63 -53
-143 -104 -536 -340 -1006 -720 -1460 -1182 -413 -418 -749 -843 -1045 -1318
-29 -47 -54 -86 -55 -88 -3 -3 -1596 937 -1612 952 -10 9 12 51 100 191 365
585 850 1209 1291 1663 l100 103 -703 703 -703 703 195 185 c812 771 1484
1284 1987 1514 63 29 120 53 125 53 6 0 440 -756 965 -1681z m21803 1276 c454
-800 881 -1705 1222 -2589 1367 -3541 1661 -7475 839 -11205 -58 -263 -161
-687 -171 -704 -6 -10 -215 42 -888 220 -484 128 -881 233 -882 234 -1 0 10
30 24 68 278 721 474 2037 568 3812 8 151 17 366 21 478 l7 202 -1000 0 -1000
0 -7 253 c-22 852 -172 2057 -430 3462 -24 132 -43 241 -42 242 2 2 1894 513
1900 513 13 0 3 40 -68 267 -170 541 -428 1283 -628 1801 -342 890 -691 1624
-977 2057 -36 55 -66 106 -66 113 0 13 1474 923 1489 919 5 -2 45 -66 89 -143z
m-23855 -2756 c-2 -3 -73 -85 -160 -180 -458 -507 -907 -1102 -1196 -1585
l-73 -122 -62 34 c-34 19 -424 232 -867 473 l-805 440 -46 -72 c-25 -39 -88
-145 -141 -236 -457 -791 -819 -1643 -994 -2340 -16 -63 -29 -116 -30 -118 -3
-4 -1816 477 -1822 483 -7 7 167 535 265 804 110 305 283 733 419 1041 139
314 452 941 589 1180 59 102 131 231 161 288 145 275 450 751 699 1092 354
485 697 895 1123 1341 l207 217 1368 -1367 c752 -751 1366 -1369 1365 -1373z
m6822 -217 l0 -2939 -92 -7 c-464 -34 -984 -184 -1441 -417 -65 -33 -120 -59
-122 -57 -10 11 -1025 1631 -1025 1637 0 8 11 13 325 155 409 184 749 309 960
352 60 12 110 26 112 32 5 13 -573 2073 -584 2084 -18 18 -397 -106 -703 -229
-335 -134 -727 -324 -1034 -501 -49 -28 -90 -50 -91 -49 -2 2 -208 365 -460
808 -251 443 -463 815 -471 827 -13 21 -10 24 109 91 183 104 315 172 486 252
1163 541 2471 849 3786 889 132 4 241 9 243 9 1 1 2 -1321 2 -2937z m765 2910
c1220 -96 2301 -373 3337 -855 272 -127 656 -340 651 -361 -2 -9 -2960 -5084
-2969 -5094 -2 -2 -79 32 -171 76 -446 214 -896 341 -1335 375 l-148 12 0
2935 0 2936 247 -7 c137 -3 311 -11 388 -17z m-14235 -1758 c916 -520 1668
-948 1671 -952 4 -3 -45 -98 -107 -211 -433 -776 -901 -1877 -1180 -2772 -32
-104 -62 -188 -68 -188 -5 0 -434 113 -952 250 -518 138 -946 250 -952 250
-12 0 -132 -484 -201 -810 -207 -980 -346 -2059 -366 -2850 -3 -118 -8 -252
-11 -297 l-6 -83 -1929 0 -1930 0 6 218 c35 1332 149 2386 384 3552 71 351
259 1155 273 1165 2 1 343 -87 758 -197 415 -109 839 -220 942 -247 l187 -49
32 97 c109 328 348 993 523 1453 459 1206 852 2062 1153 2516 57 86 79 112 92
107 9 -3 765 -432 1681 -952z m18458 411 c656 -406 1391 -1008 1964 -1610
1679 -1763 2597 -3912 2665 -6236 l6 -228 -955 0 -955 0 -6 168 c-23 610 -125
1313 -273 1890 -99 388 -208 691 -359 997 -134 271 -271 481 -422 645 l-60 64
-843 -488 c-463 -268 -846 -484 -850 -479 -4 4 -36 51 -70 103 -506 762 -1259
1518 -1844 1851 l-74 42 57 96 c963 1656 1898 3251 1904 3251 4 0 56 -30 115
-66z m3462 -211 c1042 -1058 1935 -2516 2463 -4023 415 -1184 622 -2316 663
-3627 l7 -213 -915 0 -914 0 -12 303 c-49 1217 -299 2315 -772 3397 -95 217
-314 650 -438 865 -412 720 -921 1397 -1494 1990 l-136 140 672 677 c369 372
676 677 681 677 6 1 93 -83 195 -186z m5293 -356 c547 -937 959 -1888 1243
-2866 71 -243 155 -584 147 -591 -6 -5 -3782 -1028 -3816 -1034 -5 0 -36 91
-68 204 -239 824 -591 1674 -988 2390 -73 130 -79 145 -63 154 162 95 3439
1912 3444 1909 3 -2 49 -76 101 -166z m-15689 -324 c50 -162 505 -1811 502
-1819 -2 -5 -30 -16 -62 -23 -79 -18 -299 -92 -463 -156 -304 -118 -892 -388
-890 -409 0 -6 247 -402 549 -881 454 -720 545 -872 533 -880 -223 -148 -291
-195 -390 -272 -305 -237 -556 -507 -771 -827 -52 -77 -98 -142 -102 -144 -7
-3 -3336 1961 -3354 1978 -9 9 80 156 212 350 885 1289 2167 2305 3666 2907
160 64 522 192 548 192 9 1 19 -7 22 -16z m-7137 -2032 c672 -366 1035 -573
1673 -950 448 -265 818 -485 821 -489 4 -4 -20 -54 -53 -112 -86 -148 -263
-506 -346 -695 -94 -217 -186 -459 -267 -705 -37 -113 -68 -206 -69 -208 -2
-1 -443 104 -982 233 -538 129 -982 235 -986 235 -23 0 -130 -514 -187 -900
-56 -385 -92 -747 -111 -1125 -6 -115 -13 -261 -16 -322 l-6 -113 -880 0 -881
0 7 293 c19 838 86 1602 196 2243 161 933 571 1977 1191 3026 19 32 35 58 36
58 1 0 388 -211 860 -469z m12032 -526 c552 -326 1149 -916 1682 -1660 63 -88
140 -202 173 -252 32 -51 59 -93 61 -93 2 0 384 221 850 490 466 270 851 490
855 490 12 0 120 -140 196 -255 267 -407 472 -945 619 -1628 92 -432 168
-1017 190 -1462 3 -66 8 -150 11 -187 l5 -68 -1945 0 c-1667 0 -1946 2 -1946
14 0 50 -37 291 -70 456 -138 685 -419 1317 -800 1801 -117 147 -381 407 -525
515 -124 93 -262 182 -354 228 -29 15 -51 33 -49 40 4 18 942 1625 949 1626 3
0 47 -25 98 -55z m12225 -732 c45 -213 197 -1124 255 -1523 143 -989 222
-1868 209 -2332 l-5 -168 1005 0 1005 0 -7 -152 c-86 -1945 -298 -3475 -578
-4164 l-33 -81 -1882 496 c-1035 273 -1885 499 -1888 503 -3 3 19 97 50 209
257 944 414 2031 432 2997 l6 322 -1015 0 -1016 0 -5 133 c-22 525 -29 662
-43 817 -53 616 -146 1198 -289 1795 -19 77 -32 141 -30 143 4 4 3797 1031
3812 1031 6 1 14 -11 17 -26z m-28192 -524 c1459 -386 1787 -477 1783 -489
-12 -39 -78 -424 -105 -609 -89 -620 -134 -1199 -156 -2033 l-6 -238 -1068 0
-1067 0 -7 -46 c-10 -74 -7 -694 4 -890 44 -773 179 -1629 376 -2393 24 -96
41 -178 37 -182 -9 -7 -1722 -468 -1755 -472 -25 -2 -20 -18 -92 293 -246
1061 -384 2132 -427 3325 -41 1126 130 2594 466 4008 30 125 57 232 60 236 3
5 42 -1 88 -13 45 -13 886 -236 1869 -497z m7377 -213 c787 -466 810 -481 796
-500 -250 -344 -420 -725 -549 -1233 -100 -395 -175 -885 -202 -1315 l-7 -108
-1940 0 -1940 0 7 168 c23 582 73 1085 157 1582 35 212 103 547 112 556 1 2
443 -102 981 -231 538 -129 981 -235 985 -235 4 0 23 51 41 113 111 378 305
874 481 1230 90 182 245 457 255 455 6 -2 377 -219 823 -482z m5641 -645 l0
-929 -77 -7 c-595 -52 -1125 -437 -1365 -990 -42 -95 -51 -110 -71 -108 -24 2
-3727 989 -3733 996 -6 5 80 279 126 402 95 252 221 494 342 656 l59 80 32
-19 c18 -11 392 -232 832 -492 440 -260 814 -481 832 -491 l31 -20 70 118
c371 628 957 1125 1697 1441 377 161 877 285 1173 291 l52 1 0 -929z m370 914
c422 -49 912 -202 1300 -407 63 -33 160 -84 216 -113 374 -193 714 -505 987
-905 298 -439 528 -1010 641 -1595 26 -137 56 -339 56 -380 l0 -25 -929 0
-928 0 -12 100 c-25 224 -76 395 -176 589 -258 501 -757 836 -1317 887 l-78 7
0 928 0 929 58 0 c31 0 113 -7 182 -15z m30 -2008 c297 -71 546 -212 753 -427
204 -211 334 -454 400 -748 18 -82 21 -128 21 -302 0 -174 -3 -220 -22 -307
-126 -579 -550 -1020 -1119 -1164 -414 -105 -847 -29 -1213 212 -126 83 -324
280 -409 408 -115 173 -197 375 -237 581 -27 143 -25 419 5 560 132 622 606
1088 1221 1200 155 29 452 22 600 -13z m-1932 -1072 c2 -2 -3 -38 -12 -81 -9
-42 -19 -109 -22 -148 -3 -39 -7 -81 -10 -93 l-4 -23 -995 0 -995 0 5 -132
c16 -376 40 -651 64 -736 7 -24 7 -34 -2 -37 -18 -6 -3707 -995 -3712 -995 -7
0 -44 91 -71 174 -90 286 -154 789 -180 1429 l-7 167 996 0 995 0 6 108 c28
477 105 1027 186 1333 l10 36 1872 -500 c1030 -275 1875 -501 1876 -502z
m-14095 -727 c43 -1648 354 -3395 862 -4852 327 -939 750 -1826 1168 -2450
l66 -99 -810 -479 c-445 -263 -813 -478 -817 -478 -4 0 -45 59 -91 132 -368
578 -797 1501 -1201 2583 -173 464 -490 1390 -490 1432 0 7 -6 16 -13 18 -6 3
-437 -105 -957 -239 -648 -167 -947 -240 -951 -232 -22 38 -190 774 -268 1166
-225 1137 -335 2190 -366 3488 l-7 262 1935 0 1934 0 6 -252z m8031 115 c37
-801 102 -1270 219 -1581 l33 -88 -2866 -768 c-1576 -423 -2869 -769 -2875
-770 -20 -2 -172 642 -245 1039 -74 405 -132 843 -165 1245 -22 274 -39 787
-30 933 l7 127 2958 0 2958 0 6 -137z m6028 47 c15 -179 78 -402 163 -570 124
-246 332 -484 563 -640 22 -15 18 -21 -448 -810 -259 -437 -474 -796 -479
-798 -5 -2 -163 117 -351 263 l-343 267 -66 -63 c-36 -35 -350 -347 -698 -693
l-631 -629 -55 59 c-476 516 -879 1130 -1138 1736 -61 142 -182 491 -194 558
l-6 35 913 244 c502 134 934 250 960 258 l46 13 -18 65 c-10 35 -21 69 -24 74
-18 28 -44 311 -60 634 l-4 87 932 -2 931 -3 7 -85z m5144 3 c-18 -231 -71
-486 -146 -693 -23 -63 -44 -122 -46 -130 -4 -12 172 -57 976 -250 540 -129
986 -238 992 -242 8 -4 3 -39 -17 -115 -177 -682 -586 -1385 -1177 -2023 -64
-69 -133 -142 -155 -162 l-38 -38 -684 684 -684 684 -87 -77 c-288 -254 -729
-547 -1007 -670 -178 -78 -396 -141 -490 -141 l-28 0 -218 873 c-120 479 -217
875 -217 878 0 4 35 19 78 34 220 78 406 199 592 385 229 228 364 460 440 760
19 75 49 264 50 313 0 16 51 17 936 17 l936 0 -6 -87z m6038 50 c-2 -21 -13
-141 -24 -268 -53 -597 -133 -1194 -216 -1595 -33 -161 -96 -408 -111 -435 -6
-10 -219 43 -948 236 -517 136 -948 248 -957 249 -10 0 -18 -7 -18 -15 0 -8
-9 -19 -20 -25 -11 -6 -20 -18 -20 -28 0 -27 -94 -353 -140 -487 -130 -376
-300 -723 -496 -1015 -94 -139 -118 -170 -132 -170 -11 0 -1541 885 -1556 900
-5 5 19 56 56 122 143 249 269 524 352 772 43 126 105 360 120 451 l7 40 -981
235 c-802 192 -980 238 -976 250 93 290 145 549 146 717 0 39 3 78 6 87 6 15
276 16 2959 16 l2953 0 -4 -37z m3996 -130 c0 -790 -153 -1908 -385 -2818 -97
-380 -97 -381 -120 -377 -19 4 -3675 967 -3706 977 -14 5 -12 19 17 114 61
203 135 581 194 996 48 345 130 1116 130 1232 l0 43 1935 0 1935 0 0 -167z
m-14267 -1240 c29 -14 95 -42 147 -62 l96 -36 -511 -1853 c-311 -1129 -515
-1852 -522 -1852 -20 0 -315 98 -450 149 -663 252 -1284 639 -1766 1102 l-108
104 655 655 c600 599 658 654 676 643 11 -7 173 -132 360 -278 188 -146 345
-263 349 -261 4 3 235 390 512 860 277 470 505 855 507 856 1 0 26 -12 55 -27z
m-4679 -148 c221 -734 692 -1532 1295 -2193 l94 -104 -664 -664 -663 -663 -24
22 c-91 84 -506 589 -730 889 -129 173 -382 534 -418 596 -10 18 -24 30 -30
28 -6 -2 -397 -232 -867 -510 -471 -278 -859 -506 -862 -506 -8 0 -123 179
-197 310 -211 370 -403 812 -568 1309 -83 249 -187 608 -178 616 6 7 3752
1013 3762 1011 4 -1 27 -65 50 -141z m5151 -1 c123 -20 373 -20 499 0 55 9
103 13 106 9 4 -4 110 -421 236 -925 l229 -918 71 0 c382 0 947 279 1532 758
l103 84 637 -633 c350 -349 637 -639 637 -646 0 -6 -38 -46 -85 -89 -733 -664
-1587 -1142 -2415 -1352 -441 -112 -806 -156 -1285 -156 -315 1 -508 14 -790
55 -197 28 -581 107 -596 122 -4 4 989 3633 1011 3695 5 15 1 15 110 -4z
m10445 -1189 c1552 -409 2824 -746 2827 -748 10 -11 -145 -574 -248 -898 -197
-622 -426 -1193 -688 -1714 -171 -339 -301 -567 -321 -559 -13 4 -5169 2991
-5178 2999 -1 1 34 54 79 116 267 373 524 942 659 1462 14 52 28 87 36 87 7 0
1282 -335 2834 -745z m-19481 87 c168 -612 435 -1275 702 -1742 78 -137 218
-359 254 -404 l23 -28 866 512 c477 282 868 510 870 509 1 -2 38 -56 81 -119
273 -399 633 -861 949 -1219 l109 -123 -1374 -1374 c-756 -756 -1380 -1373
-1386 -1372 -7 2 -84 69 -171 150 -1067 985 -2008 2559 -2585 4323 -54 163
-158 517 -171 580 l-6 30 877 237 c483 130 885 236 893 237 11 1 29 -50 69
-197z m16682 -1623 c1404 -814 2555 -1482 2557 -1484 6 -5 -214 -347 -341
-530 -419 -605 -802 -1061 -1351 -1611 -617 -616 -1187 -1086 -1900 -1563
-214 -143 -573 -371 -585 -371 -5 0 -901 1568 -908 1589 -1 3 66 48 150 100
685 425 1360 927 1761 1312 l119 114 -1453 1447 -1453 1446 134 144 c244 261
465 534 634 786 38 56 72 102 75 102 4 0 1156 -666 2561 -1481z m-18641 1297
c0 -25 111 -402 187 -631 503 -1531 1284 -2930 2187 -3918 133 -145 396 -407
505 -502 44 -38 80 -75 80 -80 1 -6 -291 -302 -647 -658 l-648 -648 -200 203
c-1378 1406 -2436 3094 -3082 4918 -103 291 -268 817 -259 826 4 5 1848 502
1865 503 6 1 12 -5 12 -13z m-1989 -568 c29 -112 144 -482 199 -643 508 -1486
1259 -2851 2241 -4075 303 -378 570 -679 902 -1016 119 -121 217 -223 217
-226 0 -3 -949 -951 -2109 -2107 l-2109 -2101 -204 213 c-2247 2349 -3826
5085 -4713 8167 -45 157 -82 286 -81 287 3 3 1789 463 1790 461 1 -2 39 -118
85 -258 469 -1433 1023 -2742 1494 -3530 80 -134 255 -400 263 -400 3 0 1830
1076 1842 1086 2 1 -35 57 -82 124 -429 611 -903 1601 -1233 2575 -116 346
-312 1001 -301 1010 7 5 1755 473 1770 474 12 1 21 -12 29 -41z m29229 -723
c1553 -409 2824 -746 2826 -748 5 -5 -164 -589 -235 -812 -468 -1475 -1087
-2847 -1874 -4160 -669 -1114 -1467 -2184 -2351 -3150 -196 -214 -478 -506
-486 -503 -14 6 -2720 2652 -2720 2660 0 5 42 53 93 106 429 454 1023 1189
1497 1852 183 256 530 779 703 1060 109 176 142 238 134 246 -7 6 -388 229
-847 494 -459 266 -838 486 -842 489 -3 3 36 80 88 171 258 449 538 1066 747
1645 140 390 302 919 387 1263 20 83 37 132 45 132 7 0 1283 -335 2835 -745z
m-10682 -1048 l1404 -1404 -104 -96 c-300 -278 -746 -618 -1268 -966 -256
-171 -525 -341 -538 -341 -4 0 -226 384 -492 853 -266 468 -487 856 -491 861
-4 5 -146 -60 -316 -146 -169 -85 -398 -194 -508 -243 -330 -145 -968 -396
-979 -384 -5 4 -516 1827 -516 1837 0 4 67 28 148 55 352 114 749 296 1102
507 356 212 781 531 1045 783 50 47 95 86 100 87 6 0 642 -632 1413 -1403z
m-9087 1236 c585 -536 1300 -949 2071 -1195 129 -41 167 -56 163 -68 -2 -8
-234 -852 -516 -1876 l-512 -1861 -116 34 c-529 158 -1051 362 -1536 603 -318
158 -480 250 -479 272 1 15 933 1638 976 1699 l18 27 -58 22 c-362 143 -817
477 -1292 948 l-204 203 664 664 c366 366 668 664 671 663 4 -2 71 -62 150
-135z m-1379 -1476 c425 -425 809 -722 1157 -896 55 -28 101 -53 101 -56 0 -5
-2910 -5047 -2919 -5058 -7 -7 -367 220 -611 387 -706 484 -1267 932 -1883
1504 l-188 174 2073 2069 c1140 1137 2074 2068 2075 2068 2 1 89 -86 195 -192z
m3943 147 c705 -159 1424 -182 2104 -68 126 21 440 87 474 99 8 4 96 -297 288
-983 248 -888 278 -987 295 -983 37 6 382 134 619 228 327 131 641 271 943
420 142 71 257 122 261 117 13 -14 910 -1598 912 -1608 2 -13 -92 -66 -366
-207 -1061 -544 -2159 -875 -3310 -998 -319 -35 -446 -42 -830 -48 -814 -13
-1523 64 -2325 252 -267 62 -302 73 -296 93 7 20 1014 3676 1023 3710 5 20 10
22 32 17 14 -4 94 -22 176 -41z m12090 -884 c440 -255 806 -469 813 -475 11
-10 -5 -41 -88 -171 -471 -733 -991 -1414 -1580 -2069 -195 -216 -695 -715
-910 -907 -434 -387 -867 -725 -1405 -1095 -241 -166 -985 -655 -1130 -743
-606 -366 -1537 -756 -2507 -1051 -214 -64 -520 -150 -523 -146 -6 9 -467
1759 -464 1762 2 2 96 34 209 70 1013 330 2105 866 3075 1510 539 357 989 703
1475 1133 214 189 785 761 972 972 451 510 825 1007 1182 1572 38 60 71 106
75 104 3 -2 366 -212 806 -466z m1740 -1009 c498 -289 790 -464 789 -474 -2
-21 -244 -405 -449 -712 -567 -848 -1252 -1719 -1853 -2353 l-135 -144 74 -73
c41 -40 673 -657 1404 -1371 732 -713 1331 -1300 1333 -1304 1 -4 -91 -99
-205 -211 -1044 -1024 -2286 -1983 -3561 -2751 -90 -54 -166 -98 -170 -98 -8
1 -2956 5053 -2959 5073 -2 6 165 122 369 257 810 533 1326 914 1818 1345 783
685 1579 1582 2245 2530 101 143 377 556 453 678 23 37 46 67 50 67 4 0 363
-207 797 -459z m-17264 -1062 c173 -100 599 -309 819 -403 1154 -492 2357
-763 3558 -803 l202 -6 0 -940 0 -940 -147 7 c-1112 52 -1987 168 -2493 331
-139 45 -231 86 -280 125 -21 17 -42 30 -46 30 -5 0 -247 -880 -538 -1956
-292 -1075 -533 -1957 -537 -1960 -5 -2 -72 12 -151 31 -611 154 -1350 415
-2043 723 -582 258 -1422 688 -1419 726 2 17 2936 5105 2945 5106 3 0 61 -32
130 -71z m9854 -739 c246 -432 447 -789 448 -794 6 -27 -884 -489 -1283 -666
-469 -209 -1047 -424 -1368 -510 -66 -18 -82 -26 -78 -39 48 -159 494 -1867
488 -1872 -14 -14 -453 -115 -797 -185 -813 -165 -1778 -274 -2421 -274 l-134
0 0 1935 0 1935 149 0 c173 0 434 14 676 36 1007 91 2002 353 2965 779 189 83
645 311 800 398 52 30 98 51 102 48 4 -4 208 -359 453 -791z m-14656 -618
c683 -641 1342 -1160 2145 -1690 138 -92 289 -189 334 -217 45 -27 82 -53 82
-56 0 -4 -836 -1456 -985 -1710 l-34 -59 92 -54 c281 -164 879 -471 1242 -636
812 -371 1543 -637 2260 -824 94 -24 170 -48 169 -52 -3 -26 -1018 -3770
-1024 -3777 -13 -15 -620 165 -1080 320 -2337 785 -4513 2015 -6410 3622 -300
255 -678 598 -1000 909 l-145 140 2105 2106 c1158 1158 2107 2106 2109 2106 2
0 65 -57 140 -128z m6584 -1476 c405 -159 1191 -288 2142 -351 210 -13 595
-35 637 -35 17 0 18 -105 20 -2012 l3 -2013 130 3 c307 6 1000 56 1485 108
825 87 1536 201 2183 350 132 31 242 53 245 49 4 -3 122 -401 263 -883 192
-657 253 -879 244 -884 -24 -15 -468 -127 -732 -187 -917 -206 -1821 -336
-2733 -396 -256 -16 -759 -35 -962 -35 l-128 0 0 -1002 0 -1003 -377 7 c-1463
25 -2980 228 -4390 589 -106 27 -195 49 -198 49 -3 0 -5 6 -5 13 0 21 2073
7667 2079 7667 4 0 46 -16 94 -34z m11117 -3125 c809 -1389 1472 -2529 1473
-2534 4 -21 -634 -368 -1123 -611 -1974 -979 -4057 -1604 -6255 -1875 -670
-83 -1522 -141 -2070 -141 l-215 0 0 934 0 933 38 7 c20 3 120 6 222 6 764 0
1917 122 2865 301 606 115 1465 328 1465 364 0 12 -578 1996 -583 2001 -1 2
-72 -15 -157 -36 -467 -119 -1142 -244 -1755 -324 -577 -76 -1351 -148 -1845
-171 -69 -3 -153 -8 -187 -11 l-63 -6 0 955 0 954 243 7 c1354 38 2796 302
4187 765 890 296 1705 657 2214 981 34 22 64 36 67 32 4 -4 669 -1143 1479
-2531z"/>
</g>
</svg>
