<?xml version="1.0" encoding="UTF-8"?>
<!DOCTYPE svg PUBLIC "-//W3C//DTD SVG 1.1//EN" "http://www.w3.org/Graphics/SVG/1.1/DTD/svg11.dtd">
<svg xmlns="http://www.w3.org/2000/svg" version="1.1" width="1000px" height="1000px" style="shape-rendering:geometricPrecision; text-rendering:geometricPrecision; image-rendering:optimizeQuality; fill-rule:evenodd; clip-rule:evenodd" xmlns:xlink="http://www.w3.org/1999/xlink">
<g><path style="opacity:0.981" fill="#000000" d="M 471.5,11.5 C 480.5,11.5 489.5,11.5 498.5,11.5C 498.5,27.8333 498.5,44.1667 498.5,60.5C 529.413,60.0225 560.08,62.5225 590.5,68C 598.564,69.4293 606.23,71.9293 613.5,75.5C 608.96,89.7863 604.626,104.12 600.5,118.5C 533.752,102.264 467.085,102.597 400.5,119.5C 396.301,103.04 391.635,86.7067 386.5,70.5C 350.371,82.2611 315.205,96.2611 281,112.5C 280.167,112.167 279.333,111.833 278.5,111.5C 271.617,99.7847 264.95,87.9514 258.5,76C 272.042,67.0592 286.376,59.3926 301.5,53C 355.837,29.1704 412.504,15.3371 471.5,11.5 Z"/></g>
<g><path style="opacity:0.981" fill="#000000" d="M 500.5,11.5 C 587.186,11.3356 667.853,33.0023 742.5,76.5C 727.412,104.353 711.579,131.686 695,158.5C 666.529,141.726 636.362,128.726 604.5,119.5C 604.167,118.833 603.833,118.167 603.5,117.5C 607.633,103.101 611.966,88.7679 616.5,74.5C 616.291,73.914 615.957,73.414 615.5,73C 590.916,64.4576 565.583,59.7909 539.5,59C 526.507,58.2622 513.507,57.7622 500.5,57.5C 500.5,42.1667 500.5,26.8333 500.5,11.5 Z"/></g>
<g><path style="opacity:0.985" fill="#000000" d="M 381.5,74.5 C 383.451,74.2267 384.951,74.8934 386,76.5C 395.131,107.692 403.631,139.026 411.5,170.5C 370.929,181.288 333.595,198.788 299.5,223C 286.031,233.469 272.864,244.303 260,255.5C 225.707,222.207 191.707,188.54 158,154.5C 157.333,153.167 157.333,151.833 158,150.5C 186.71,122.111 218.543,97.9442 253.5,78C 254.635,77.2506 255.635,77.4173 256.5,78.5C 263.667,90.8333 270.833,103.167 278,115.5C 278.561,116.022 279.228,116.355 280,116.5C 291.165,110.334 302.665,104.834 314.5,100C 336.737,90.9806 359.071,82.4806 381.5,74.5 Z"/></g>
<g><path style="opacity:0.984" fill="#000000" d="M 744.5,78.5 C 748.856,79.5107 752.856,81.3441 756.5,84C 824.141,126.64 878.641,182.14 920,250.5C 920.72,252.112 920.554,253.612 919.5,255C 906.63,262.597 893.963,270.43 881.5,278.5C 898.189,306.884 911.355,336.884 921,368.5C 922.199,373.265 923.699,377.931 925.5,382.5C 912.283,386.639 898.95,390.472 885.5,394C 883.833,394.667 882.167,394.667 880.5,394C 868.014,347.531 847.181,305.364 818,267.5C 783.722,225.208 743.888,189.374 698.5,160C 713.965,132.903 729.298,105.736 744.5,78.5 Z"/></g>
<g><path style="opacity:0.981" fill="#000000" d="M 476.5,109.5 C 484.167,109.5 491.833,109.5 499.5,109.5C 499.5,126.167 499.5,142.833 499.5,159.5C 528.395,159.653 556.728,163.653 584.5,171.5C 584.833,172.167 585.167,172.833 585.5,173.5C 581.847,187.443 578.514,201.443 575.5,215.5C 550.499,210.817 525.332,207.817 500,206.5C 499.5,223.497 499.333,240.497 499.5,257.5C 478.919,258.281 458.586,260.948 438.5,265.5C 427.334,217.669 415.001,170.169 401.5,123C 410.239,119.898 419.239,117.565 428.5,116C 444.581,113.325 460.581,111.158 476.5,109.5 Z"/></g>
<g><path style="opacity:0.981" fill="#000000" d="M 501.5,109.5 C 567.793,108.74 629.793,124.573 687.5,157C 689.968,158.216 691.968,159.883 693.5,162C 669.426,204.148 645.093,246.148 620.5,288C 619.5,288.667 618.5,288.667 617.5,288C 581.428,268.148 542.762,257.981 501.5,257.5C 501.5,241.5 501.5,225.5 501.5,209.5C 527.097,210.583 552.263,213.583 577,218.5C 580.912,203.019 584.745,187.519 588.5,172C 588.245,170.674 587.578,169.674 586.5,169C 558.699,161.195 530.366,157.362 501.5,157.5C 501.5,141.5 501.5,125.5 501.5,109.5 Z"/></g>
<g><path style="opacity:0.982" fill="#000000" d="M 152.5,155.5 C 153.873,155.343 155.207,155.51 156.5,156C 190,189.5 223.5,223 257,256.5C 257.667,257.5 257.667,258.5 257,259.5C 236.961,279.695 219.794,302.029 205.5,326.5C 177.338,310.92 149.338,295.087 121.5,279C 120.5,278.333 119.5,278.333 118.5,279C 110.923,289.314 104.757,300.481 100,312.5C 90.5301,335.748 81.3634,359.082 72.5,382.5C 57.6929,378.633 43.0262,374.467 28.5,370C 51.7775,287.674 93.1108,216.174 152.5,155.5 Z"/></g>
<g><path style="opacity:0.987" fill="#000000" d="M 695.5,163.5 C 698.016,163.755 700.35,164.589 702.5,166C 727.776,182.772 751.442,201.605 773.5,222.5C 738.806,257.527 704.139,292.527 669.5,327.5C 654.494,313.975 638.828,301.475 622.5,290C 647.229,248.04 671.562,205.873 695.5,163.5 Z"/></g>
<g><path style="opacity:0.976" fill="#000000" d="M 410.5,172.5 C 411.496,172.414 412.329,172.748 413,173.5C 421.031,204.617 428.531,235.617 435.5,266.5C 416.717,271.593 398.883,278.926 382,288.5C 373.63,275.111 365.63,261.444 358,247.5C 357.439,246.978 356.772,246.645 356,246.5C 347.952,249.772 340.452,253.939 333.5,259C 320.275,269.123 307.608,279.956 295.5,291.5C 284.514,281.014 273.681,270.348 263,259.5C 262.333,258.833 262.333,258.167 263,257.5C 304.81,216.67 353.977,188.336 410.5,172.5 Z"/></g>
<g><path style="opacity:0.978" fill="#000000" d="M 774.5,225.5 C 775.552,225.351 776.552,225.517 777.5,226C 800.955,248.958 821.289,274.292 838.5,302C 810.279,318.611 781.612,334.445 752.5,349.5C 745.024,339.242 737.524,328.909 730,318.5C 722.989,309.993 715.823,301.659 708.5,293.5C 708.667,292.833 708.833,292.167 709,291.5C 731.035,269.632 752.868,247.632 774.5,225.5 Z"/></g>
<g><path style="opacity:0.974" fill="#000000" d="M 354.5,249.5 C 355.376,249.369 356.043,249.702 356.5,250.5C 372.554,278.106 388.22,305.94 403.5,334C 376.35,351.983 353.683,374.483 335.5,401.5C 321.905,393.898 308.571,385.898 295.5,377.5C 305.724,359.769 318.057,343.603 332.5,329C 320.791,317.625 309.458,305.959 298.5,294C 314.444,275.554 333.111,260.721 354.5,249.5 Z"/></g>
<g><path style="opacity:0.981" fill="#000000" d="M 920.5,256.5 C 921.822,256.33 922.989,256.663 924,257.5C 987.502,372.511 1003.67,493.845 972.5,621.5C 971.833,621.833 971.167,622.167 970.5,622.5C 956.007,618.961 941.674,614.961 927.5,610.5C 932.847,595.599 936.347,580.266 938,564.5C 940.476,542.328 942.309,520.161 943.5,498C 926.837,497.5 910.17,497.333 893.5,497.5C 891.472,463.94 887.472,430.607 881.5,397.5C 897.13,393.342 912.797,389.342 928.5,385.5C 918.551,348.471 904.217,313.305 885.5,280C 885.645,279.228 885.978,278.561 886.5,278C 898.067,271.059 909.4,263.892 920.5,256.5 Z"/></g>
<g><path style="opacity:0.976" fill="#000000" d="M 258.5,260.5 C 259.552,260.351 260.552,260.517 261.5,261C 283.667,283.167 305.833,305.333 328,327.5C 328.667,328.167 328.667,328.833 328,329.5C 315.161,344.319 303.161,359.653 292,375.5C 278.278,368.723 264.778,361.556 251.5,354C 250.365,353.251 249.365,353.417 248.5,354.5C 235.567,375.69 225.401,398.024 218,421.5C 203.522,417.589 189.022,413.755 174.5,410C 173.978,409.439 173.645,408.772 173.5,408C 190.709,352.04 219.042,302.873 258.5,260.5 Z"/></g>
<g><path style="opacity:0.97" fill="#000000" d="M 487.5,260.5 C 491.5,260.5 495.5,260.5 499.5,260.5C 499.667,309.501 499.5,358.501 499,407.5C 485.479,408.894 472.646,412.728 460.5,419C 459.056,419.781 457.723,419.614 456.5,418.5C 448.292,405.249 439.958,392.082 431.5,379C 442.513,372.828 454.179,368.328 466.5,365.5C 461.833,348.167 457.167,330.833 452.5,313.5C 436.589,318.038 421.422,324.372 407,332.5C 399.76,321.028 392.76,309.361 386,297.5C 384.41,295.35 383.743,293.017 384,290.5C 416.365,272.875 450.865,262.875 487.5,260.5 Z"/></g>
<g><path style="opacity:0.979" fill="#000000" d="M 501.5,260.5 C 541.524,260.756 579.19,270.256 614.5,289C 615.728,289.779 616.728,290.779 617.5,292C 593.219,334.73 568.552,377.23 543.5,419.5C 530.603,412.859 516.936,408.859 502.5,407.5C 501.5,358.505 501.167,309.505 501.5,260.5 Z"/></g>
<g><path style="opacity:0.983" fill="#000000" d="M 119.5,281.5 C 146.273,296.055 172.94,310.889 199.5,326C 201.613,326.872 202.946,328.372 203.5,330.5C 190.265,355.369 179.265,381.203 170.5,408C 154.868,405.018 139.368,401.184 124,396.5C 123.5,396.833 123,397.167 122.5,397.5C 113.633,430.239 108.966,463.572 108.5,497.5C 76.1667,497.5 43.8333,497.5 11.5,497.5C 11.5862,455.477 16.9195,414.144 27.5,373.5C 43.5,377.5 59.5,381.5 75.5,385.5C 85.4888,353.185 97.9888,321.852 113,291.5C 114.996,288.014 117.163,284.681 119.5,281.5 Z"/></g>
<g><path style="opacity:0.98" fill="#000000" d="M 620.5,293.5 C 675.012,326.527 711.846,373.527 731,434.5C 736.866,455.093 739.699,476.093 739.5,497.5C 723.5,497.5 707.5,497.5 691.5,497.5C 691.217,471.918 686.384,447.252 677,423.5C 673.725,415.932 669.225,409.265 663.5,403.5C 649.585,411.374 635.752,419.374 622,427.5C 608.5,407.333 591.667,390.5 571.5,377C 587.971,349.221 604.304,321.388 620.5,293.5 Z"/></g>
<g><path style="opacity:0.974" fill="#000000" d="M 703.5,296.5 C 704.873,296.343 706.207,296.51 707.5,297C 760.835,352.884 787.835,419.717 788.5,497.5C 773.167,497.5 757.833,497.5 742.5,497.5C 740.991,431.93 717.324,375.93 671.5,329.5C 682.188,318.479 692.855,307.479 703.5,296.5 Z"/></g>
<g><path style="opacity:0.979" fill="#000000" d="M 837.5,305.5 C 839.39,305.297 840.89,305.963 842,307.5C 858.635,335.236 870.468,364.903 877.5,396.5C 846.105,404.516 814.772,412.849 783.5,421.5C 782.558,421.392 781.725,421.059 781,420.5C 774.465,397.056 765.299,374.723 753.5,353.5C 781.527,337.488 809.527,321.488 837.5,305.5 Z"/></g>
<g><path style="opacity:0.976" fill="#000000" d="M 448.5,316.5 C 449.75,316.577 450.583,317.244 451,318.5C 454.974,333.418 459.141,348.252 463.5,363C 451.032,366.572 439.366,371.738 428.5,378.5C 437.299,392.6 445.965,406.766 454.5,421C 449.779,425.214 444.779,429.214 439.5,433C 433.791,439.04 428.457,445.374 423.5,452C 420.725,451.626 418.058,450.626 415.5,449C 390.5,434.167 365.5,419.333 340.5,404.5C 339.386,403.277 339.219,401.944 340,400.5C 366.696,360.309 402.862,332.309 448.5,316.5 Z"/></g>
<g><path style="opacity:0.975" fill="#000000" d="M 249.5,356.5 C 278.797,370.798 307.131,386.798 334.5,404.5C 326.55,418.061 320.55,432.395 316.5,447.5C 299.887,443.888 283.387,439.888 267,435.5C 262.121,455.531 259.454,475.864 259,496.5C 244.245,497.491 229.412,497.824 214.5,497.5C 211.922,446.813 223.589,399.813 249.5,356.5 Z"/></g>
<g><path style="opacity:0.975" fill="#000000" d="M 569.5,380.5 C 571.308,380.491 572.975,380.991 574.5,382C 586.545,389.708 597.045,399.208 606,410.5C 610.936,417.386 616.103,424.053 621.5,430.5C 635.415,422.626 649.248,414.626 663,406.5C 672.253,418.007 678.586,431.007 682,445.5C 686.273,462.575 688.439,479.908 688.5,497.5C 656.167,497.5 623.833,497.5 591.5,497.5C 588.915,470.499 577.915,447.666 558.5,429C 554.338,426.329 550.338,423.495 546.5,420.5C 554.178,407.139 561.845,393.806 569.5,380.5 Z"/></g>
<g><path style="opacity:0.982" fill="#000000" d="M 876.5,398.5 C 877.931,398.881 878.764,399.881 879,401.5C 885.462,433.866 889.296,466.533 890.5,499.5C 907.167,499.5 923.833,499.5 940.5,499.5C 939.61,531.459 936.11,563.126 930,594.5C 928.391,599.823 926.891,605.156 925.5,610.5C 894.093,602.482 862.76,594.148 831.5,585.5C 831.167,584.833 830.833,584.167 830.5,583.5C 838.142,555.342 842.142,526.676 842.5,497.5C 825.5,497.5 808.5,497.5 791.5,497.5C 791.348,473.469 788.348,449.803 782.5,426.5C 782.833,425.833 783.167,425.167 783.5,424.5C 814.656,415.964 845.656,407.298 876.5,398.5 Z"/></g>
<g><path style="opacity:0.981" fill="#000000" d="M 124.5,399.5 C 155.545,407.625 186.545,415.959 217.5,424.5C 217.833,425 218.167,425.5 218.5,426C 214.046,449.613 211.713,473.446 211.5,497.5C 193.833,497.5 176.167,497.5 158.5,497.5C 157.969,511.471 158.469,525.471 160,539.5C 162.081,554.989 164.915,570.322 168.5,585.5C 154.143,589.006 139.81,592.673 125.5,596.5C 124.353,596.182 123.519,595.516 123,594.5C 107.199,529.345 107.699,464.345 124.5,399.5 Z"/></g>
<g><path style="opacity:0.971" fill="#000000" d="M 336.5,406.5 C 343.048,409.107 349.381,412.274 355.5,416C 362.167,420 368.833,424 375.5,428C 376.574,428.739 377.241,429.739 377.5,431C 365.667,451.493 359.667,473.66 359.5,497.5C 326.833,497.5 294.167,497.5 261.5,497.5C 262.008,478.26 264.341,459.26 268.5,440.5C 270.074,439.369 271.741,439.202 273.5,440C 288.478,443.661 303.478,447.161 318.5,450.5C 322.354,434.933 328.354,420.266 336.5,406.5 Z"/></g>
<g><path style="opacity:0.962" fill="#000000" d="M 494.5,410.5 C 496.167,410.5 497.833,410.5 499.5,410.5C 499.5,426.167 499.5,441.833 499.5,457.5C 481.429,459.751 468.596,469.084 461,485.5C 429.616,477.364 398.449,468.698 367.5,459.5C 370.07,449.027 374.737,439.693 381.5,431.5C 395.5,439.833 409.5,448.167 423.5,456.5C 440.346,430.657 464.012,415.324 494.5,410.5 Z"/></g>
<g><path style="opacity:0.964" fill="#000000" d="M 501.5,410.5 C 554.148,415.814 583.148,444.814 588.5,497.5C 572.833,497.5 557.167,497.5 541.5,497.5C 538.516,473.85 525.183,460.516 501.5,457.5C 501.5,441.833 501.5,426.167 501.5,410.5 Z"/></g>
<g><path style="opacity:0.975" fill="#000000" d="M 493.5,460.5 C 524.847,460.011 539.68,475.345 538,506.5C 531.323,528.433 516.49,538.267 493.5,536C 469.249,528.672 459.416,512.506 464,487.5C 469.281,473.38 479.115,464.38 493.5,460.5 Z"/></g>
<g><path style="opacity:0.962" fill="#000000" d="M 366.5,463.5 C 397.833,471.5 429.167,479.5 460.5,487.5C 460.74,490.579 460.407,493.579 459.5,496.5C 443.18,497.499 426.847,497.833 410.5,497.5C 410.46,505.187 410.793,512.854 411.5,520.5C 380.167,528.5 348.833,536.5 317.5,544.5C 314.041,529.705 312.041,514.705 311.5,499.5C 328.167,499.5 344.833,499.5 361.5,499.5C 362.349,487.372 364.016,475.372 366.5,463.5 Z"/></g>
<g><path style="opacity:0.981" fill="#000000" d="M 11.5,499.5 C 43.8333,499.5 76.1667,499.5 108.5,499.5C 108.849,561.559 123.015,620.226 151,675.5C 154.182,680.677 157.349,685.844 160.5,691C 147.697,699.908 134.363,708.075 120.5,715.5C 117.433,711.713 114.6,707.713 112,703.5C 97.0067,673.847 84.5067,643.18 74.5,611.5C 59.1618,615.501 43.8284,619.501 28.5,623.5C 27.914,623.291 27.414,622.957 27,622.5C 16.5008,582.173 11.3342,541.173 11.5,499.5 Z"/></g>
<g><path style="opacity:0.976" fill="#000000" d="M 160.5,499.5 C 210.167,499.5 259.833,499.5 309.5,499.5C 309.106,514.847 311.106,529.847 315.5,544.5C 268.718,558.324 221.552,571.324 174,583.5C 172.893,583.415 171.893,583.081 171,582.5C 163.665,555.318 160.165,527.651 160.5,499.5 Z"/></g>
<g><path style="opacity:0.971" fill="#000000" d="M 561.5,499.5 C 570.5,499.5 579.5,499.5 588.5,499.5C 588.325,507.707 586.991,515.707 584.5,523.5C 601.079,526.894 617.412,531.061 633.5,536C 627.285,558.103 615.952,577.103 599.5,593C 598.5,593.667 597.5,593.667 596.5,593C 585.653,581.986 574.653,571.152 563.5,560.5C 553.596,569.622 542.263,576.456 529.5,581C 527.5,581.667 525.5,581.667 523.5,581C 519.684,567.071 516.017,553.071 512.5,539C 524.644,533.523 533.477,524.689 539,512.5C 540.283,508.586 541.116,504.586 541.5,500.5C 548.354,500.824 555.021,500.491 561.5,499.5 Z"/></g>
<g><path style="opacity:0.974" fill="#000000" d="M 659.5,499.5 C 686.167,499.5 712.833,499.5 739.5,499.5C 738.389,519.388 735.722,539.054 731.5,558.5C 715.118,555.363 698.952,551.363 683,546.5C 679.333,559.838 674,572.504 667,584.5C 665.71,586.792 664.043,588.792 662,590.5C 648.888,583.032 636.054,575.198 623.5,567C 629.713,556.191 634.047,544.691 636.5,532.5C 619.905,529.515 603.572,525.515 587.5,520.5C 589.731,514.009 591.065,507.343 591.5,500.5C 614.339,500.831 637.006,500.497 659.5,499.5 Z"/></g>
<g><path style="opacity:0.975" fill="#000000" d="M 742.5,499.5 C 774.833,499.5 807.167,499.5 839.5,499.5C 839.263,527.658 835.43,555.325 828,582.5C 827.612,583.428 826.945,584.095 826,584.5C 795.212,576.261 764.379,568.261 733.5,560.5C 738.053,540.408 741.053,520.075 742.5,499.5 Z"/></g>
<g><path style="opacity:0.974" fill="#000000" d="M 412.5,500.5 C 428.17,500.333 443.837,500.5 459.5,501C 461.436,514.429 467.769,525.262 478.5,533.5C 471.211,546.582 463.544,559.415 455.5,572C 454.5,572.667 453.5,572.667 452.5,572C 447.5,568.167 442.5,564.333 437.5,560.5C 426.347,571.152 415.347,581.986 404.5,593C 403.167,593.667 401.833,593.667 400.5,593C 385.398,576.474 374.398,557.474 367.5,536C 367.645,535.228 367.978,534.561 368.5,534C 384.31,530.131 399.977,525.798 415.5,521C 413.87,514.302 412.87,507.469 412.5,500.5 Z"/></g>
<g><path style="opacity:0.955" fill="#000000" d="M 480.5,534.5 C 482.812,535.32 485.146,536.153 487.5,537C 488.059,537.725 488.392,538.558 488.5,539.5C 480.007,569.808 471.673,600.142 463.5,630.5C 441.572,624.726 422.406,614.06 406,598.5C 405.333,597.167 405.333,595.833 406,594.5C 415.863,584.303 426.029,574.47 436.5,565C 437.5,564.333 438.5,564.333 439.5,565C 444.454,568.285 449.12,571.952 453.5,576C 454.635,576.749 455.635,576.583 456.5,575.5C 464.775,561.942 472.775,548.276 480.5,534.5 Z"/></g>
<g><path style="opacity:0.972" fill="#000000" d="M 361.5,535.5 C 362.822,535.33 363.989,535.663 365,536.5C 372.217,558.352 383.551,577.685 399,594.5C 399.667,595.833 399.667,597.167 399,598.5C 388.625,609.209 377.959,619.543 367,629.5C 355.582,618.02 345.582,605.353 337,591.5C 322.978,600.345 308.645,608.678 294,616.5C 287.123,607.418 281.79,597.418 278,586.5C 275.268,579.637 272.934,572.637 271,565.5C 270.202,563.741 270.369,562.074 271.5,560.5C 301.7,552.453 331.7,544.12 361.5,535.5 Z"/></g>
<g><path style="opacity:0.973" fill="#000000" d="M 491.5,538.5 C 497.739,539.443 503.906,539.777 510,539.5C 513.606,554.426 517.44,569.259 521.5,584C 527.108,584.599 532.441,583.599 537.5,581C 546.713,576.235 555.379,570.735 563.5,564.5C 574.426,573.923 584.926,583.923 595,594.5C 595.667,595.5 595.667,596.5 595,597.5C 558.636,631.395 516.136,642.895 467.5,632C 466.446,630.612 466.28,629.112 467,627.5C 475.072,597.787 483.239,568.12 491.5,538.5 Z"/></g>
<g><path style="opacity:0.979" fill="#000000" d="M 683.5,550.5 C 731.23,561.974 778.73,574.307 826,587.5C 820.367,615.392 810.201,641.559 795.5,666C 793.711,666.52 792.044,666.187 790.5,665C 748.918,640.96 707.418,616.793 666,592.5C 669.927,584.645 673.927,576.645 678,568.5C 680.546,562.697 682.379,556.697 683.5,550.5 Z"/></g>
<g><path style="opacity:0.974" fill="#000000" d="M 264.5,561.5 C 266.124,561.36 267.29,562.027 268,563.5C 272.874,583.798 281.041,602.632 292.5,620C 307.078,612.286 321.578,604.119 336,595.5C 345.375,607.744 354.875,619.91 364.5,632C 342.333,655.5 319.5,678.333 296,700.5C 288.385,695.22 281.718,688.886 276,681.5C 250.007,649.35 232.507,613.184 223.5,573C 237.366,569.427 251.033,565.594 264.5,561.5 Z"/></g>
<g><path style="opacity:0.975" fill="#000000" d="M 620.5,570.5 C 629.23,574.694 637.897,579.194 646.5,584C 680.833,604.167 715.167,624.333 749.5,644.5C 723.327,687.008 688.66,720.675 645.5,745.5C 643.551,744.293 642.051,742.627 641,740.5C 635.667,731.167 630.333,721.833 625,712.5C 623.41,710.35 622.743,708.017 623,705.5C 641.025,695.064 657.525,682.564 672.5,668C 648.972,644.138 625.139,620.638 601,597.5C 600.333,596.5 600.333,595.5 601,594.5C 608.47,587.206 614.97,579.206 620.5,570.5 Z"/></g>
<g><path style="opacity:0.972" fill="#000000" d="M 216.5,574.5 C 217.822,574.33 218.989,574.663 220,575.5C 232.924,625.039 257.424,667.705 293.5,703.5C 283.139,714.695 272.306,725.361 261,735.5C 218.149,694.062 188.649,644.395 172.5,586.5C 187.352,582.789 202.019,578.789 216.5,574.5 Z"/></g>
<g><path style="opacity:0.981" fill="#000000" d="M 167.5,587.5 C 168.496,587.414 169.329,587.748 170,588.5C 186.858,646.085 216.358,695.918 258.5,738C 224.303,773.698 189.303,808.531 153.5,842.5C 92.9367,782.768 51.27,711.435 28.5,628.5C 28.6082,627.558 28.9415,626.725 29.5,626C 44.0498,622.238 58.5498,618.405 73,614.5C 82.3956,643.622 93.7289,671.956 107,699.5C 111,706.167 115,712.833 119,719.5C 134.25,710.459 149.416,701.292 164.5,692C 146.285,663.895 132.952,633.562 124.5,601C 124.905,600.055 125.572,599.388 126.5,599C 140.417,595.608 154.084,591.774 167.5,587.5 Z"/></g>
<g><path style="opacity:0.986" fill="#000000" d="M 828.5,588.5 C 876.507,600.084 924.174,612.751 971.5,626.5C 948.896,709.427 907.562,781.093 847.5,841.5C 824.196,819.863 801.529,797.53 779.5,774.5C 802.193,749.813 822.193,723.147 839.5,694.5C 827.584,686.439 815.251,678.939 802.5,672C 800.387,671.128 799.054,669.628 798.5,667.5C 812.137,642.558 822.137,616.224 828.5,588.5 Z"/></g>
<g><path style="opacity:0.973" fill="#000000" d="M 596.5,598.5 C 597.552,598.351 598.552,598.517 599.5,599C 622.681,622.014 645.681,645.18 668.5,668.5C 654.121,681.86 638.454,693.527 621.5,703.5C 620.522,703.023 619.689,702.357 619,701.5C 611.92,688.338 604.587,675.338 597,662.5C 596.439,661.978 595.772,661.645 595,661.5C 580.872,668.708 566.372,675.042 551.5,680.5C 546.706,665.662 542.373,650.662 538.5,635.5C 538.833,634.833 539.167,634.167 539.5,633.5C 561.308,626.111 580.308,614.444 596.5,598.5 Z"/></g>
<g><path style="opacity:0.971" fill="#000000" d="M 401.5,599.5 C 402.552,599.351 403.552,599.517 404.5,600C 412.445,607.635 421.112,614.302 430.5,620C 441.064,625.342 451.73,630.175 462.5,634.5C 453.901,665.132 445.401,695.799 437,726.5C 436.439,727.022 435.772,727.355 435,727.5C 417.757,722.462 401.257,715.628 385.5,707C 384.426,706.261 383.759,705.261 383.5,704C 391.24,689.853 399.24,675.853 407.5,662C 392.474,654.973 379.807,644.973 369.5,632C 379.687,620.647 390.354,609.813 401.5,599.5 Z"/></g>
<g><path style="opacity:0.975" fill="#000000" d="M 365.5,634.5 C 371.997,638.941 377.997,644.108 383.5,650C 388.656,654.414 394.323,658.081 400.5,661C 401.804,661.804 402.471,662.971 402.5,664.5C 378.842,706.485 354.676,748.152 330,789.5C 305.678,775.092 283.511,757.925 263.5,738C 297.328,703.339 331.328,668.839 365.5,634.5 Z"/></g>
<g><path style="opacity:0.981" fill="#000000" d="M 464.5,634.5 C 487.856,639.746 511.189,639.746 534.5,634.5C 539.602,650.638 544.602,666.805 549.5,683C 565.06,678.527 580.06,672.36 594.5,664.5C 602.673,677.509 610.34,690.842 617.5,704.5C 590.927,721.083 561.927,731.249 530.5,735C 500.454,738.447 470.787,736.447 441.5,729C 440.572,728.612 439.905,727.945 439.5,727C 448.148,696.228 456.481,665.394 464.5,634.5 Z"/></g>
<g><path style="opacity:0.974" fill="#000000" d="M 751.5,646.5 C 766.077,653.231 780.077,661.064 793.5,670C 745.609,747.38 677.943,798.88 590.5,824.5C 589.029,823.619 588.196,822.286 588,820.5C 584.339,806.857 580.839,793.19 577.5,779.5C 651.547,755.847 709.547,711.514 751.5,646.5 Z"/></g>
<g><path style="opacity:0.982" fill="#000000" d="M 795.5,671.5 C 808.101,677.802 820.434,684.635 832.5,692C 833.99,692.745 834.99,693.912 835.5,695.5C 818.415,724.1 798.415,750.6 775.5,775C 799.139,797.638 822.472,820.638 845.5,844C 816.098,874.086 783.265,899.586 747,920.5C 721.662,878.495 696.829,836.162 672.5,793.5C 694.157,779.346 714.823,763.846 734.5,747C 758.08,724.274 778.413,699.108 795.5,671.5 Z"/></g>
<g><path style="opacity:0.981" fill="#000000" d="M 380.5,707.5 C 417.476,727.933 457.143,738.599 499.5,739.5C 499.833,755.514 499.499,771.514 498.5,787.5C 476.596,786.603 454.929,783.77 433.5,779C 430.716,778.108 428.05,776.942 425.5,775.5C 416.035,807.693 407.035,840.026 398.5,872.5C 366.245,864.872 335.911,852.538 307.5,835.5C 331.857,792.779 356.19,750.112 380.5,707.5 Z"/></g>
<g><path style="opacity:0.977" fill="#000000" d="M 617.5,708.5 C 619.592,708.561 621.092,709.561 622,711.5C 628.333,722.833 634.667,734.167 641,745.5C 641.781,746.944 641.614,748.277 640.5,749.5C 619.644,761.597 597.644,770.93 574.5,777.5C 578.085,793.259 582.085,808.926 586.5,824.5C 558.785,832.602 530.451,836.602 501.5,836.5C 501.5,804.167 501.5,771.833 501.5,739.5C 542.99,739.33 581.657,728.997 617.5,708.5 Z"/></g>
<g><path style="opacity:0.986" fill="#000000" d="M 259.5,740.5 C 260.552,740.351 261.552,740.517 262.5,741C 283.078,760.271 305.078,777.604 328.5,793C 320.183,807.323 311.849,821.657 303.5,836C 318.448,845.308 334.115,853.308 350.5,860C 366.109,865.813 381.775,871.313 397.5,876.5C 388.906,907.711 380.239,938.878 371.5,970C 289.072,947.882 217.572,907.048 157,847.5C 156.333,846.167 156.333,844.833 157,843.5C 191.368,809.299 225.535,774.965 259.5,740.5 Z"/></g>
<g><path style="opacity:0.985" fill="#000000" d="M 426.5,779.5 C 435.606,782.489 444.939,784.656 454.5,786C 469.367,787.706 484.201,789.206 499,790.5C 499.5,823.832 499.667,857.165 499.5,890.5C 533.087,889.323 566.253,884.989 599,877.5C 600.735,878.682 601.735,880.349 602,882.5C 605.679,895.551 609.513,908.551 613.5,921.5C 576.346,932.522 538.346,937.855 499.5,937.5C 499.5,954.167 499.5,970.833 499.5,987.5C 457.212,988.006 415.712,982.673 375,971.5C 391.53,907.382 408.697,843.382 426.5,779.5 Z"/></g>
<g><path style="opacity:0.983" fill="#000000" d="M 667.5,795.5 C 668.552,795.351 669.552,795.517 670.5,796C 694.333,836.5 718.167,877 742,917.5C 743.187,919.044 743.52,920.711 743,922.5C 668.41,965.774 587.91,987.441 501.5,987.5C 501.5,971.833 501.5,956.167 501.5,940.5C 540.518,939.998 578.851,934.665 616.5,924.5C 612.311,908.431 607.811,892.431 603,876.5C 602.481,875.484 601.647,874.818 600.5,874.5C 567.944,882.194 534.944,886.528 501.5,887.5C 501.5,871.5 501.5,855.5 501.5,839.5C 557.02,838.286 609.687,825.453 659.5,801C 662.407,799.391 665.073,797.558 667.5,795.5 Z"/></g>
</svg>
